<svg xmlns="http://www.w3.org/2000/svg" version="1.1" viewBox="0.00 0.00 344.00 344.00" width="344.00" height="344.00">
<g stroke-width="2.00" fill="none" stroke-linecap="butt">
<path stroke="#e9e3e5" d="&#10;  M 290.19 49.81&#10;  Q 296.65 62.51 298.89 69.25&#10;  C 307.79 96.05 307.88 129.73 291.86 153.87&#10;  Q 269.61 187.41 231.73 201.27&#10;  C 220.74 205.29 210.18 206.68 197.10 208.38&#10;  C 191.73 209.07 186.03 210.73 180.50 212.03"/>
<path stroke="#e88d9a" d="&#10;  M 180.50 212.03&#10;  C 179.58 208.14 175.31 207.21 171.62 206.70&#10;  A 0.82 0.82 0.0 0 0 170.78 207.13&#10;  Q 170.50 207.63 170.53 208.51"/>
<path stroke="#e9e3e5" d="&#10;  M 170.53 208.51&#10;  L 168.45 207.63"/>
<path stroke="#e88d9a" d="&#10;  M 168.45 207.63&#10;  L 168.46 206.67&#10;  A 0.67 0.67 0.0 0 0 167.90 206.01&#10;  L 159.98 204.68"/>
<path stroke="#e9e3e5" d="&#10;  M 159.98 204.68&#10;  Q 159.05 204.97 158.08 204.26"/>
<path stroke="#e88d9a" d="&#10;  M 158.08 204.26&#10;  Q 157.63 203.70 157.48 203.75&#10;  Q 156.57 204.03 156.08 205.08&#10;  Q 153.85 209.83 152.91 211.56&#10;  A 0.41 0.41 0.0 0 1 152.14 211.42&#10;  Q 151.52 207.31 149.59 203.15&#10;  Q 149.16 202.21 147.88 202.47"/>
<path stroke="#e9e3e5" d="&#10;  M 147.88 202.47&#10;  Q 147.23 202.38 145.63 203.06"/>
<path stroke="#e88d9a" d="&#10;  M 145.63 203.06&#10;  Q 143.97 201.21 141.29 200.93"/>
<path stroke="#e9e3e5" d="&#10;  M 141.29 200.93&#10;  L 142.09 193.26"/>
<path stroke="#929095" d="&#10;  M 142.09 193.26&#10;  Q 144.85 190.42 143.91 188.01&#10;  Q 142.15 183.47 139.68 177.50&#10;  A 0.72 0.72 0.0 0 1 140.19 176.52&#10;  C 143.68 175.72 147.19 176.88 152.70 177.76&#10;  A 1.75 1.74 -74.1 0 0 154.59 176.70&#10;  L 155.18 175.23&#10;  A 1.19 1.18 17.6 0 0 154.34 173.62&#10;  Q 150.54 172.78 143.75 171.63&#10;  C 142.40 171.40 141.43 170.52 140.15 170.70&#10;  Q 139.31 170.82 137.38 170.45&#10;  C 133.58 169.72 129.75 169.37 129.13 174.30"/>
<path stroke="#e9e3e5" d="&#10;  M 129.13 174.30&#10;  L 126.34 172.99"/>
<path stroke="#9c989e" d="&#10;  M 126.34 172.99&#10;  L 127.44 170.07&#10;  A 0.67 0.66 -76.9 0 0 126.89 169.18&#10;  L 119.49 168.37&#10;  A 0.81 0.81 0.0 0 0 118.65 168.87&#10;  L 116.54 174.03&#10;  A 1.16 1.16 0.0 0 1 115.09 174.70&#10;  L 114.03 174.35&#10;  A 1.12 1.12 0.0 0 1 113.34 172.86&#10;  L 115.22 168.25&#10;  A 0.36 0.36 0.0 0 0 114.92 167.76&#10;  Q 114.03 167.68 108.50 167.00&#10;  Q 106.44 166.75 105.76 168.48"/>
<path stroke="#e9e3e5" d="&#10;  M 105.76 168.48&#10;  L 102.10 168.66"/>
<path stroke="#929095" d="&#10;  M 102.10 168.66&#10;  Q 100.16 166.22 96.80 165.93&#10;  Q 88.59 165.23 79.50 164.67&#10;  A 1.57 1.56 11.0 0 0 77.91 165.74&#10;  L 77.27 167.70&#10;  A 1.03 1.03 0.0 0 0 78.14 169.05&#10;  L 93.58 170.74&#10;  A 0.76 0.76 0.0 0 1 94.22 171.73&#10;  L 91.23 180.81&#10;  A 2.72 2.72 0.0 0 1 88.92 182.67&#10;  L 88.46 182.71&#10;  A 1.04 1.04 0.0 0 1 87.36 181.35&#10;  L 89.95 173.47&#10;  A 0.79 0.78 12.5 0 0 89.29 172.44&#10;  L 83.85 171.85&#10;  A 1.10 1.10 0.0 0 0 82.68 172.61&#10;  L 78.84 184.69"/>
<path stroke="#e9e3e5" d="&#10;  M 78.84 184.69&#10;  C 70.89 183.88 62.83 181.17 60.81 172.61&#10;  Q 59.62 167.54 58.81 162.37&#10;  A 2.34 2.33 -20.7 0 1 59.86 160.05&#10;  Q 62.05 158.65 65.74 158.09"/>
<path stroke="#87888d" d="&#10;  M 65.74 158.09&#10;  L 68.37 150.29&#10;  A 0.72 0.72 0.0 0 0 67.77 149.35&#10;  L 64.53 149.00&#10;  A 0.71 0.71 0.0 0 1 63.96 148.03&#10;  L 70.89 131.02&#10;  A 1.74 1.73 -75.5 0 1 72.69 129.95&#10;  L 75.46 130.25&#10;  A 1.45 1.45 0.0 0 0 76.96 129.35&#10;  L 79.31 123.60&#10;  A 0.67 0.66 12.1 0 0 78.72 122.69&#10;  Q 71.37 122.42 65.94 122.42&#10;  C 62.04 122.42 59.60 125.95 57.77 129.08&#10;  A 0.50 0.49 -71.9 0 0 58.14 129.82&#10;  L 63.65 130.42&#10;  A 0.29 0.29 0.0 0 1 63.88 130.82&#10;  L 56.70 148.43&#10;  A 0.91 0.90 10.1 0 1 55.87 149.00&#10;  L 50.46 149.07&#10;  A 0.23 0.22 11.2 0 1 50.25 148.76&#10;  L 51.84 144.87&#10;  A 0.35 0.35 0.0 0 0 51.28 144.48&#10;  Q 48.28 147.30 43.56 147.17&#10;  A 0.28 0.28 0.0 0 1 43.35 146.71&#10;  L 55.42 131.76&#10;  A 0.57 0.57 0.0 0 0 54.98 130.84&#10;  L 49.16 130.81&#10;  A 2.44 2.42 -69.7 0 0 47.31 131.67&#10;  Q 46.74 132.34 44.25 134.99&#10;  Q 43.76 135.52 43.01 135.60&#10;  A 0.71 0.71 0.0 0 1 42.33 134.52&#10;  Q 45.72 129.02 50.32 124.45&#10;  A 1.59 1.58 -70.2 0 1 51.25 124.01&#10;  L 56.14 123.47&#10;  A 0.17 0.17 0.0 0 0 56.13 123.14&#10;  C 52.73 122.95 44.22 122.38 41.74 125.24&#10;  Q 40.37 126.82 36.39 132.00"/>
<path stroke="#e9e3e5" d="&#10;  M 36.39 132.00&#10;  Q 32.08 101.15 45.03 73.27&#10;  Q 52.81 56.55 64.68 39.07"/>
<path stroke="#858489" d="&#10;  M 36.39 132.00&#10;  L 31.97 138.33&#10;  A 1.35 1.35 0.0 0 0 33.07 140.45&#10;  L 39.00 140.45&#10;  A 0.41 0.41 0.0 0 1 39.33 141.10&#10;  L 32.81 150.12&#10;  A 1.57 1.57 0.0 0 0 34.08 152.61&#10;  L 46.79 152.61&#10;  A 0.36 0.36 0.0 0 1 47.12 153.11&#10;  C 45.38 157.08 41.90 162.48 37.55 163.74&#10;  C 28.80 166.26 25.12 154.51 23.71 148.35&#10;  A 0.30 0.30 0.0 0 0 23.12 148.38&#10;  L 21.25 165.46&#10;  A 3.60 3.57 -57.0 0 0 21.70 167.61&#10;  Q 23.05 169.98 25.03 172.14&#10;  C 32.20 179.94 40.67 166.12 43.42 161.18&#10;  Q 44.34 159.53 45.97 158.63&#10;  A 2.10 2.10 0.0 0 1 47.00 158.36&#10;  L 65.74 158.09"/>
<path stroke="#8f8b91" d="&#10;  M 78.84 184.69&#10;  Q 78.55 185.79 79.01 186.27&#10;  A 0.50 0.46 -18.6 0 0 79.34 186.42&#10;  Q 87.28 187.18 92.57 187.58&#10;  C 95.43 187.79 96.65 186.36 97.59 183.85&#10;  Q 100.86 175.12 102.10 168.66"/>
<path stroke="#99949a" d="&#10;  M 105.76 168.48&#10;  L 99.34 186.11&#10;  A 1.68 1.68 0.0 0 0 100.73 188.35&#10;  L 106.04 188.93&#10;  A 1.91 1.91 0.0 0 0 108.14 187.23&#10;  Q 108.42 184.61 111.10 180.19&#10;  A 1.06 1.06 0.0 0 1 112.00 179.69&#10;  L 113.55 179.69&#10;  A 0.67 0.67 0.0 0 1 114.19 180.57&#10;  L 111.63 188.34&#10;  A 1.04 1.04 0.0 0 0 112.51 189.70&#10;  L 118.80 190.39&#10;  A 1.39 1.38 -76.5 0 0 120.25 189.50&#10;  L 126.34 172.99"/>
<path stroke="#8f8b91" d="&#10;  M 129.13 174.30&#10;  Q 129.97 179.14 132.69 184.01&#10;  Q 134.01 186.39 133.08 187.33&#10;  A 0.43 0.42 25.0 0 1 132.74 187.45&#10;  L 124.44 186.54&#10;  A 0.74 0.73 15.4 0 0 123.69 186.96&#10;  Q 122.89 188.69 122.98 190.28&#10;  A 0.78 0.77 2.2 0 0 123.66 191.01&#10;  L 142.09 193.26"/>
<path stroke="#e58996" d="&#10;  M 141.29 200.93&#10;  Q 137.35 200.59 136.17 203.43&#10;  C 134.28 208.00 138.75 213.41 143.72 211.57&#10;  C 147.45 210.20 147.65 206.05 145.63 203.06"/>
<path stroke="#e58996" d="&#10;  M 147.88 202.47&#10;  Q 149.06 206.89 150.86 211.17&#10;  Q 151.58 212.89 152.63 213.68&#10;  A 0.54 0.53 35.6 0 0 153.38 213.56&#10;  Q 156.39 209.26 158.08 204.26"/>
<path stroke="#e58996" d="&#10;  M 159.98 204.68&#10;  L 159.68 214.50&#10;  A 0.71 0.71 0.0 0 0 160.26 215.22&#10;  L 167.91 216.65&#10;  A 0.35 0.35 0.0 0 0 168.32 216.30&#10;  L 168.32 215.88&#10;  A 0.80 0.78 -84.8 0 0 167.68 215.10&#10;  L 162.07 214.05&#10;  A 1.14 1.13 -84.8 0 1 161.14 212.93&#10;  L 161.14 211.77&#10;  A 0.89 0.89 0.0 0 1 162.19 210.89&#10;  L 167.12 211.81&#10;  A 0.64 0.63 -81.2 0 0 167.87 211.25&#10;  L 167.91 210.87&#10;  A 0.64 0.63 -81.6 0 0 167.40 210.18&#10;  L 162.45 209.26&#10;  A 1.48 1.48 0.0 0 1 161.23 207.80&#10;  L 161.23 207.52&#10;  A 1.12 1.03 6.4 0 1 162.55 206.55&#10;  L 168.45 207.63"/>
<path stroke="#e58996" d="&#10;  M 170.53 208.51&#10;  L 170.31 215.68&#10;  A 1.83 1.83 0.0 0 0 171.71 217.52&#10;  C 176.16 218.58 181.49 218.50 180.50 212.03"/>
<path stroke="#ded5d8" d="&#10;  M 341.94 162.23&#10;  Q 336.23 177.59 332.62 184.57&#10;  Q 319.48 210.01 295.45 225.65&#10;  C 254.99 251.98 206.52 262.95 158.11 259.23&#10;  Q 111.09 255.62 68.98 238.86&#10;  C 47.59 230.34 28.44 218.31 17.83 198.96&#10;  Q 10.19 185.03 6.29 168.30&#10;  Q 3.32 155.56 2.01 149.22"/>
<path stroke="#cfc3c5" d="&#10;  M 328.16 240.62&#10;  Q 314.95 250.08 304.15 256.96&#10;  C 273.60 276.42 239.21 283.62 203.62 288.61&#10;  Q 160.98 294.58 114.95 289.36&#10;  C 92.86 286.86 71.55 283.75 52.09 272.72&#10;  C 39.07 265.34 27.41 255.11 16.36 244.76"/>
<path stroke="#c1b1b2" d="&#10;  M 308.07 275.20&#10;  Q 285.65 286.96 261.64 293.77&#10;  Q 242.14 299.30 212.57 303.59&#10;  Q 171.10 309.61 130.20 307.32&#10;  Q 110.73 306.22 94.29 303.27&#10;  C 75.06 299.81 58.87 293.23 44.02 282.00&#10;  Q 38.98 278.20 33.92 274.31"/>
<path stroke="#af9998" d="&#10;  M 280.53 304.15&#10;  Q 246.15 313.80 213.20 318.17&#10;  Q 191.22 321.08 165.63 322.08&#10;  C 144.93 322.88 125.74 322.98 108.10 319.95&#10;  Q 88.00 316.50 65.26 306.69"/>
<path stroke="#997d7b" d="&#10;  M 237.41 330.29&#10;  Q 195.54 337.53 153.37 337.33&#10;  Q 143.91 337.28 121.50 336.15"/>
<path stroke="#e88d9a" d="&#10;  M 74.24 112.99&#10;  L 70.68 119.16&#10;  A 0.67 0.67 0.0 0 0 71.65 120.05&#10;  L 77.08 116.25&#10;  A 1.27 1.26 50.8 0 1 78.72 116.42&#10;  Q 81.88 119.75 82.53 120.24&#10;  Q 82.79 120.44 83.00 120.41&#10;  Q 83.61 120.32 83.62 119.67&#10;  Q 83.64 117.14 83.43 112.85&#10;  A 1.50 1.50 0.0 0 1 84.06 111.57&#10;  L 90.54 107.04&#10;  A 0.56 0.56 0.0 0 0 90.51 106.10&#10;  Q 90.16 105.89 89.47 105.84&#10;  Q 86.32 105.63 83.90 105.70&#10;  A 0.92 0.92 0.0 0 1 82.95 104.78&#10;  L 82.95 98.57&#10;  A 0.63 0.63 0.0 0 0 81.78 98.25&#10;  L 77.97 104.85&#10;  A 1.08 1.07 -77.3 0 1 77.14 105.38&#10;  L 70.20 105.98&#10;  A 0.92 0.92 0.0 0 0 69.70 107.62&#10;  L 73.87 110.99&#10;  A 1.57 1.56 -55.5 0 1 74.24 112.99"/>
<path stroke="#eb9dac" d="&#10;  M 111.89 122.37&#10;  A 0.05 0.05 0.0 0 0 111.97 122.33&#10;  L 111.97 113.75&#10;  A 0.60 0.59 -14.5 0 1 112.28 113.23&#10;  L 119.55 109.03&#10;  A 0.67 0.67 0.0 0 0 119.29 107.79&#10;  L 112.15 107.01&#10;  A 0.66 0.65 -1.1 0 1 111.58 106.47&#10;  Q 110.98 102.91 110.86 100.50&#10;  Q 110.81 99.51 110.50 99.29&#10;  A 0.74 0.71 -56.5 0 0 109.46 99.53&#10;  Q 105.92 105.34 105.56 105.90&#10;  A 1.15 1.15 0.0 0 1 104.60 106.42&#10;  L 96.93 106.38&#10;  A 0.83 0.83 0.0 0 0 96.40 107.85&#10;  L 101.26 111.77&#10;  A 1.59 1.58 -55.7 0 1 101.64 113.80&#10;  L 98.14 119.85&#10;  A 0.71 0.71 0.0 0 0 99.11 120.82&#10;  L 104.71 117.59&#10;  A 1.23 1.23 0.0 0 1 106.10 117.69&#10;  L 111.89 122.37"/>
<path stroke="#eb9dac" d="&#10;  M 141.96 110.56&#10;  A 0.43 0.43 0.0 0 1 141.63 110.22&#10;  L 140.16 101.77&#10;  A 0.43 0.43 0.0 0 0 139.37 101.63&#10;  L 135.10 109.07&#10;  A 0.43 0.43 0.0 0 1 134.66 109.28&#10;  L 126.18 108.06&#10;  A 0.43 0.43 0.0 0 0 125.80 108.78&#10;  L 131.55 115.13&#10;  A 0.43 0.43 0.0 0 1 131.62 115.61&#10;  L 127.84 123.31&#10;  A 0.43 0.43 0.0 0 0 128.40 123.89&#10;  L 136.22 120.38&#10;  A 0.43 0.43 0.0 0 1 136.70 120.46&#10;  L 142.85 126.44&#10;  A 0.43 0.43 0.0 0 0 143.58 126.08&#10;  L 142.66 117.56&#10;  A 0.43 0.43 0.0 0 1 142.89 117.13&#10;  L 150.47 113.13&#10;  A 0.43 0.43 0.0 0 0 150.36 112.32&#10;  L 141.96 110.56"/>
<path stroke="#aca5ae" d="&#10;  M 95.53 137.25&#10;  L 100.55 150.36&#10;  A 0.41 0.41 0.0 0 1 100.12 150.91&#10;  L 96.49 150.51&#10;  A 1.12 1.12 0.0 0 0 95.31 151.28&#10;  L 92.83 158.80&#10;  A 0.69 0.68 12.0 0 0 93.41 159.69&#10;  L 99.52 160.36&#10;  A 2.56 2.54 -56.5 0 0 101.06 160.04&#10;  L 104.49 158.06&#10;  A 0.79 0.79 0.0 0 1 105.38 158.13&#10;  C 107.82 160.12 109.20 161.80 112.68 161.40&#10;  A 2.41 2.39 5.2 0 0 114.70 159.73&#10;  Q 116.14 155.14 116.44 154.44&#10;  A 4.79 4.23 -78.7 0 1 120.17 151.60&#10;  Q 121.18 151.53 124.28 152.17&#10;  A 0.76 0.75 -69.3 0 1 124.78 153.29&#10;  L 124.52 153.74&#10;  A 1.56 1.55 -63.5 0 1 122.57 154.40&#10;  Q 120.28 153.44 118.97 156.01&#10;  Q 117.41 159.05 117.02 160.65&#10;  A 0.60 0.59 11.1 0 0 117.52 161.39&#10;  L 132.00 163.25"/>
<path stroke="#929095" d="&#10;  M 132.00 163.25&#10;  L 154.61 166.88&#10;  A 2.07 2.07 0.0 0 0 155.25 166.88&#10;  C 158.70 166.33 159.83 164.55 161.29 161.82&#10;  A 1.10 1.09 -65.6 0 0 160.72 160.29&#10;  Q 158.00 159.23 156.72 159.35&#10;  A 0.66 0.66 0.0 0 1 156.03 158.49&#10;  L 156.16 158.08&#10;  A 1.27 1.26 -77.7 0 1 157.51 157.21&#10;  L 166.63 158.20&#10;  A 2.67 2.66 18.1 0 0 169.23 156.89&#10;  L 171.32 153.26&#10;  A 0.54 0.54 0.0 0 0 170.79 152.45&#10;  L 169.15 152.66&#10;  A 4.81 4.69 45.7 0 1 167.59 152.62&#10;  L 159.81 151.17&#10;  A 0.60 0.60 0.0 0 1 159.40 150.28&#10;  L 160.02 149.21&#10;  A 1.04 1.04 0.0 0 1 161.31 148.76&#10;  Q 163.02 149.45 164.67 149.32&#10;  A 1.37 1.34 -69.0 0 0 165.50 148.94&#10;  Q 167.68 146.80 168.85 144.06&#10;  A 0.92 0.92 0.0 0 0 168.23 142.81&#10;  C 166.25 142.31 164.23 141.73 162.26 141.46&#10;  Q 147.93 139.48 133.63 137.46"/>
<path stroke="#aca5ae" d="&#10;  M 133.63 137.46&#10;  C 127.77 134.72 126.27 138.20 124.04 142.56&#10;  A 0.60 0.59 -63.0 0 0 124.30 143.37&#10;  Q 125.50 143.96 127.28 144.18&#10;  A 0.78 0.78 0.0 0 1 127.50 145.66&#10;  C 125.40 146.60 122.66 145.99 120.73 148.07&#10;  Q 117.37 151.68 115.93 152.76&#10;  A 1.81 1.81 0.0 0 1 113.32 150.33&#10;  Q 118.93 141.63 123.74 130.75&#10;  Q 124.81 128.31 123.85 126.62&#10;  A 1.21 1.19 77.8 0 0 122.92 126.01&#10;  L 110.23 124.62&#10;  A 8.36 8.33 30.6 0 0 104.51 126.08&#10;  L 100.23 129.08&#10;  A 1.51 1.50 -59.4 0 0 100.93 131.81&#10;  L 113.56 133.20&#10;  A 0.25 0.25 0.0 0 1 113.75 133.57&#10;  L 107.61 144.20&#10;  A 0.58 0.58 0.0 0 1 106.57 144.12&#10;  L 104.17 137.66&#10;  A 1.44 1.44 0.0 0 0 102.84 136.73&#10;  L 95.57 136.66"/>
<path stroke="#9c989e" d="&#10;  M 95.57 136.66&#10;  Q 97.35 132.51 99.21 128.48&#10;  C 102.07 122.31 92.78 122.98 88.76 122.97&#10;  Q 81.57 122.96 78.47 129.21&#10;  A 0.43 0.43 0.0 0 0 78.81 129.83&#10;  L 89.79 131.03&#10;  A 0.14 0.14 0.0 0 1 89.90 131.23&#10;  L 84.72 141.27&#10;  A 0.35 0.35 0.0 0 1 84.08 141.23&#10;  L 82.61 137.31&#10;  A 2.19 2.17 82.8 0 0 80.79 135.89&#10;  L 75.85 135.35&#10;  A 1.12 1.12 0.0 0 0 74.70 136.91&#10;  Q 76.49 141.02 78.45 145.97&#10;  C 79.99 149.87 75.77 149.32 73.29 149.21&#10;  A 2.19 2.17 10.2 0 0 71.12 150.71&#10;  L 69.17 156.62&#10;  A 1.36 1.35 -77.6 0 0 70.30 158.39&#10;  Q 74.52 158.89 77.90 158.10&#10;  C 79.14 157.81 80.80 156.67 81.93 156.19&#10;  A 0.92 0.92 0.0 0 1 82.86 156.30&#10;  C 85.12 158.00 86.86 159.41 89.82 159.28&#10;  A 1.89 1.89 0.0 0 0 91.53 157.97&#10;  L 94.04 150.37&#10;  A 0.60 0.59 -8.6 0 0 93.13 149.70&#10;  Q 89.45 152.29 89.25 149.93&#10;  Q 89.18 149.10 89.70 148.04&#10;  Q 91.89 143.58 94.93 137.76&#10;  Q 95.17 137.31 95.53 137.25"/>
<path stroke="#5d5663" d="&#10;  M 95.57 136.66&#10;  Q 95.79 136.55 95.53 137.25"/>
<path stroke="#534e59" d="&#10;  M 133.63 137.46&#10;  Q 133.59 138.95 134.17 140.12"/>
<path stroke="#aca5ae" d="&#10;  M 134.17 140.12&#10;  Q 133.86 141.43 134.41 142.26&#10;  A 1.20 1.18 -11.6 0 0 135.19 142.77&#10;  L 143.34 144.13"/>
<path stroke="#534e59" d="&#10;  M 143.34 144.13&#10;  Q 141.83 144.64 140.72 145.75"/>
<path stroke="#aca5ae" d="&#10;  M 140.72 145.75&#10;  L 138.79 145.62&#10;  A 1.55 1.53 -74.7 0 0 137.29 146.49&#10;  L 137.14 146.80&#10;  A 0.76 0.76 0.0 0 0 137.74 147.88&#10;  L 148.56 149.10"/>
<path stroke="#534e59" d="&#10;  M 148.56 149.10&#10;  Q 145.48 151.12 145.53 154.71"/>
<path stroke="#aca5ae" d="&#10;  M 145.53 154.71&#10;  L 135.22 153.42&#10;  A 0.95 0.94 8.5 0 0 134.18 154.18&#10;  L 133.95 155.41&#10;  A 0.58 0.58 0.0 0 0 134.41 156.09&#10;  L 141.30 157.41"/>
<path stroke="#534e59" d="&#10;  M 141.30 157.41&#10;  Q 139.48 157.75 138.70 159.14"/>
<path stroke="#aca5ae" d="&#10;  M 138.70 159.14&#10;  L 126.95 157.65&#10;  A 1.20 1.20 0.0 0 0 125.62 158.62&#10;  L 125.52 159.18&#10;  A 0.97 0.97 0.0 0 0 126.33 160.32&#10;  L 134.48 161.51"/>
<path stroke="#534e59" d="&#10;  M 134.48 161.51&#10;  Q 132.82 161.88 132.00 163.25"/>
<path stroke="#929095" d="&#10;  M 134.48 161.51&#10;  L 149.25 163.38&#10;  A 1.11 1.09 12.5 0 0 150.43 162.64&#10;  L 150.55 162.28&#10;  A 1.17 1.17 0.0 0 0 149.62 160.76&#10;  L 138.70 159.14"/>
<path stroke="#929095" d="&#10;  M 141.30 157.41&#10;  L 145.50 157.81&#10;  A 0.77 0.77 0.0 0 0 146.32 157.23&#10;  Q 146.48 156.55 146.67 155.69&#10;  Q 146.76 155.26 146.36 154.98&#10;  Q 146.03 154.74 145.53 154.71"/>
<path stroke="#929095" d="&#10;  M 148.56 149.10&#10;  Q 149.62 148.57 149.65 147.93&#10;  Q 149.68 147.10 148.86 146.98&#10;  Q 144.46 146.32 140.72 145.75"/>
<path stroke="#929095" d="&#10;  M 143.34 144.13&#10;  L 156.61 145.89&#10;  A 1.08 1.07 12.3 0 0 157.77 145.16&#10;  L 158.07 144.25&#10;  A 0.61 0.61 0.0 0 0 157.57 143.45&#10;  L 134.17 140.12"/>
<path stroke="#9c989e" d="&#10;  M 157.06 129.64&#10;  L 159.17 126.72&#10;  A 0.63 0.63 0.0 0 0 158.73 125.73&#10;  L 150.08 124.78&#10;  A 1.61 1.59 -67.3 0 0 148.67 125.37&#10;  L 146.26 128.34&#10;  A 1.48 1.48 0.0 0 1 144.94 128.89&#10;  C 138.90 128.21 133.34 126.86 130.37 128.58&#10;  A 0.81 0.81 0.0 0 0 130.68 130.09&#10;  L 143.32 131.53&#10;  A 1.00 0.99 19.6 0 1 144.05 133.05&#10;  L 143.82 133.28&#10;  A 1.22 1.19 -63.7 0 1 142.85 133.62&#10;  L 130.33 132.25&#10;  A 2.34 2.32 -68.7 0 0 128.19 133.20&#10;  L 127.86 133.65&#10;  A 0.88 0.87 -69.1 0 0 128.47 135.03&#10;  C 132.94 135.54 138.29 135.62 142.16 136.55&#10;  Q 142.64 136.66 169.42 141.11&#10;  A 1.36 1.36 0.0 0 0 170.12 138.50&#10;  L 168.31 137.82&#10;  A 1.91 1.49 -25.5 0 0 168.04 137.76&#10;  L 155.51 135.93&#10;  A 0.89 0.88 -70.0 0 1 154.89 134.59&#10;  L 155.03 134.42&#10;  A 2.18 2.18 0.0 0 1 157.13 133.62&#10;  L 171.18 136.14&#10;  A 1.36 1.36 0.0 0 0 172.75 135.09&#10;  L 172.80 134.91&#10;  A 1.15 1.14 12.8 0 0 171.90 133.49&#10;  L 157.53 130.82&#10;  A 0.75 0.75 0.0 0 1 157.06 129.64"/>
<path stroke="#eb9dac" d="&#10;  M 180.0861 136.9576&#10;  A 7.69 7.17 -157.1 0 0 184.3800 146.5549&#10;  A 7.69 7.17 -157.1 0 0 194.2539 142.9424&#10;  A 7.69 7.17 -157.1 0 0 189.9600 133.3451&#10;  A 7.69 7.17 -157.1 0 0 180.0861 136.9576"/>
<path stroke="#e58996" d="&#10;  M 41.02 204.73&#10;  Q 41.17 202.63 41.86 201.56&#10;  A 1.31 1.29 54.0 0 0 42.02 200.50&#10;  Q 40.95 196.74 41.35 191.90&#10;  A 0.56 0.56 0.0 0 0 40.32 191.56&#10;  Q 37.56 195.92 36.19 200.66&#10;  A 1.20 1.20 0.0 0 0 37.34 202.19&#10;  L 39.27 202.19&#10;  A 0.63 0.62 -0.0 0 1 39.90 202.81&#10;  L 39.90 204.69&#10;  A 0.56 0.56 0.0 0 0 41.02 204.73"/>
<path stroke="#e58996" d="&#10;  M 46.4729 191.0718&#10;  A 7.18 3.28 -88.7 0 0 43.0308 198.1756&#10;  A 7.18 3.28 -88.7 0 0 46.1471 205.4282&#10;  A 7.18 3.28 -88.7 0 0 49.5892 198.3244&#10;  A 7.18 3.28 -88.7 0 0 46.4729 191.0718"/>
<path stroke="#e58996" d="&#10;  M 27.42 192.87&#10;  L 27.28 203.85&#10;  A 1.43 1.43 0.0 0 0 28.70 205.30&#10;  L 30.50 205.32&#10;  A 5.18 4.85 -89.3 0 0 35.41 200.20&#10;  L 35.45 196.72&#10;  A 5.18 4.85 -89.3 0 0 30.66 191.48&#10;  L 28.86 191.46&#10;  A 1.43 1.43 0.0 0 0 27.42 192.87"/>
<path stroke="#e58996" d="&#10;  M 49.91 197.93&#10;  Q 49.90 199.26 52.16 199.25&#10;  A 0.89 0.89 0.0 0 1 53.04 200.29&#10;  Q 52.54 203.31 53.78 203.32&#10;  Q 55.01 203.33 54.56 200.30&#10;  A 0.89 0.89 0.0 0 1 55.45 199.27&#10;  Q 57.71 199.31 57.72 197.99&#10;  Q 57.73 196.66 55.46 196.67&#10;  A 0.89 0.89 0.0 0 1 54.59 195.63&#10;  Q 55.08 192.61 53.85 192.60&#10;  Q 52.62 192.59 53.07 195.62&#10;  A 0.89 0.89 0.0 0 1 52.18 196.64&#10;  Q 49.92 196.61 49.91 197.93"/>
<path stroke="#c5b5b5" d="&#10;  M 65.9092 193.9162&#10;  A 0.84 0.84 0.0 0 0 65.0750 193.0703&#10;  L 65.0150 193.0699&#10;  A 0.84 0.84 0.0 0 0 64.1692 193.9040&#10;  L 64.1108 202.2638&#10;  A 0.84 0.84 0.0 0 0 64.9450 203.1097&#10;  L 65.0050 203.1101&#10;  A 0.84 0.84 0.0 0 0 65.8508 202.2760&#10;  L 65.9092 193.9162"/>
<path stroke="#e899a8" d="&#10;  M 80.39 195.67&#10;  L 81.77 195.82&#10;  A 0.87 0.86 -83.4 0 0 82.73 195.05&#10;  L 82.76 194.71&#10;  A 0.87 0.86 -82.8 0 0 82.03 193.76&#10;  C 78.76 193.32 75.50 193.82 71.58 193.27&#10;  A 7.99 7.68 -41.4 0 0 70.21 193.21&#10;  L 67.36 193.33&#10;  A 0.44 0.43 -87.7 0 0 66.94 193.72&#10;  L 66.91 194.03&#10;  A 0.87 0.86 -84.9 0 0 67.71 194.99&#10;  Q 68.65 195.04 69.28 195.29&#10;  A 0.81 0.80 -79.3 0 1 69.79 196.04&#10;  L 69.84 202.90&#10;  A 0.67 0.67 0.0 0 0 70.44 203.57&#10;  L 70.73 203.61&#10;  A 0.20 0.20 0.0 0 0 70.95 203.43&#10;  L 71.80 195.67&#10;  A 0.67 0.67 0.0 0 1 72.54 195.07&#10;  L 77.50 195.62&#10;  A 0.79 0.78 -83.9 0 1 78.20 196.49&#10;  L 77.44 203.40&#10;  A 0.67 0.66 6.0 0 0 78.04 204.13&#10;  L 78.48 204.18&#10;  A 0.54 0.54 0.0 0 0 79.08 203.70&#10;  L 79.91 196.06&#10;  A 0.44 0.43 -83.4 0 1 80.39 195.67"/>
<path stroke="#e58996" d="&#10;  M 86.05 200.29&#10;  L 88.89 200.60&#10;  A 1.07 1.06 15.4 0 0 89.97 199.99&#10;  L 90.13 199.66&#10;  A 0.55 0.54 15.6 0 0 89.69 198.89&#10;  L 86.24 198.51&#10;  A 0.77 0.76 -83.7 0 1 85.56 197.66&#10;  L 85.65 196.78&#10;  A 0.72 0.72 0.0 0 1 86.45 196.14&#10;  L 89.91 196.52&#10;  A 0.79 0.78 5.9 0 0 90.77 195.83&#10;  L 90.81 195.47&#10;  A 0.68 0.67 -81.8 0 0 90.26 194.73&#10;  L 84.38 193.63&#10;  A 0.44 0.43 -84.4 0 0 83.87 194.05&#10;  L 83.67 204.29&#10;  A 0.45 0.44 -86.6 0 0 84.07 204.75&#10;  L 84.42 204.79&#10;  A 0.71 0.70 -83.5 0 0 85.20 204.16&#10;  L 85.58 200.66&#10;  A 0.42 0.42 0.0 0 1 86.05 200.29"/>
<path stroke="#e899a8" d="&#10;  M 95.02 205.55&#10;  A 0.69 0.69 0.0 0 0 95.92 205.17&#10;  L 96.73 203.19&#10;  A 0.74 0.74 0.0 0 1 97.55 202.74&#10;  L 100.42 203.27&#10;  A 0.68 0.66 -8.9 0 1 100.87 203.59&#10;  L 102.30 206.07&#10;  A 0.86 0.86 0.0 0 0 103.85 205.35&#10;  L 100.41 196.12&#10;  A 1.32 1.32 0.0 0 0 97.95 196.09&#10;  L 94.40 204.79&#10;  A 0.47 0.47 0.0 0 0 94.65 205.40&#10;  L 95.02 205.55"/>
<path stroke="#e58996" d="&#10;  M 107.69 202.86&#10;  C 109.12 203.27 111.28 203.53 112.35 202.56&#10;  C 113.69 201.36 113.93 198.54 112.36 197.34&#10;  C 111.14 196.40 106.75 196.25 105.99 196.15&#10;  A 0.95 0.95 0.0 0 0 104.91 197.08&#10;  L 104.83 206.06&#10;  A 0.60 0.59 3.3 0 0 105.36 206.65&#10;  L 105.71 206.69&#10;  A 0.73 0.72 1.0 0 0 106.51 205.92&#10;  Q 106.40 204.44 106.73 203.38&#10;  A 0.78 0.78 0.0 0 1 107.69 202.86"/>
<path stroke="#e58996" d="&#10;  M 117.62 204.07&#10;  C 119.08 204.52 121.28 204.82 122.39 203.84&#10;  C 123.78 202.64 124.07 199.76 122.49 198.50&#10;  C 121.26 197.52 116.77 197.30 115.99 197.18&#10;  A 0.97 0.97 0.0 0 0 114.87 198.12&#10;  L 114.65 207.30&#10;  A 0.61 0.61 0.0 0 0 115.18 207.91&#10;  L 115.54 207.96&#10;  A 0.74 0.74 0.0 0 0 116.37 207.18&#10;  Q 116.28 205.67 116.63 204.59&#10;  A 0.80 0.80 0.0 0 1 117.62 204.07"/>
<path stroke="#e58996" d="&#10;  M 132.71 205.38&#10;  C 133.17 205.05 133.44 205.04 133.78 204.40&#10;  C 136.52 199.25 128.94 198.70 125.78 198.67&#10;  A 0.63 0.63 0.0 0 0 125.14 199.28&#10;  L 124.84 208.64&#10;  A 0.61 0.61 0.0 0 0 125.39 209.27&#10;  L 125.88 209.32&#10;  A 0.46 0.46 0.0 0 0 126.39 208.91&#10;  L 126.74 205.70&#10;  A 0.65 0.65 0.0 0 1 127.44 205.13&#10;  C 130.15 205.36 131.09 207.50 132.47 209.86&#10;  A 1.75 1.74 -11.9 0 0 133.77 210.70&#10;  L 134.20 210.74&#10;  A 0.53 0.52 78.1 0 0 134.71 209.95&#10;  L 132.54 206.18&#10;  A 0.61 0.60 57.2 0 1 132.71 205.38"/>
<path stroke="#858489" d="&#10;  M 57.21 212.10&#10;  L 56.96 214.34&#10;  A 0.94 0.93 14.5 0 0 57.54 215.31&#10;  Q 59.99 216.29 60.64 214.86&#10;  C 61.41 213.18 62.54 213.22 63.87 213.58&#10;  A 1.02 1.01 87.6 0 1 64.54 214.20&#10;  L 65.15 215.84&#10;  A 0.41 0.40 88.0 0 0 65.39 216.07&#10;  L 65.91 216.24&#10;  A 0.45 0.45 0.0 0 0 66.47 215.66&#10;  L 63.53 207.80&#10;  A 0.89 0.89 0.0 0 0 61.87 207.77&#10;  L 59.14 214.46&#10;  A 0.33 0.32 55.5 0 1 58.52 214.34&#10;  Q 58.38 210.22 58.15 207.82&#10;  A 0.99 0.85 77.9 0 0 56.99 206.93&#10;  Q 56.71 207.04 56.49 207.50&#10;  Q 56.07 208.39 55.17 212.61&#10;  A 0.35 0.35 0.0 0 1 54.50 212.66&#10;  L 52.46 207.17&#10;  A 0.63 0.63 0.0 0 0 51.25 207.32&#10;  L 50.53 213.90&#10;  A 0.53 0.53 0.0 0 0 51.00 214.49&#10;  L 51.66 214.56&#10;  A 0.44 0.44 0.0 0 0 52.14 214.02&#10;  Q 51.69 212.19 51.89 210.30&#10;  A 0.19 0.19 0.0 0 1 52.25 210.23&#10;  Q 53.40 212.34 53.77 214.76&#10;  A 0.83 0.83 0.0 0 0 55.38 214.90&#10;  L 56.36 211.92&#10;  A 0.44 0.44 0.0 0 1 57.21 212.10"/>
<path stroke="#858489" d="&#10;  M 67.31 208.63&#10;  L 67.35 215.61&#10;  A 1.13 1.13 0.0 0 0 68.48 216.73&#10;  L 70.44 216.72&#10;  A 4.17 3.97 89.7 0 0 74.39 212.53&#10;  L 74.39 211.63&#10;  A 4.17 3.97 89.7 0 0 70.40 207.48&#10;  L 68.44 207.49&#10;  A 1.13 1.13 0.0 0 0 67.31 208.63"/>
<path stroke="#858489" d="&#10;  M 76.10 207.90&#10;  A 0.30 0.30 0.0 0 0 75.77 208.19&#10;  L 75.77 216.66&#10;  A 0.30 0.30 0.0 0 0 76.04 216.96&#10;  L 81.83 217.59&#10;  A 0.30 0.30 0.0 0 0 82.16 217.30&#10;  L 82.16 216.39&#10;  A 0.30 0.30 0.0 0 0 81.89 216.09&#10;  L 77.41 215.60&#10;  A 0.30 0.30 0.0 0 1 77.14 215.30&#10;  L 77.14 213.64&#10;  A 0.30 0.30 0.0 0 1 77.44 213.34&#10;  L 81.30 213.34&#10;  A 0.30 0.30 0.0 0 0 81.60 213.04&#10;  L 81.60 212.31&#10;  A 0.30 0.30 0.0 0 0 81.33 212.01&#10;  L 77.48 211.59&#10;  A 0.30 0.30 0.0 0 1 77.21 211.29&#10;  L 77.21 209.94&#10;  A 0.30 0.30 0.0 0 1 77.51 209.64&#10;  L 81.27 209.64&#10;  A 0.30 0.30 0.0 0 0 81.57 209.34&#10;  L 81.57 208.76&#10;  A 0.30 0.30 0.0 0 0 81.30 208.46&#10;  L 76.10 207.90"/>
<path stroke="#858489" d="&#10;  M 88.6178 209.4235&#10;  A 0.62 0.62 0.0 0 0 87.9913 208.8100&#10;  L 87.9513 208.8105&#10;  A 0.62 0.62 0.0 0 0 87.3378 209.4369&#10;  L 87.4222 217.4965&#10;  A 0.62 0.62 0.0 0 0 88.0487 218.1100&#10;  L 88.0887 218.1095&#10;  A 0.62 0.62 0.0 0 0 88.7022 217.4831&#10;  L 88.6178 209.4235"/>
<path stroke="#858489" d="&#10;  M 92.34 212.16&#10;  Q 93.13 214.06 96.67 218.91&#10;  A 0.71 0.70 27.1 0 0 97.95 218.50&#10;  L 97.95 211.02&#10;  A 1.05 1.04 -82.4 0 0 97.19 210.01&#10;  L 96.91 209.93&#10;  A 0.34 0.34 0.0 0 0 96.48 210.26&#10;  L 96.48 215.58&#10;  A 0.25 0.24 28.6 0 1 96.03 215.71&#10;  Q 93.59 211.94 92.11 209.60&#10;  A 1.03 0.96 58.1 0 0 90.77 209.24&#10;  Q 90.56 209.36 90.55 209.77&#10;  Q 90.50 210.88 90.64 217.85&#10;  A 0.51 0.50 -0.6 0 0 91.15 218.34&#10;  L 91.44 218.34&#10;  A 0.50 0.49 -0.0 0 0 91.94 217.85&#10;  L 91.94 212.24&#10;  A 0.21 0.21 0.0 0 1 92.34 212.16"/>
<path stroke="#858489" d="&#10;  M 111.21 217.72&#10;  A 0.60 0.60 0.0 0 0 110.16 217.20&#10;  L 109.17 218.43&#10;  A 1.25 1.25 0.0 0 1 108.29 218.89&#10;  C 102.73 219.30 103.18 211.12 107.92 212.12&#10;  A 1.65 1.62 -14.8 0 1 108.78 212.61&#10;  L 110.03 213.94&#10;  A 0.50 0.50 0.0 0 0 110.87 213.44&#10;  C 109.47 209.20 102.00 209.95 103.07 215.54&#10;  Q 103.49 217.72 104.52 218.88&#10;  C 106.37 220.96 110.39 221.19 111.21 217.72"/>
<path stroke="#858489" d="&#10;  M 114.29 211.90&#10;  A 0.30 0.30 0.0 0 0 113.99 211.60&#10;  L 113.08 211.60&#10;  A 0.30 0.30 0.0 0 0 112.78 211.90&#10;  L 112.78 220.47&#10;  A 0.30 0.30 0.0 0 0 113.05 220.77&#10;  L 114.00 220.87&#10;  A 0.30 0.30 0.0 0 0 114.33 220.58&#10;  L 114.33 217.20&#10;  A 0.30 0.30 0.0 0 1 114.66 216.91&#10;  L 118.78 217.36&#10;  A 0.30 0.30 0.0 0 1 119.05 217.66&#10;  L 119.05 221.31&#10;  A 0.30 0.30 0.0 0 0 119.32 221.61&#10;  L 120.21 221.71&#10;  A 0.30 0.30 0.0 0 0 120.54 221.41&#10;  L 120.54 212.80&#10;  A 0.30 0.30 0.0 0 0 120.24 212.50&#10;  L 119.23 212.50&#10;  A 0.30 0.30 0.0 0 0 118.93 212.80&#10;  L 118.93 215.49&#10;  A 0.30 0.30 0.0 0 1 118.60 215.78&#10;  L 114.56 215.34&#10;  A 0.30 0.30 0.0 0 1 114.29 215.04&#10;  L 114.29 211.90"/>
<path stroke="#858489" d="&#10;  M 124.1939 213.5625&#10;  A 0.69 0.69 0.0 0 0 123.5063 212.8701&#10;  L 123.4463 212.8699&#10;  A 0.69 0.69 0.0 0 0 122.7539 213.5575&#10;  L 122.7261 221.4975&#10;  A 0.69 0.69 0.0 0 0 123.4137 222.1899&#10;  L 123.4737 222.1901&#10;  A 0.69 0.69 0.0 0 0 124.1661 221.5025&#10;  L 124.1939 213.5625"/>
<path stroke="#858489" d="&#10;  M 129.74 218.84&#10;  Q 131.09 220.95 132.79 223.33&#10;  A 0.79 0.79 0.0 0 0 134.22 222.87&#10;  L 134.22 214.98&#10;  A 0.54 0.54 0.0 0 0 133.68 214.44&#10;  L 133.33 214.44&#10;  A 0.45 0.44 0.0 0 0 132.88 214.88&#10;  L 132.88 220.60&#10;  A 0.21 0.21 0.0 0 1 132.51 220.73&#10;  Q 132.22 220.37 130.82 218.17&#10;  Q 129.47 216.05 127.77 213.68&#10;  A 0.79 0.79 0.0 0 0 126.34 214.14&#10;  L 126.34 222.03&#10;  A 0.54 0.54 0.0 0 0 126.88 222.57&#10;  L 127.23 222.57&#10;  A 0.45 0.44 -0.0 0 0 127.68 222.13&#10;  L 127.68 216.41&#10;  A 0.21 0.21 0.0 0 1 128.06 216.28&#10;  Q 128.34 216.64 129.74 218.84"/>
<path stroke="#858489" d="&#10;  M 143.06 224.36&#10;  A 0.58 0.57 73.8 0 0 143.82 224.78&#10;  L 144.13 224.66&#10;  A 0.16 0.16 0.0 0 0 144.23 224.45&#10;  L 140.96 215.68&#10;  A 1.23 1.23 0.0 0 0 138.67 215.65&#10;  L 135.64 223.08&#10;  A 0.59 0.59 0.0 0 0 136.56 223.76&#10;  Q 137.35 223.11 137.60 222.35&#10;  A 1.06 1.06 0.0 0 1 138.46 221.64&#10;  Q 142.41 221.13 143.06 224.36"/>
<path stroke="#94858d" d="&#10;  M 119.84 128.36&#10;  A 0.52 0.52 0.0 0 0 119.32 127.84&#10;  A 0.52 0.52 0.0 0 0 118.80 128.36&#10;  A 0.52 0.52 0.0 0 0 119.32 128.88&#10;  A 0.52 0.52 0.0 0 0 119.84 128.36"/>
<path stroke="#eb9dac" d="&#10;  M 181.5189 137.0236&#10;  A 6.36 5.65 -152.3 0 0 184.5236 144.9825&#10;  A 6.36 5.65 -152.3 0 0 192.7811 142.9364&#10;  A 6.36 5.65 -152.3 0 0 189.7764 134.9775&#10;  A 6.36 5.65 -152.3 0 0 181.5189 137.0236"/>
<path stroke="#eb9dac" d="&#10;  M 186.28 140.64&#10;  Q 187.99 141.46 188.89 143.69&#10;  A 0.64 0.63 31.1 0 0 190.11 143.39&#10;  Q 189.86 141.12 190.78 139.23&#10;  A 2.08 2.08 0.0 0 0 189.57 136.35&#10;  L 186.56 135.36&#10;  A 1.93 1.93 0.0 0 0 184.04 136.98&#10;  L 183.45 142.40&#10;  A 0.79 0.79 0.0 0 0 184.56 143.20&#10;  L 184.79 143.09&#10;  A 1.06 1.05 -9.2 0 0 185.41 142.23&#10;  L 185.54 141.05&#10;  A 0.52 0.52 0.0 0 1 186.28 140.64"/>
<path stroke="#e899a8" d="&#10;  M 186.0684 138.2255&#10;  A 1.39 1.17 -166.5 0 0 187.1469 139.6877&#10;  A 1.39 1.17 -166.5 0 0 188.7716 138.8745&#10;  A 1.39 1.17 -166.5 0 0 187.6931 137.4123&#10;  A 1.39 1.17 -166.5 0 0 186.0684 138.2255"/>
<path stroke="#786a6e" d="&#10;  M 118.70 180.70&#10;  Q 117.75 181.08 117.72 181.28&#10;  A 0.89 0.73 -32.3 0 0 119.31 181.48&#10;  Q 119.52 181.09 118.91 180.72&#10;  A 0.21 0.21 0.0 0 0 118.70 180.70"/>
<path stroke="#dd808c" d="&#10;  M 38.82 200.14&#10;  Q 39.53 200.27 39.64 199.60&#10;  Q 40.16 196.67 39.46 196.54&#10;  Q 38.76 196.42 38.23 199.35&#10;  Q 38.11 200.02 38.82 200.14"/>
<path stroke="#e58996" d="&#10;  M 46.2257 193.0305&#10;  A 5.32 1.68 -90.8 0 0 44.6202 198.3735&#10;  A 5.32 1.68 -90.8 0 0 46.3743 203.6695&#10;  A 5.32 1.68 -90.8 0 0 47.9798 198.3265&#10;  A 5.32 1.68 -90.8 0 0 46.2257 193.0305"/>
<path stroke="#e58996" d="&#10;  M 28.89 194.36&#10;  L 29.01 202.76&#10;  A 0.55 0.55 0.0 0 0 29.57 203.31&#10;  L 30.30 203.30&#10;  A 3.55 3.50 89.2 0 0 33.75 199.70&#10;  L 33.71 197.30&#10;  A 3.55 3.50 89.2 0 0 30.16 193.80&#10;  L 29.43 193.81&#10;  A 0.55 0.55 0.0 0 0 28.89 194.36"/>
<path stroke="#e0909f" d="&#10;  M 98.98 201.48&#10;  Q 99.56 201.54 99.72 201.50&#10;  A 0.63 0.63 0.0 0 0 100.17 200.76&#10;  Q 99.69 198.55 99.30 198.51&#10;  Q 98.90 198.46 97.96 200.52&#10;  A 0.63 0.63 0.0 0 0 98.25 201.34&#10;  Q 98.39 201.41 98.98 201.48"/>
<path stroke="#e58996" d="&#10;  M 106.93 198.64&#10;  L 106.75 200.47&#10;  A 0.67 0.67 0.0 0 0 107.36 201.20&#10;  L 107.56 201.22&#10;  A 3.93 1.43 5.4 0 0 111.60 200.17&#10;  L 111.63 199.85&#10;  A 3.93 1.43 5.4 0 0 107.86 198.05&#10;  L 107.66 198.03&#10;  A 0.67 0.67 0.0 0 0 106.93 198.64"/>
<path stroke="#e58996" d="&#10;  M 116.65 200.12&#10;  L 116.67 201.92&#10;  A 0.67 0.67 0.0 0 0 117.35 202.58&#10;  L 117.86 202.58&#10;  A 3.68 1.30 -0.7 0 0 121.52 201.23&#10;  L 121.52 200.69&#10;  A 3.68 1.30 -0.7 0 0 117.82 199.44&#10;  L 117.31 199.44&#10;  A 0.67 0.67 0.0 0 0 116.65 200.12"/>
<path stroke="#e58996" d="&#10;  M 132.1517 202.3112&#10;  A 0.84 0.84 0.0 0 0 131.4823 201.3298&#10;  L 127.9056 200.6540&#10;  A 0.84 0.84 0.0 0 0 126.9242 201.3234&#10;  L 126.7683 202.1488&#10;  A 0.84 0.84 0.0 0 0 127.4377 203.1302&#10;  L 131.0144 203.8060&#10;  A 0.84 0.84 0.0 0 0 131.9958 203.1366&#10;  L 132.1517 202.3112"/>
<path stroke="#e58996" d="&#10;  M 139.1840 202.9140&#10;  A 4.15 3.63 -121.3 0 0 138.2383 208.3459&#10;  A 4.15 3.63 -121.3 0 0 143.4960 210.0060&#10;  A 4.15 3.63 -121.3 0 0 144.4417 204.5741&#10;  A 4.15 3.63 -121.3 0 0 139.1840 202.9140"/>
<path stroke="#858489" d="&#10;  M 62.79 212.14&#10;  Q 63.32 212.13 63.56 211.74&#10;  A 0.43 0.43 0.0 0 0 63.62 211.48&#10;  Q 63.35 209.19 62.72 209.20&#10;  Q 62.08 209.22 61.93 211.52&#10;  A 0.43 0.43 0.0 0 0 62.00 211.78&#10;  Q 62.26 212.16 62.79 212.14"/>
<path stroke="#e58996" d="&#10;  M 171.97 214.43&#10;  A 1.92 1.92 0.0 0 0 173.67 216.55&#10;  L 176.03 216.81&#10;  A 2.38 2.38 0.0 0 0 178.63 214.90&#10;  Q 179.68 209.54 173.50 208.71&#10;  A 0.88 0.88 0.0 0 0 172.51 209.49&#10;  L 171.97 214.43"/>
<path stroke="#858489" d="&#10;  M 68.61 209.45&#10;  L 68.63 214.53&#10;  A 0.60 0.60 0.0 0 0 69.23 215.13&#10;  L 69.93 215.12&#10;  A 3.12 2.58 -0.2 0 0 73.04 212.53&#10;  L 73.04 211.41&#10;  A 3.12 2.58 -0.2 0 0 69.91 208.84&#10;  L 69.21 208.85&#10;  A 0.60 0.60 0.0 0 0 68.61 209.45"/>
<path stroke="#87888d" d="&#10;  M 141.23 220.10&#10;  L 140.23 217.51&#10;  A 0.24 0.24 0.0 0 0 139.92 217.37&#10;  L 139.80 217.42&#10;  A 1.93 1.58 -21.2 0 0 138.57 219.59&#10;  L 138.61 219.68&#10;  A 1.93 1.58 -21.2 0 0 140.98 220.46&#10;  L 141.10 220.41&#10;  A 0.24 0.24 0.0 0 0 141.23 220.10"/>
</g>
<path fill="#ebe7e9" d="&#10;  M 290.19 49.81&#10;  Q 296.65 62.51 298.89 69.25&#10;  C 307.79 96.05 307.88 129.73 291.86 153.87&#10;  Q 269.61 187.41 231.73 201.27&#10;  C 220.74 205.29 210.18 206.68 197.10 208.38&#10;  C 191.73 209.07 186.03 210.73 180.50 212.03&#10;  C 179.58 208.14 175.31 207.21 171.62 206.70&#10;  A 0.82 0.82 0.0 0 0 170.78 207.13&#10;  Q 170.50 207.63 170.53 208.51&#10;  L 168.45 207.63&#10;  L 168.46 206.67&#10;  A 0.67 0.67 0.0 0 0 167.90 206.01&#10;  L 159.98 204.68&#10;  Q 159.05 204.97 158.08 204.26&#10;  Q 157.63 203.70 157.48 203.75&#10;  Q 156.57 204.03 156.08 205.08&#10;  Q 153.85 209.83 152.91 211.56&#10;  A 0.41 0.41 0.0 0 1 152.14 211.42&#10;  Q 151.52 207.31 149.59 203.15&#10;  Q 149.16 202.21 147.88 202.47&#10;  Q 147.23 202.38 145.63 203.06&#10;  Q 143.97 201.21 141.29 200.93&#10;  L 142.09 193.26&#10;  Q 144.85 190.42 143.91 188.01&#10;  Q 142.15 183.47 139.68 177.50&#10;  A 0.72 0.72 0.0 0 1 140.19 176.52&#10;  C 143.68 175.72 147.19 176.88 152.70 177.76&#10;  A 1.75 1.74 -74.1 0 0 154.59 176.70&#10;  L 155.18 175.23&#10;  A 1.19 1.18 17.6 0 0 154.34 173.62&#10;  Q 150.54 172.78 143.75 171.63&#10;  C 142.40 171.40 141.43 170.52 140.15 170.70&#10;  Q 139.31 170.82 137.38 170.45&#10;  C 133.58 169.72 129.75 169.37 129.13 174.30&#10;  L 126.34 172.99&#10;  L 127.44 170.07&#10;  A 0.67 0.66 -76.9 0 0 126.89 169.18&#10;  L 119.49 168.37&#10;  A 0.81 0.81 0.0 0 0 118.65 168.87&#10;  L 116.54 174.03&#10;  A 1.16 1.16 0.0 0 1 115.09 174.70&#10;  L 114.03 174.35&#10;  A 1.12 1.12 0.0 0 1 113.34 172.86&#10;  L 115.22 168.25&#10;  A 0.36 0.36 0.0 0 0 114.92 167.76&#10;  Q 114.03 167.68 108.50 167.00&#10;  Q 106.44 166.75 105.76 168.48&#10;  L 102.10 168.66&#10;  Q 100.16 166.22 96.80 165.93&#10;  Q 88.59 165.23 79.50 164.67&#10;  A 1.57 1.56 11.0 0 0 77.91 165.74&#10;  L 77.27 167.70&#10;  A 1.03 1.03 0.0 0 0 78.14 169.05&#10;  L 93.58 170.74&#10;  A 0.76 0.76 0.0 0 1 94.22 171.73&#10;  L 91.23 180.81&#10;  A 2.72 2.72 0.0 0 1 88.92 182.67&#10;  L 88.46 182.71&#10;  A 1.04 1.04 0.0 0 1 87.36 181.35&#10;  L 89.95 173.47&#10;  A 0.79 0.78 12.5 0 0 89.29 172.44&#10;  L 83.85 171.85&#10;  A 1.10 1.10 0.0 0 0 82.68 172.61&#10;  L 78.84 184.69&#10;  C 70.89 183.88 62.83 181.17 60.81 172.61&#10;  Q 59.62 167.54 58.81 162.37&#10;  A 2.34 2.33 -20.7 0 1 59.86 160.05&#10;  Q 62.05 158.65 65.74 158.09&#10;  L 68.37 150.29&#10;  A 0.72 0.72 0.0 0 0 67.77 149.35&#10;  L 64.53 149.00&#10;  A 0.71 0.71 0.0 0 1 63.96 148.03&#10;  L 70.89 131.02&#10;  A 1.74 1.73 -75.5 0 1 72.69 129.95&#10;  L 75.46 130.25&#10;  A 1.45 1.45 0.0 0 0 76.96 129.35&#10;  L 79.31 123.60&#10;  A 0.67 0.66 12.1 0 0 78.72 122.69&#10;  Q 71.37 122.42 65.94 122.42&#10;  C 62.04 122.42 59.60 125.95 57.77 129.08&#10;  A 0.50 0.49 -71.9 0 0 58.14 129.82&#10;  L 63.65 130.42&#10;  A 0.29 0.29 0.0 0 1 63.88 130.82&#10;  L 56.70 148.43&#10;  A 0.91 0.90 10.1 0 1 55.87 149.00&#10;  L 50.46 149.07&#10;  A 0.23 0.22 11.2 0 1 50.25 148.76&#10;  L 51.84 144.87&#10;  A 0.35 0.35 0.0 0 0 51.28 144.48&#10;  Q 48.28 147.30 43.56 147.17&#10;  A 0.28 0.28 0.0 0 1 43.35 146.71&#10;  L 55.42 131.76&#10;  A 0.57 0.57 0.0 0 0 54.98 130.84&#10;  L 49.16 130.81&#10;  A 2.44 2.42 -69.7 0 0 47.31 131.67&#10;  Q 46.74 132.34 44.25 134.99&#10;  Q 43.76 135.52 43.01 135.60&#10;  A 0.71 0.71 0.0 0 1 42.33 134.52&#10;  Q 45.72 129.02 50.32 124.45&#10;  A 1.59 1.58 -70.2 0 1 51.25 124.01&#10;  L 56.14 123.47&#10;  A 0.17 0.17 0.0 0 0 56.13 123.14&#10;  C 52.73 122.95 44.22 122.38 41.74 125.24&#10;  Q 40.37 126.82 36.39 132.00&#10;  Q 32.08 101.15 45.03 73.27&#10;  Q 52.81 56.55 64.68 39.07&#10;  A 170.91 170.72 -73.6 0 1 116.50 10.75&#10;  A 170.94 170.94 0.0 0 1 239.24 15.79&#10;  A 171.04 170.96 78.7 0 1 290.19 49.81&#10;  Z&#10;  M 74.24 112.99&#10;  L 70.68 119.16&#10;  A 0.67 0.67 0.0 0 0 71.65 120.05&#10;  L 77.08 116.25&#10;  A 1.27 1.26 50.8 0 1 78.72 116.42&#10;  Q 81.88 119.75 82.53 120.24&#10;  Q 82.79 120.44 83.00 120.41&#10;  Q 83.61 120.32 83.62 119.67&#10;  Q 83.64 117.14 83.43 112.85&#10;  A 1.50 1.50 0.0 0 1 84.06 111.57&#10;  L 90.54 107.04&#10;  A 0.56 0.56 0.0 0 0 90.51 106.10&#10;  Q 90.16 105.89 89.47 105.84&#10;  Q 86.32 105.63 83.90 105.70&#10;  A 0.92 0.92 0.0 0 1 82.95 104.78&#10;  L 82.95 98.57&#10;  A 0.63 0.63 0.0 0 0 81.78 98.25&#10;  L 77.97 104.85&#10;  A 1.08 1.07 -77.3 0 1 77.14 105.38&#10;  L 70.20 105.98&#10;  A 0.92 0.92 0.0 0 0 69.70 107.62&#10;  L 73.87 110.99&#10;  A 1.57 1.56 -55.5 0 1 74.24 112.99&#10;  Z&#10;  M 111.89 122.37&#10;  A 0.05 0.05 0.0 0 0 111.97 122.33&#10;  L 111.97 113.75&#10;  A 0.60 0.59 -14.5 0 1 112.28 113.23&#10;  L 119.55 109.03&#10;  A 0.67 0.67 0.0 0 0 119.29 107.79&#10;  L 112.15 107.01&#10;  A 0.66 0.65 -1.1 0 1 111.58 106.47&#10;  Q 110.98 102.91 110.86 100.50&#10;  Q 110.81 99.51 110.50 99.29&#10;  A 0.74 0.71 -56.5 0 0 109.46 99.53&#10;  Q 105.92 105.34 105.56 105.90&#10;  A 1.15 1.15 0.0 0 1 104.60 106.42&#10;  L 96.93 106.38&#10;  A 0.83 0.83 0.0 0 0 96.40 107.85&#10;  L 101.26 111.77&#10;  A 1.59 1.58 -55.7 0 1 101.64 113.80&#10;  L 98.14 119.85&#10;  A 0.71 0.71 0.0 0 0 99.11 120.82&#10;  L 104.71 117.59&#10;  A 1.23 1.23 0.0 0 1 106.10 117.69&#10;  L 111.89 122.37&#10;  Z&#10;  M 141.96 110.56&#10;  A 0.43 0.43 0.0 0 1 141.63 110.22&#10;  L 140.16 101.77&#10;  A 0.43 0.43 0.0 0 0 139.37 101.63&#10;  L 135.10 109.07&#10;  A 0.43 0.43 0.0 0 1 134.66 109.28&#10;  L 126.18 108.06&#10;  A 0.43 0.43 0.0 0 0 125.80 108.78&#10;  L 131.55 115.13&#10;  A 0.43 0.43 0.0 0 1 131.62 115.61&#10;  L 127.84 123.31&#10;  A 0.43 0.43 0.0 0 0 128.40 123.89&#10;  L 136.22 120.38&#10;  A 0.43 0.43 0.0 0 1 136.70 120.46&#10;  L 142.85 126.44&#10;  A 0.43 0.43 0.0 0 0 143.58 126.08&#10;  L 142.66 117.56&#10;  A 0.43 0.43 0.0 0 1 142.89 117.13&#10;  L 150.47 113.13&#10;  A 0.43 0.43 0.0 0 0 150.36 112.32&#10;  L 141.96 110.56&#10;  Z&#10;  M 95.53 137.25&#10;  L 100.55 150.36&#10;  A 0.41 0.41 0.0 0 1 100.12 150.91&#10;  L 96.49 150.51&#10;  A 1.12 1.12 0.0 0 0 95.31 151.28&#10;  L 92.83 158.80&#10;  A 0.69 0.68 12.0 0 0 93.41 159.69&#10;  L 99.52 160.36&#10;  A 2.56 2.54 -56.5 0 0 101.06 160.04&#10;  L 104.49 158.06&#10;  A 0.79 0.79 0.0 0 1 105.38 158.13&#10;  C 107.82 160.12 109.20 161.80 112.68 161.40&#10;  A 2.41 2.39 5.2 0 0 114.70 159.73&#10;  Q 116.14 155.14 116.44 154.44&#10;  A 4.79 4.23 -78.7 0 1 120.17 151.60&#10;  Q 121.18 151.53 124.28 152.17&#10;  A 0.76 0.75 -69.3 0 1 124.78 153.29&#10;  L 124.52 153.74&#10;  A 1.56 1.55 -63.5 0 1 122.57 154.40&#10;  Q 120.28 153.44 118.97 156.01&#10;  Q 117.41 159.05 117.02 160.65&#10;  A 0.60 0.59 11.1 0 0 117.52 161.39&#10;  L 132.00 163.25&#10;  L 154.61 166.88&#10;  A 2.07 2.07 0.0 0 0 155.25 166.88&#10;  C 158.70 166.33 159.83 164.55 161.29 161.82&#10;  A 1.10 1.09 -65.6 0 0 160.72 160.29&#10;  Q 158.00 159.23 156.72 159.35&#10;  A 0.66 0.66 0.0 0 1 156.03 158.49&#10;  L 156.16 158.08&#10;  A 1.27 1.26 -77.7 0 1 157.51 157.21&#10;  L 166.63 158.20&#10;  A 2.67 2.66 18.1 0 0 169.23 156.89&#10;  L 171.32 153.26&#10;  A 0.54 0.54 0.0 0 0 170.79 152.45&#10;  L 169.15 152.66&#10;  A 4.81 4.69 45.7 0 1 167.59 152.62&#10;  L 159.81 151.17&#10;  A 0.60 0.60 0.0 0 1 159.40 150.28&#10;  L 160.02 149.21&#10;  A 1.04 1.04 0.0 0 1 161.31 148.76&#10;  Q 163.02 149.45 164.67 149.32&#10;  A 1.37 1.34 -69.0 0 0 165.50 148.94&#10;  Q 167.68 146.80 168.85 144.06&#10;  A 0.92 0.92 0.0 0 0 168.23 142.81&#10;  C 166.25 142.31 164.23 141.73 162.26 141.46&#10;  Q 147.93 139.48 133.63 137.46&#10;  C 127.77 134.72 126.27 138.20 124.04 142.56&#10;  A 0.60 0.59 -63.0 0 0 124.30 143.37&#10;  Q 125.50 143.96 127.28 144.18&#10;  A 0.78 0.78 0.0 0 1 127.50 145.66&#10;  C 125.40 146.60 122.66 145.99 120.73 148.07&#10;  Q 117.37 151.68 115.93 152.76&#10;  A 1.81 1.81 0.0 0 1 113.32 150.33&#10;  Q 118.93 141.63 123.74 130.75&#10;  Q 124.81 128.31 123.85 126.62&#10;  A 1.21 1.19 77.8 0 0 122.92 126.01&#10;  L 110.23 124.62&#10;  A 8.36 8.33 30.6 0 0 104.51 126.08&#10;  L 100.23 129.08&#10;  A 1.51 1.50 -59.4 0 0 100.93 131.81&#10;  L 113.56 133.20&#10;  A 0.25 0.25 0.0 0 1 113.75 133.57&#10;  L 107.61 144.20&#10;  A 0.58 0.58 0.0 0 1 106.57 144.12&#10;  L 104.17 137.66&#10;  A 1.44 1.44 0.0 0 0 102.84 136.73&#10;  L 95.57 136.66&#10;  Q 97.35 132.51 99.21 128.48&#10;  C 102.07 122.31 92.78 122.98 88.76 122.97&#10;  Q 81.57 122.96 78.47 129.21&#10;  A 0.43 0.43 0.0 0 0 78.81 129.83&#10;  L 89.79 131.03&#10;  A 0.14 0.14 0.0 0 1 89.90 131.23&#10;  L 84.72 141.27&#10;  A 0.35 0.35 0.0 0 1 84.08 141.23&#10;  L 82.61 137.31&#10;  A 2.19 2.17 82.8 0 0 80.79 135.89&#10;  L 75.85 135.35&#10;  A 1.12 1.12 0.0 0 0 74.70 136.91&#10;  Q 76.49 141.02 78.45 145.97&#10;  C 79.99 149.87 75.77 149.32 73.29 149.21&#10;  A 2.19 2.17 10.2 0 0 71.12 150.71&#10;  L 69.17 156.62&#10;  A 1.36 1.35 -77.6 0 0 70.30 158.39&#10;  Q 74.52 158.89 77.90 158.10&#10;  C 79.14 157.81 80.80 156.67 81.93 156.19&#10;  A 0.92 0.92 0.0 0 1 82.86 156.30&#10;  C 85.12 158.00 86.86 159.41 89.82 159.28&#10;  A 1.89 1.89 0.0 0 0 91.53 157.97&#10;  L 94.04 150.37&#10;  A 0.60 0.59 -8.6 0 0 93.13 149.70&#10;  Q 89.45 152.29 89.25 149.93&#10;  Q 89.18 149.10 89.70 148.04&#10;  Q 91.89 143.58 94.93 137.76&#10;  Q 95.17 137.31 95.53 137.25&#10;  Z&#10;  M 157.06 129.64&#10;  L 159.17 126.72&#10;  A 0.63 0.63 0.0 0 0 158.73 125.73&#10;  L 150.08 124.78&#10;  A 1.61 1.59 -67.3 0 0 148.67 125.37&#10;  L 146.26 128.34&#10;  A 1.48 1.48 0.0 0 1 144.94 128.89&#10;  C 138.90 128.21 133.34 126.86 130.37 128.58&#10;  A 0.81 0.81 0.0 0 0 130.68 130.09&#10;  L 143.32 131.53&#10;  A 1.00 0.99 19.6 0 1 144.05 133.05&#10;  L 143.82 133.28&#10;  A 1.22 1.19 -63.7 0 1 142.85 133.62&#10;  L 130.33 132.25&#10;  A 2.34 2.32 -68.7 0 0 128.19 133.20&#10;  L 127.86 133.65&#10;  A 0.88 0.87 -69.1 0 0 128.47 135.03&#10;  C 132.94 135.54 138.29 135.62 142.16 136.55&#10;  Q 142.64 136.66 169.42 141.11&#10;  A 1.36 1.36 0.0 0 0 170.12 138.50&#10;  L 168.31 137.82&#10;  A 1.91 1.49 -25.5 0 0 168.04 137.76&#10;  L 155.51 135.93&#10;  A 0.89 0.88 -70.0 0 1 154.89 134.59&#10;  L 155.03 134.42&#10;  A 2.18 2.18 0.0 0 1 157.13 133.62&#10;  L 171.18 136.14&#10;  A 1.36 1.36 0.0 0 0 172.75 135.09&#10;  L 172.80 134.91&#10;  A 1.15 1.14 12.8 0 0 171.90 133.49&#10;  L 157.53 130.82&#10;  A 0.75 0.75 0.0 0 1 157.06 129.64&#10;  Z&#10;  M 180.0861 136.9576&#10;  A 7.69 7.17 -157.1 0 0 184.3800 146.5549&#10;  A 7.69 7.17 -157.1 0 0 194.2539 142.9424&#10;  A 7.69 7.17 -157.1 0 0 189.9600 133.3451&#10;  A 7.69 7.17 -157.1 0 0 180.0861 136.9576&#10;  Z"/>
<path fill="#e6dee1" d="&#10;  M 64.68 39.07&#10;  Q 52.81 56.55 45.03 73.27&#10;  Q 32.08 101.15 36.39 132.00&#10;  L 31.97 138.33&#10;  A 1.35 1.35 0.0 0 0 33.07 140.45&#10;  L 39.00 140.45&#10;  A 0.41 0.41 0.0 0 1 39.33 141.10&#10;  L 32.81 150.12&#10;  A 1.57 1.57 0.0 0 0 34.08 152.61&#10;  L 46.79 152.61&#10;  A 0.36 0.36 0.0 0 1 47.12 153.11&#10;  C 45.38 157.08 41.90 162.48 37.55 163.74&#10;  C 28.80 166.26 25.12 154.51 23.71 148.35&#10;  A 0.30 0.30 0.0 0 0 23.12 148.38&#10;  L 21.25 165.46&#10;  A 3.60 3.57 -57.0 0 0 21.70 167.61&#10;  Q 23.05 169.98 25.03 172.14&#10;  C 32.20 179.94 40.67 166.12 43.42 161.18&#10;  Q 44.34 159.53 45.97 158.63&#10;  A 2.10 2.10 0.0 0 1 47.00 158.36&#10;  L 65.74 158.09&#10;  Q 62.05 158.65 59.86 160.05&#10;  A 2.34 2.33 -20.7 0 0 58.81 162.37&#10;  Q 59.62 167.54 60.81 172.61&#10;  C 62.83 181.17 70.89 183.88 78.84 184.69&#10;  Q 78.55 185.79 79.01 186.27&#10;  A 0.50 0.46 -18.6 0 0 79.34 186.42&#10;  Q 87.28 187.18 92.57 187.58&#10;  C 95.43 187.79 96.65 186.36 97.59 183.85&#10;  Q 100.86 175.12 102.10 168.66&#10;  L 105.76 168.48&#10;  L 99.34 186.11&#10;  A 1.68 1.68 0.0 0 0 100.73 188.35&#10;  L 106.04 188.93&#10;  A 1.91 1.91 0.0 0 0 108.14 187.23&#10;  Q 108.42 184.61 111.10 180.19&#10;  A 1.06 1.06 0.0 0 1 112.00 179.69&#10;  L 113.55 179.69&#10;  A 0.67 0.67 0.0 0 1 114.19 180.57&#10;  L 111.63 188.34&#10;  A 1.04 1.04 0.0 0 0 112.51 189.70&#10;  L 118.80 190.39&#10;  A 1.39 1.38 -76.5 0 0 120.25 189.50&#10;  L 126.34 172.99&#10;  L 129.13 174.30&#10;  Q 129.97 179.14 132.69 184.01&#10;  Q 134.01 186.39 133.08 187.33&#10;  A 0.43 0.42 25.0 0 1 132.74 187.45&#10;  L 124.44 186.54&#10;  A 0.74 0.73 15.4 0 0 123.69 186.96&#10;  Q 122.89 188.69 122.98 190.28&#10;  A 0.78 0.77 2.2 0 0 123.66 191.01&#10;  L 142.09 193.26&#10;  L 141.29 200.93&#10;  Q 137.35 200.59 136.17 203.43&#10;  C 134.28 208.00 138.75 213.41 143.72 211.57&#10;  C 147.45 210.20 147.65 206.05 145.63 203.06&#10;  Q 147.23 202.38 147.88 202.47&#10;  Q 149.06 206.89 150.86 211.17&#10;  Q 151.58 212.89 152.63 213.68&#10;  A 0.54 0.53 35.6 0 0 153.38 213.56&#10;  Q 156.39 209.26 158.08 204.26&#10;  Q 159.05 204.97 159.98 204.68&#10;  L 159.68 214.50&#10;  A 0.71 0.71 0.0 0 0 160.26 215.22&#10;  L 167.91 216.65&#10;  A 0.35 0.35 0.0 0 0 168.32 216.30&#10;  L 168.32 215.88&#10;  A 0.80 0.78 -84.8 0 0 167.68 215.10&#10;  L 162.07 214.05&#10;  A 1.14 1.13 -84.8 0 1 161.14 212.93&#10;  L 161.14 211.77&#10;  A 0.89 0.89 0.0 0 1 162.19 210.89&#10;  L 167.12 211.81&#10;  A 0.64 0.63 -81.2 0 0 167.87 211.25&#10;  L 167.91 210.87&#10;  A 0.64 0.63 -81.6 0 0 167.40 210.18&#10;  L 162.45 209.26&#10;  A 1.48 1.48 0.0 0 1 161.23 207.80&#10;  L 161.23 207.52&#10;  A 1.12 1.03 6.4 0 1 162.55 206.55&#10;  L 168.45 207.63&#10;  L 170.53 208.51&#10;  L 170.31 215.68&#10;  A 1.83 1.83 0.0 0 0 171.71 217.52&#10;  C 176.16 218.58 181.49 218.50 180.50 212.03&#10;  C 186.03 210.73 191.73 209.07 197.10 208.38&#10;  C 210.18 206.68 220.74 205.29 231.73 201.27&#10;  Q 269.61 187.41 291.86 153.87&#10;  C 307.88 129.73 307.79 96.05 298.89 69.25&#10;  Q 296.65 62.51 290.19 49.81&#10;  A 97.38 55.72 46.7 0 1 299.69 59.78&#10;  A 170.90 170.87 21.0 0 1 341.12 152.99&#10;  A 65.59 26.01 84.8 0 1 341.94 162.23&#10;  Q 336.23 177.59 332.62 184.57&#10;  Q 319.48 210.01 295.45 225.65&#10;  C 254.99 251.98 206.52 262.95 158.11 259.23&#10;  Q 111.09 255.62 68.98 238.86&#10;  C 47.59 230.34 28.44 218.31 17.83 198.96&#10;  Q 10.19 185.03 6.29 168.30&#10;  Q 3.32 155.56 2.01 149.22&#10;  A 171.47 171.09 -31.1 0 1 10.80 113.93&#10;  A 171.21 171.19 71.9 0 1 29.06 77.90&#10;  A 171.05 170.92 -2.5 0 1 64.68 39.07&#10;  Z&#10;  M 41.02 204.73&#10;  Q 41.17 202.63 41.86 201.56&#10;  A 1.31 1.29 54.0 0 0 42.02 200.50&#10;  Q 40.95 196.74 41.35 191.90&#10;  A 0.56 0.56 0.0 0 0 40.32 191.56&#10;  Q 37.56 195.92 36.19 200.66&#10;  A 1.20 1.20 0.0 0 0 37.34 202.19&#10;  L 39.27 202.19&#10;  A 0.63 0.62 -0.0 0 1 39.90 202.81&#10;  L 39.90 204.69&#10;  A 0.56 0.56 0.0 0 0 41.02 204.73&#10;  Z&#10;  M 46.4729 191.0718&#10;  A 7.18 3.28 -88.7 0 0 43.0308 198.1756&#10;  A 7.18 3.28 -88.7 0 0 46.1471 205.4282&#10;  A 7.18 3.28 -88.7 0 0 49.5892 198.3244&#10;  A 7.18 3.28 -88.7 0 0 46.4729 191.0718&#10;  Z&#10;  M 27.42 192.87&#10;  L 27.28 203.85&#10;  A 1.43 1.43 0.0 0 0 28.70 205.30&#10;  L 30.50 205.32&#10;  A 5.18 4.85 -89.3 0 0 35.41 200.20&#10;  L 35.45 196.72&#10;  A 5.18 4.85 -89.3 0 0 30.66 191.48&#10;  L 28.86 191.46&#10;  A 1.43 1.43 0.0 0 0 27.42 192.87&#10;  Z&#10;  M 49.91 197.93&#10;  Q 49.90 199.26 52.16 199.25&#10;  A 0.89 0.89 0.0 0 1 53.04 200.29&#10;  Q 52.54 203.31 53.78 203.32&#10;  Q 55.01 203.33 54.56 200.30&#10;  A 0.89 0.89 0.0 0 1 55.45 199.27&#10;  Q 57.71 199.31 57.72 197.99&#10;  Q 57.73 196.66 55.46 196.67&#10;  A 0.89 0.89 0.0 0 1 54.59 195.63&#10;  Q 55.08 192.61 53.85 192.60&#10;  Q 52.62 192.59 53.07 195.62&#10;  A 0.89 0.89 0.0 0 1 52.18 196.64&#10;  Q 49.92 196.61 49.91 197.93&#10;  Z&#10;  M 65.9092 193.9162&#10;  A 0.84 0.84 0.0 0 0 65.0750 193.0703&#10;  L 65.0150 193.0699&#10;  A 0.84 0.84 0.0 0 0 64.1692 193.9040&#10;  L 64.1108 202.2638&#10;  A 0.84 0.84 0.0 0 0 64.9450 203.1097&#10;  L 65.0050 203.1101&#10;  A 0.84 0.84 0.0 0 0 65.8508 202.2760&#10;  L 65.9092 193.9162&#10;  Z&#10;  M 80.39 195.67&#10;  L 81.77 195.82&#10;  A 0.87 0.86 -83.4 0 0 82.73 195.05&#10;  L 82.76 194.71&#10;  A 0.87 0.86 -82.8 0 0 82.03 193.76&#10;  C 78.76 193.32 75.50 193.82 71.58 193.27&#10;  A 7.99 7.68 -41.4 0 0 70.21 193.21&#10;  L 67.36 193.33&#10;  A 0.44 0.43 -87.7 0 0 66.94 193.72&#10;  L 66.91 194.03&#10;  A 0.87 0.86 -84.9 0 0 67.71 194.99&#10;  Q 68.65 195.04 69.28 195.29&#10;  A 0.81 0.80 -79.3 0 1 69.79 196.04&#10;  L 69.84 202.90&#10;  A 0.67 0.67 0.0 0 0 70.44 203.57&#10;  L 70.73 203.61&#10;  A 0.20 0.20 0.0 0 0 70.95 203.43&#10;  L 71.80 195.67&#10;  A 0.67 0.67 0.0 0 1 72.54 195.07&#10;  L 77.50 195.62&#10;  A 0.79 0.78 -83.9 0 1 78.20 196.49&#10;  L 77.44 203.40&#10;  A 0.67 0.66 6.0 0 0 78.04 204.13&#10;  L 78.48 204.18&#10;  A 0.54 0.54 0.0 0 0 79.08 203.70&#10;  L 79.91 196.06&#10;  A 0.44 0.43 -83.4 0 1 80.39 195.67&#10;  Z&#10;  M 86.05 200.29&#10;  L 88.89 200.60&#10;  A 1.07 1.06 15.4 0 0 89.97 199.99&#10;  L 90.13 199.66&#10;  A 0.55 0.54 15.6 0 0 89.69 198.89&#10;  L 86.24 198.51&#10;  A 0.77 0.76 -83.7 0 1 85.56 197.66&#10;  L 85.65 196.78&#10;  A 0.72 0.72 0.0 0 1 86.45 196.14&#10;  L 89.91 196.52&#10;  A 0.79 0.78 5.9 0 0 90.77 195.83&#10;  L 90.81 195.47&#10;  A 0.68 0.67 -81.8 0 0 90.26 194.73&#10;  L 84.38 193.63&#10;  A 0.44 0.43 -84.4 0 0 83.87 194.05&#10;  L 83.67 204.29&#10;  A 0.45 0.44 -86.6 0 0 84.07 204.75&#10;  L 84.42 204.79&#10;  A 0.71 0.70 -83.5 0 0 85.20 204.16&#10;  L 85.58 200.66&#10;  A 0.42 0.42 0.0 0 1 86.05 200.29&#10;  Z&#10;  M 95.02 205.55&#10;  A 0.69 0.69 0.0 0 0 95.92 205.17&#10;  L 96.73 203.19&#10;  A 0.74 0.74 0.0 0 1 97.55 202.74&#10;  L 100.42 203.27&#10;  A 0.68 0.66 -8.9 0 1 100.87 203.59&#10;  L 102.30 206.07&#10;  A 0.86 0.86 0.0 0 0 103.85 205.35&#10;  L 100.41 196.12&#10;  A 1.32 1.32 0.0 0 0 97.95 196.09&#10;  L 94.40 204.79&#10;  A 0.47 0.47 0.0 0 0 94.65 205.40&#10;  L 95.02 205.55&#10;  Z&#10;  M 107.69 202.86&#10;  C 109.12 203.27 111.28 203.53 112.35 202.56&#10;  C 113.69 201.36 113.93 198.54 112.36 197.34&#10;  C 111.14 196.40 106.75 196.25 105.99 196.15&#10;  A 0.95 0.95 0.0 0 0 104.91 197.08&#10;  L 104.83 206.06&#10;  A 0.60 0.59 3.3 0 0 105.36 206.65&#10;  L 105.71 206.69&#10;  A 0.73 0.72 1.0 0 0 106.51 205.92&#10;  Q 106.40 204.44 106.73 203.38&#10;  A 0.78 0.78 0.0 0 1 107.69 202.86&#10;  Z&#10;  M 117.62 204.07&#10;  C 119.08 204.52 121.28 204.82 122.39 203.84&#10;  C 123.78 202.64 124.07 199.76 122.49 198.50&#10;  C 121.26 197.52 116.77 197.30 115.99 197.18&#10;  A 0.97 0.97 0.0 0 0 114.87 198.12&#10;  L 114.65 207.30&#10;  A 0.61 0.61 0.0 0 0 115.18 207.91&#10;  L 115.54 207.96&#10;  A 0.74 0.74 0.0 0 0 116.37 207.18&#10;  Q 116.28 205.67 116.63 204.59&#10;  A 0.80 0.80 0.0 0 1 117.62 204.07&#10;  Z&#10;  M 132.71 205.38&#10;  C 133.17 205.05 133.44 205.04 133.78 204.40&#10;  C 136.52 199.25 128.94 198.70 125.78 198.67&#10;  A 0.63 0.63 0.0 0 0 125.14 199.28&#10;  L 124.84 208.64&#10;  A 0.61 0.61 0.0 0 0 125.39 209.27&#10;  L 125.88 209.32&#10;  A 0.46 0.46 0.0 0 0 126.39 208.91&#10;  L 126.74 205.70&#10;  A 0.65 0.65 0.0 0 1 127.44 205.13&#10;  C 130.15 205.36 131.09 207.50 132.47 209.86&#10;  A 1.75 1.74 -11.9 0 0 133.77 210.70&#10;  L 134.20 210.74&#10;  A 0.53 0.52 78.1 0 0 134.71 209.95&#10;  L 132.54 206.18&#10;  A 0.61 0.60 57.2 0 1 132.71 205.38&#10;  Z&#10;  M 57.21 212.10&#10;  L 56.96 214.34&#10;  A 0.94 0.93 14.5 0 0 57.54 215.31&#10;  Q 59.99 216.29 60.64 214.86&#10;  C 61.41 213.18 62.54 213.22 63.87 213.58&#10;  A 1.02 1.01 87.6 0 1 64.54 214.20&#10;  L 65.15 215.84&#10;  A 0.41 0.40 88.0 0 0 65.39 216.07&#10;  L 65.91 216.24&#10;  A 0.45 0.45 0.0 0 0 66.47 215.66&#10;  L 63.53 207.80&#10;  A 0.89 0.89 0.0 0 0 61.87 207.77&#10;  L 59.14 214.46&#10;  A 0.33 0.32 55.5 0 1 58.52 214.34&#10;  Q 58.38 210.22 58.15 207.82&#10;  A 0.99 0.85 77.9 0 0 56.99 206.93&#10;  Q 56.71 207.04 56.49 207.50&#10;  Q 56.07 208.39 55.17 212.61&#10;  A 0.35 0.35 0.0 0 1 54.50 212.66&#10;  L 52.46 207.17&#10;  A 0.63 0.63 0.0 0 0 51.25 207.32&#10;  L 50.53 213.90&#10;  A 0.53 0.53 0.0 0 0 51.00 214.49&#10;  L 51.66 214.56&#10;  A 0.44 0.44 0.0 0 0 52.14 214.02&#10;  Q 51.69 212.19 51.89 210.30&#10;  A 0.19 0.19 0.0 0 1 52.25 210.23&#10;  Q 53.40 212.34 53.77 214.76&#10;  A 0.83 0.83 0.0 0 0 55.38 214.90&#10;  L 56.36 211.92&#10;  A 0.44 0.44 0.0 0 1 57.21 212.10&#10;  Z&#10;  M 67.31 208.63&#10;  L 67.35 215.61&#10;  A 1.13 1.13 0.0 0 0 68.48 216.73&#10;  L 70.44 216.72&#10;  A 4.17 3.97 89.7 0 0 74.39 212.53&#10;  L 74.39 211.63&#10;  A 4.17 3.97 89.7 0 0 70.40 207.48&#10;  L 68.44 207.49&#10;  A 1.13 1.13 0.0 0 0 67.31 208.63&#10;  Z&#10;  M 76.10 207.90&#10;  A 0.30 0.30 0.0 0 0 75.77 208.19&#10;  L 75.77 216.66&#10;  A 0.30 0.30 0.0 0 0 76.04 216.96&#10;  L 81.83 217.59&#10;  A 0.30 0.30 0.0 0 0 82.16 217.30&#10;  L 82.16 216.39&#10;  A 0.30 0.30 0.0 0 0 81.89 216.09&#10;  L 77.41 215.60&#10;  A 0.30 0.30 0.0 0 1 77.14 215.30&#10;  L 77.14 213.64&#10;  A 0.30 0.30 0.0 0 1 77.44 213.34&#10;  L 81.30 213.34&#10;  A 0.30 0.30 0.0 0 0 81.60 213.04&#10;  L 81.60 212.31&#10;  A 0.30 0.30 0.0 0 0 81.33 212.01&#10;  L 77.48 211.59&#10;  A 0.30 0.30 0.0 0 1 77.21 211.29&#10;  L 77.21 209.94&#10;  A 0.30 0.30 0.0 0 1 77.51 209.64&#10;  L 81.27 209.64&#10;  A 0.30 0.30 0.0 0 0 81.57 209.34&#10;  L 81.57 208.76&#10;  A 0.30 0.30 0.0 0 0 81.30 208.46&#10;  L 76.10 207.90&#10;  Z&#10;  M 88.6178 209.4235&#10;  A 0.62 0.62 0.0 0 0 87.9913 208.8100&#10;  L 87.9513 208.8105&#10;  A 0.62 0.62 0.0 0 0 87.3378 209.4369&#10;  L 87.4222 217.4965&#10;  A 0.62 0.62 0.0 0 0 88.0487 218.1100&#10;  L 88.0887 218.1095&#10;  A 0.62 0.62 0.0 0 0 88.7022 217.4831&#10;  L 88.6178 209.4235&#10;  Z&#10;  M 92.34 212.16&#10;  Q 93.13 214.06 96.67 218.91&#10;  A 0.71 0.70 27.1 0 0 97.95 218.50&#10;  L 97.95 211.02&#10;  A 1.05 1.04 -82.4 0 0 97.19 210.01&#10;  L 96.91 209.93&#10;  A 0.34 0.34 0.0 0 0 96.48 210.26&#10;  L 96.48 215.58&#10;  A 0.25 0.24 28.6 0 1 96.03 215.71&#10;  Q 93.59 211.94 92.11 209.60&#10;  A 1.03 0.96 58.1 0 0 90.77 209.24&#10;  Q 90.56 209.36 90.55 209.77&#10;  Q 90.50 210.88 90.64 217.85&#10;  A 0.51 0.50 -0.6 0 0 91.15 218.34&#10;  L 91.44 218.34&#10;  A 0.50 0.49 -0.0 0 0 91.94 217.85&#10;  L 91.94 212.24&#10;  A 0.21 0.21 0.0 0 1 92.34 212.16&#10;  Z&#10;  M 111.21 217.72&#10;  A 0.60 0.60 0.0 0 0 110.16 217.20&#10;  L 109.17 218.43&#10;  A 1.25 1.25 0.0 0 1 108.29 218.89&#10;  C 102.73 219.30 103.18 211.12 107.92 212.12&#10;  A 1.65 1.62 -14.8 0 1 108.78 212.61&#10;  L 110.03 213.94&#10;  A 0.50 0.50 0.0 0 0 110.87 213.44&#10;  C 109.47 209.20 102.00 209.95 103.07 215.54&#10;  Q 103.49 217.72 104.52 218.88&#10;  C 106.37 220.96 110.39 221.19 111.21 217.72&#10;  Z&#10;  M 114.29 211.90&#10;  A 0.30 0.30 0.0 0 0 113.99 211.60&#10;  L 113.08 211.60&#10;  A 0.30 0.30 0.0 0 0 112.78 211.90&#10;  L 112.78 220.47&#10;  A 0.30 0.30 0.0 0 0 113.05 220.77&#10;  L 114.00 220.87&#10;  A 0.30 0.30 0.0 0 0 114.33 220.58&#10;  L 114.33 217.20&#10;  A 0.30 0.30 0.0 0 1 114.66 216.91&#10;  L 118.78 217.36&#10;  A 0.30 0.30 0.0 0 1 119.05 217.66&#10;  L 119.05 221.31&#10;  A 0.30 0.30 0.0 0 0 119.32 221.61&#10;  L 120.21 221.71&#10;  A 0.30 0.30 0.0 0 0 120.54 221.41&#10;  L 120.54 212.80&#10;  A 0.30 0.30 0.0 0 0 120.24 212.50&#10;  L 119.23 212.50&#10;  A 0.30 0.30 0.0 0 0 118.93 212.80&#10;  L 118.93 215.49&#10;  A 0.30 0.30 0.0 0 1 118.60 215.78&#10;  L 114.56 215.34&#10;  A 0.30 0.30 0.0 0 1 114.29 215.04&#10;  L 114.29 211.90&#10;  Z&#10;  M 124.1939 213.5625&#10;  A 0.69 0.69 0.0 0 0 123.5063 212.8701&#10;  L 123.4463 212.8699&#10;  A 0.69 0.69 0.0 0 0 122.7539 213.5575&#10;  L 122.7261 221.4975&#10;  A 0.69 0.69 0.0 0 0 123.4137 222.1899&#10;  L 123.4737 222.1901&#10;  A 0.69 0.69 0.0 0 0 124.1661 221.5025&#10;  L 124.1939 213.5625&#10;  Z&#10;  M 129.74 218.84&#10;  Q 131.09 220.95 132.79 223.33&#10;  A 0.79 0.79 0.0 0 0 134.22 222.87&#10;  L 134.22 214.98&#10;  A 0.54 0.54 0.0 0 0 133.68 214.44&#10;  L 133.33 214.44&#10;  A 0.45 0.44 0.0 0 0 132.88 214.88&#10;  L 132.88 220.60&#10;  A 0.21 0.21 0.0 0 1 132.51 220.73&#10;  Q 132.22 220.37 130.82 218.17&#10;  Q 129.47 216.05 127.77 213.68&#10;  A 0.79 0.79 0.0 0 0 126.34 214.14&#10;  L 126.34 222.03&#10;  A 0.54 0.54 0.0 0 0 126.88 222.57&#10;  L 127.23 222.57&#10;  A 0.45 0.44 -0.0 0 0 127.68 222.13&#10;  L 127.68 216.41&#10;  A 0.21 0.21 0.0 0 1 128.06 216.28&#10;  Q 128.34 216.64 129.74 218.84&#10;  Z&#10;  M 143.06 224.36&#10;  A 0.58 0.57 73.8 0 0 143.82 224.78&#10;  L 144.13 224.66&#10;  A 0.16 0.16 0.0 0 0 144.23 224.45&#10;  L 140.96 215.68&#10;  A 1.23 1.23 0.0 0 0 138.67 215.65&#10;  L 135.64 223.08&#10;  A 0.59 0.59 0.0 0 0 136.56 223.76&#10;  Q 137.35 223.11 137.60 222.35&#10;  A 1.06 1.06 0.0 0 1 138.46 221.64&#10;  Q 142.41 221.13 143.06 224.36&#10;  Z"/>
<path fill="#e4334a" d="&#10;  M 74.24 112.99&#10;  A 1.57 1.56 -55.5 0 0 73.87 110.99&#10;  L 69.70 107.62&#10;  A 0.92 0.92 0.0 0 1 70.20 105.98&#10;  L 77.14 105.38&#10;  A 1.08 1.07 -77.3 0 0 77.97 104.85&#10;  L 81.78 98.25&#10;  A 0.63 0.63 0.0 0 1 82.95 98.57&#10;  L 82.95 104.78&#10;  A 0.92 0.92 0.0 0 0 83.90 105.70&#10;  Q 86.32 105.63 89.47 105.84&#10;  Q 90.16 105.89 90.51 106.10&#10;  A 0.56 0.56 0.0 0 1 90.54 107.04&#10;  L 84.06 111.57&#10;  A 1.50 1.50 0.0 0 0 83.43 112.85&#10;  Q 83.64 117.14 83.62 119.67&#10;  Q 83.61 120.32 83.00 120.41&#10;  Q 82.79 120.44 82.53 120.24&#10;  Q 81.88 119.75 78.72 116.42&#10;  A 1.27 1.26 50.8 0 0 77.08 116.25&#10;  L 71.65 120.05&#10;  A 0.67 0.67 0.0 0 1 70.68 119.16&#10;  L 74.24 112.99&#10;  Z"/>
<path fill="#ea536f" d="&#10;  M 111.89 122.37&#10;  L 106.10 117.69&#10;  A 1.23 1.23 0.0 0 0 104.71 117.59&#10;  L 99.11 120.82&#10;  A 0.71 0.71 0.0 0 1 98.14 119.85&#10;  L 101.64 113.80&#10;  A 1.59 1.58 -55.7 0 0 101.26 111.77&#10;  L 96.40 107.85&#10;  A 0.83 0.83 0.0 0 1 96.93 106.38&#10;  L 104.60 106.42&#10;  A 1.15 1.15 0.0 0 0 105.56 105.90&#10;  Q 105.92 105.34 109.46 99.53&#10;  A 0.74 0.71 -56.5 0 1 110.50 99.29&#10;  Q 110.81 99.51 110.86 100.50&#10;  Q 110.98 102.91 111.58 106.47&#10;  A 0.66 0.65 -1.1 0 0 112.15 107.01&#10;  L 119.29 107.79&#10;  A 0.67 0.67 0.0 0 1 119.55 109.03&#10;  L 112.28 113.23&#10;  A 0.60 0.59 -14.5 0 0 111.97 113.75&#10;  L 111.97 122.33&#10;  A 0.05 0.05 0.0 0 1 111.89 122.37&#10;  Z"/>
<path fill="#ea536f" d="&#10;  M 141.96 110.56&#10;  L 150.36 112.32&#10;  A 0.43 0.43 0.0 0 1 150.47 113.13&#10;  L 142.89 117.13&#10;  A 0.43 0.43 0.0 0 0 142.66 117.56&#10;  L 143.58 126.08&#10;  A 0.43 0.43 0.0 0 1 142.85 126.44&#10;  L 136.70 120.46&#10;  A 0.43 0.43 0.0 0 0 136.22 120.38&#10;  L 128.40 123.89&#10;  A 0.43 0.43 0.0 0 1 127.84 123.31&#10;  L 131.62 115.61&#10;  A 0.43 0.43 0.0 0 0 131.55 115.13&#10;  L 125.80 108.78&#10;  A 0.43 0.43 0.0 0 1 126.18 108.06&#10;  L 134.66 109.28&#10;  A 0.43 0.43 0.0 0 0 135.10 109.07&#10;  L 139.37 101.63&#10;  A 0.43 0.43 0.0 0 1 140.16 101.77&#10;  L 141.63 110.22&#10;  A 0.43 0.43 0.0 0 0 141.96 110.56&#10;  Z"/>
<path fill="#232931" d="&#10;  M 65.74 158.09&#10;  L 47.00 158.36&#10;  A 2.10 2.10 0.0 0 0 45.97 158.63&#10;  Q 44.34 159.53 43.42 161.18&#10;  C 40.67 166.12 32.20 179.94 25.03 172.14&#10;  Q 23.05 169.98 21.70 167.61&#10;  A 3.60 3.57 -57.0 0 1 21.25 165.46&#10;  L 23.12 148.38&#10;  A 0.30 0.30 0.0 0 1 23.71 148.35&#10;  C 25.12 154.51 28.80 166.26 37.55 163.74&#10;  C 41.90 162.48 45.38 157.08 47.12 153.11&#10;  A 0.36 0.36 0.0 0 0 46.79 152.61&#10;  L 34.08 152.61&#10;  A 1.57 1.57 0.0 0 1 32.81 150.12&#10;  L 39.33 141.10&#10;  A 0.41 0.41 0.0 0 0 39.00 140.45&#10;  L 33.07 140.45&#10;  A 1.35 1.35 0.0 0 1 31.97 138.33&#10;  L 36.39 132.00&#10;  Q 40.37 126.82 41.74 125.24&#10;  C 44.22 122.38 52.73 122.95 56.13 123.14&#10;  A 0.17 0.17 0.0 0 1 56.14 123.47&#10;  L 51.25 124.01&#10;  A 1.59 1.58 -70.2 0 0 50.32 124.45&#10;  Q 45.72 129.02 42.33 134.52&#10;  A 0.71 0.71 0.0 0 0 43.01 135.60&#10;  Q 43.76 135.52 44.25 134.99&#10;  Q 46.74 132.34 47.31 131.67&#10;  A 2.44 2.42 -69.7 0 1 49.16 130.81&#10;  L 54.98 130.84&#10;  A 0.57 0.57 0.0 0 1 55.42 131.76&#10;  L 43.35 146.71&#10;  A 0.28 0.28 0.0 0 0 43.56 147.17&#10;  Q 48.28 147.30 51.28 144.48&#10;  A 0.35 0.35 0.0 0 1 51.84 144.87&#10;  L 50.25 148.76&#10;  A 0.23 0.22 11.2 0 0 50.46 149.07&#10;  L 55.87 149.00&#10;  A 0.91 0.90 10.1 0 0 56.70 148.43&#10;  L 63.88 130.82&#10;  A 0.29 0.29 0.0 0 0 63.65 130.42&#10;  L 58.14 129.82&#10;  A 0.50 0.49 -71.9 0 1 57.77 129.08&#10;  C 59.60 125.95 62.04 122.42 65.94 122.42&#10;  Q 71.37 122.42 78.72 122.69&#10;  A 0.67 0.66 12.1 0 1 79.31 123.60&#10;  L 76.96 129.35&#10;  A 1.45 1.45 0.0 0 1 75.46 130.25&#10;  L 72.69 129.95&#10;  A 1.74 1.73 -75.5 0 0 70.89 131.02&#10;  L 63.96 148.03&#10;  A 0.71 0.71 0.0 0 0 64.53 149.00&#10;  L 67.77 149.35&#10;  A 0.72 0.72 0.0 0 1 68.37 150.29&#10;  L 65.74 158.09&#10;  Z"/>
<path fill="#4c4953" d="&#10;  M 95.57 136.66&#10;  Q 95.79 136.55 95.53 137.25&#10;  Q 95.17 137.31 94.93 137.76&#10;  Q 91.89 143.58 89.70 148.04&#10;  Q 89.18 149.10 89.25 149.93&#10;  Q 89.45 152.29 93.13 149.70&#10;  A 0.60 0.59 -8.6 0 1 94.04 150.37&#10;  L 91.53 157.97&#10;  A 1.89 1.89 0.0 0 1 89.82 159.28&#10;  C 86.86 159.41 85.12 158.00 82.86 156.30&#10;  A 0.92 0.92 0.0 0 0 81.93 156.19&#10;  C 80.80 156.67 79.14 157.81 77.90 158.10&#10;  Q 74.52 158.89 70.30 158.39&#10;  A 1.36 1.35 -77.6 0 1 69.17 156.62&#10;  L 71.12 150.71&#10;  A 2.19 2.17 10.2 0 1 73.29 149.21&#10;  C 75.77 149.32 79.99 149.87 78.45 145.97&#10;  Q 76.49 141.02 74.70 136.91&#10;  A 1.12 1.12 0.0 0 1 75.85 135.35&#10;  L 80.79 135.89&#10;  A 2.19 2.17 82.8 0 1 82.61 137.31&#10;  L 84.08 141.23&#10;  A 0.35 0.35 0.0 0 0 84.72 141.27&#10;  L 89.90 131.23&#10;  A 0.14 0.14 0.0 0 0 89.79 131.03&#10;  L 78.81 129.83&#10;  A 0.43 0.43 0.0 0 1 78.47 129.21&#10;  Q 81.57 122.96 88.76 122.97&#10;  C 92.78 122.98 102.07 122.31 99.21 128.48&#10;  Q 97.35 132.51 95.57 136.66&#10;  Z"/>
<path fill="#6d6372" d="&#10;  M 133.63 137.46&#10;  Q 133.59 138.95 134.17 140.12&#10;  Q 133.86 141.43 134.41 142.26&#10;  A 1.20 1.18 -11.6 0 0 135.19 142.77&#10;  L 143.34 144.13&#10;  Q 141.83 144.64 140.72 145.75&#10;  L 138.79 145.62&#10;  A 1.55 1.53 -74.7 0 0 137.29 146.49&#10;  L 137.14 146.80&#10;  A 0.76 0.76 0.0 0 0 137.74 147.88&#10;  L 148.56 149.10&#10;  Q 145.48 151.12 145.53 154.71&#10;  L 135.22 153.42&#10;  A 0.95 0.94 8.5 0 0 134.18 154.18&#10;  L 133.95 155.41&#10;  A 0.58 0.58 0.0 0 0 134.41 156.09&#10;  L 141.30 157.41&#10;  Q 139.48 157.75 138.70 159.14&#10;  L 126.95 157.65&#10;  A 1.20 1.20 0.0 0 0 125.62 158.62&#10;  L 125.52 159.18&#10;  A 0.97 0.97 0.0 0 0 126.33 160.32&#10;  L 134.48 161.51&#10;  Q 132.82 161.88 132.00 163.25&#10;  L 117.52 161.39&#10;  A 0.60 0.59 11.1 0 1 117.02 160.65&#10;  Q 117.41 159.05 118.97 156.01&#10;  Q 120.28 153.44 122.57 154.40&#10;  A 1.56 1.55 -63.5 0 0 124.52 153.74&#10;  L 124.78 153.29&#10;  A 0.76 0.75 -69.3 0 0 124.28 152.17&#10;  Q 121.18 151.53 120.17 151.60&#10;  A 4.79 4.23 -78.7 0 0 116.44 154.44&#10;  Q 116.14 155.14 114.70 159.73&#10;  A 2.41 2.39 5.2 0 1 112.68 161.40&#10;  C 109.20 161.80 107.82 160.12 105.38 158.13&#10;  A 0.79 0.79 0.0 0 0 104.49 158.06&#10;  L 101.06 160.04&#10;  A 2.56 2.54 -56.5 0 1 99.52 160.36&#10;  L 93.41 159.69&#10;  A 0.69 0.68 12.0 0 1 92.83 158.80&#10;  L 95.31 151.28&#10;  A 1.12 1.12 0.0 0 1 96.49 150.51&#10;  L 100.12 150.91&#10;  A 0.41 0.41 0.0 0 0 100.55 150.36&#10;  L 95.53 137.25&#10;  Q 95.79 136.55 95.57 136.66&#10;  L 102.84 136.73&#10;  A 1.44 1.44 0.0 0 1 104.17 137.66&#10;  L 106.57 144.12&#10;  A 0.58 0.58 0.0 0 0 107.61 144.20&#10;  L 113.75 133.57&#10;  A 0.25 0.25 0.0 0 0 113.56 133.20&#10;  L 100.93 131.81&#10;  A 1.51 1.50 -59.4 0 1 100.23 129.08&#10;  L 104.51 126.08&#10;  A 8.36 8.33 30.6 0 1 110.23 124.62&#10;  L 122.92 126.01&#10;  A 1.21 1.19 77.8 0 1 123.85 126.62&#10;  Q 124.81 128.31 123.74 130.75&#10;  Q 118.93 141.63 113.32 150.33&#10;  A 1.81 1.81 0.0 0 0 115.93 152.76&#10;  Q 117.37 151.68 120.73 148.07&#10;  C 122.66 145.99 125.40 146.60 127.50 145.66&#10;  A 0.78 0.78 0.0 0 0 127.28 144.18&#10;  Q 125.50 143.96 124.30 143.37&#10;  A 0.60 0.59 -63.0 0 1 124.04 142.56&#10;  C 126.27 138.20 127.77 134.72 133.63 137.46&#10;  Z&#10;  M 119.84 128.36&#10;  A 0.52 0.52 0.0 0 0 119.32 127.84&#10;  A 0.52 0.52 0.0 0 0 118.80 128.36&#10;  A 0.52 0.52 0.0 0 0 119.32 128.88&#10;  A 0.52 0.52 0.0 0 0 119.84 128.36&#10;  Z"/>
<path fill="#4c4953" d="&#10;  M 157.06 129.64&#10;  A 0.75 0.75 0.0 0 0 157.53 130.82&#10;  L 171.90 133.49&#10;  A 1.15 1.14 12.8 0 1 172.80 134.91&#10;  L 172.75 135.09&#10;  A 1.36 1.36 0.0 0 1 171.18 136.14&#10;  L 157.13 133.62&#10;  A 2.18 2.18 0.0 0 0 155.03 134.42&#10;  L 154.89 134.59&#10;  A 0.89 0.88 -70.0 0 0 155.51 135.93&#10;  L 168.04 137.76&#10;  A 1.91 1.49 -25.5 0 1 168.31 137.82&#10;  L 170.12 138.50&#10;  A 1.36 1.36 0.0 0 1 169.42 141.11&#10;  Q 142.64 136.66 142.16 136.55&#10;  C 138.29 135.62 132.94 135.54 128.47 135.03&#10;  A 0.88 0.87 -69.1 0 1 127.86 133.65&#10;  L 128.19 133.20&#10;  A 2.34 2.32 -68.7 0 1 130.33 132.25&#10;  L 142.85 133.62&#10;  A 1.22 1.19 -63.7 0 0 143.82 133.28&#10;  L 144.05 133.05&#10;  A 1.00 0.99 19.6 0 0 143.32 131.53&#10;  L 130.68 130.09&#10;  A 0.81 0.81 0.0 0 1 130.37 128.58&#10;  C 133.34 126.86 138.90 128.21 144.94 128.89&#10;  A 1.48 1.48 0.0 0 0 146.26 128.34&#10;  L 148.67 125.37&#10;  A 1.61 1.59 -67.3 0 1 150.08 124.78&#10;  L 158.73 125.73&#10;  A 0.63 0.63 0.0 0 1 159.17 126.72&#10;  L 157.06 129.64&#10;  Z"/>
<circle fill="#baa7a7" cx="119.32" cy="128.36" r="0.52"/>
<path fill="#ea536f" d="&#10;  M 180.0861 136.9576&#10;  A 7.69 7.17 -157.1 0 1 189.9600 133.3451&#10;  A 7.69 7.17 -157.1 0 1 194.2539 142.9424&#10;  A 7.69 7.17 -157.1 0 1 184.3800 146.5549&#10;  A 7.69 7.17 -157.1 0 1 180.0861 136.9576&#10;  Z&#10;  M 181.5189 137.0236&#10;  A 6.36 5.65 -152.3 0 0 184.5236 144.9825&#10;  A 6.36 5.65 -152.3 0 0 192.7811 142.9364&#10;  A 6.36 5.65 -152.3 0 0 189.7764 134.9775&#10;  A 6.36 5.65 -152.3 0 0 181.5189 137.0236&#10;  Z"/>
<path fill="#ebe7e9" d="&#10;  M 181.5189 137.0236&#10;  A 6.36 5.65 -152.3 0 1 189.7764 134.9775&#10;  A 6.36 5.65 -152.3 0 1 192.7811 142.9364&#10;  A 6.36 5.65 -152.3 0 1 184.5236 144.9825&#10;  A 6.36 5.65 -152.3 0 1 181.5189 137.0236&#10;  Z&#10;  M 186.28 140.64&#10;  Q 187.99 141.46 188.89 143.69&#10;  A 0.64 0.63 31.1 0 0 190.11 143.39&#10;  Q 189.86 141.12 190.78 139.23&#10;  A 2.08 2.08 0.0 0 0 189.57 136.35&#10;  L 186.56 135.36&#10;  A 1.93 1.93 0.0 0 0 184.04 136.98&#10;  L 183.45 142.40&#10;  A 0.79 0.79 0.0 0 0 184.56 143.20&#10;  L 184.79 143.09&#10;  A 1.06 1.05 -9.2 0 0 185.41 142.23&#10;  L 185.54 141.05&#10;  A 0.52 0.52 0.0 0 1 186.28 140.64&#10;  Z"/>
<path fill="#ea536f" d="&#10;  M 185.54 141.05&#10;  L 185.41 142.23&#10;  A 1.06 1.05 -9.2 0 1 184.79 143.09&#10;  L 184.56 143.20&#10;  A 0.79 0.79 0.0 0 1 183.45 142.40&#10;  L 184.04 136.98&#10;  A 1.93 1.93 0.0 0 1 186.56 135.36&#10;  L 189.57 136.35&#10;  A 2.08 2.08 0.0 0 1 190.78 139.23&#10;  Q 189.86 141.12 190.11 143.39&#10;  A 0.64 0.63 31.1 0 1 188.89 143.69&#10;  Q 187.99 141.46 186.28 140.64&#10;  A 0.52 0.52 0.0 0 0 185.54 141.05&#10;  Z&#10;  M 186.0684 138.2255&#10;  A 1.39 1.17 -166.5 0 0 187.1469 139.6877&#10;  A 1.39 1.17 -166.5 0 0 188.7716 138.8745&#10;  A 1.39 1.17 -166.5 0 0 187.6931 137.4123&#10;  A 1.39 1.17 -166.5 0 0 186.0684 138.2255&#10;  Z"/>
<ellipse fill="#e6dee1" cx="0.00" cy="0.00" transform="translate(187.42,138.55) rotate(-166.5)" rx="1.39" ry="1.17"/>
<path fill="#383840" d="&#10;  M 132.00 163.25&#10;  Q 132.82 161.88 134.48 161.51&#10;  L 149.25 163.38&#10;  A 1.11 1.09 12.5 0 0 150.43 162.64&#10;  L 150.55 162.28&#10;  A 1.17 1.17 0.0 0 0 149.62 160.76&#10;  L 138.70 159.14&#10;  Q 139.48 157.75 141.30 157.41&#10;  L 145.50 157.81&#10;  A 0.77 0.77 0.0 0 0 146.32 157.23&#10;  Q 146.48 156.55 146.67 155.69&#10;  Q 146.76 155.26 146.36 154.98&#10;  Q 146.03 154.74 145.53 154.71&#10;  Q 145.48 151.12 148.56 149.10&#10;  Q 149.62 148.57 149.65 147.93&#10;  Q 149.68 147.10 148.86 146.98&#10;  Q 144.46 146.32 140.72 145.75&#10;  Q 141.83 144.64 143.34 144.13&#10;  L 156.61 145.89&#10;  A 1.08 1.07 12.3 0 0 157.77 145.16&#10;  L 158.07 144.25&#10;  A 0.61 0.61 0.0 0 0 157.57 143.45&#10;  L 134.17 140.12&#10;  Q 133.59 138.95 133.63 137.46&#10;  Q 147.93 139.48 162.26 141.46&#10;  C 164.23 141.73 166.25 142.31 168.23 142.81&#10;  A 0.92 0.92 0.0 0 1 168.85 144.06&#10;  Q 167.68 146.80 165.50 148.94&#10;  A 1.37 1.34 -69.0 0 1 164.67 149.32&#10;  Q 163.02 149.45 161.31 148.76&#10;  A 1.04 1.04 0.0 0 0 160.02 149.21&#10;  L 159.40 150.28&#10;  A 0.60 0.60 0.0 0 0 159.81 151.17&#10;  L 167.59 152.62&#10;  A 4.81 4.69 45.7 0 0 169.15 152.66&#10;  L 170.79 152.45&#10;  A 0.54 0.54 0.0 0 1 171.32 153.26&#10;  L 169.23 156.89&#10;  A 2.67 2.66 18.1 0 1 166.63 158.20&#10;  L 157.51 157.21&#10;  A 1.27 1.26 -77.7 0 0 156.16 158.08&#10;  L 156.03 158.49&#10;  A 0.66 0.66 0.0 0 0 156.72 159.35&#10;  Q 158.00 159.23 160.72 160.29&#10;  A 1.10 1.09 -65.6 0 1 161.29 161.82&#10;  C 159.83 164.55 158.70 166.33 155.25 166.88&#10;  A 2.07 2.07 0.0 0 1 154.61 166.88&#10;  L 132.00 163.25&#10;  Z"/>
<path fill="#ebe7e9" d="&#10;  M 143.34 144.13&#10;  L 135.19 142.77&#10;  A 1.20 1.18 -11.6 0 1 134.41 142.26&#10;  Q 133.86 141.43 134.17 140.12&#10;  L 157.57 143.45&#10;  A 0.61 0.61 0.0 0 1 158.07 144.25&#10;  L 157.77 145.16&#10;  A 1.08 1.07 12.3 0 1 156.61 145.89&#10;  L 143.34 144.13&#10;  Z"/>
<path fill="#ebe7e9" d="&#10;  M 140.72 145.75&#10;  Q 144.46 146.32 148.86 146.98&#10;  Q 149.68 147.10 149.65 147.93&#10;  Q 149.62 148.57 148.56 149.10&#10;  L 137.74 147.88&#10;  A 0.76 0.76 0.0 0 1 137.14 146.80&#10;  L 137.29 146.49&#10;  A 1.55 1.53 -74.7 0 1 138.79 145.62&#10;  L 140.72 145.75&#10;  Z"/>
<path fill="#d6ccce" d="&#10;  M 341.94 162.23&#10;  A 171.02 170.91 55.0 0 1 328.16 240.62&#10;  Q 314.95 250.08 304.15 256.96&#10;  C 273.60 276.42 239.21 283.62 203.62 288.61&#10;  Q 160.98 294.58 114.95 289.36&#10;  C 92.86 286.86 71.55 283.75 52.09 272.72&#10;  C 39.07 265.34 27.41 255.11 16.36 244.76&#10;  A 170.90 170.70 29.0 0 1 1.68 193.51&#10;  A 170.94 170.74 45.5 0 1 2.01 149.22&#10;  Q 3.32 155.56 6.29 168.30&#10;  Q 10.19 185.03 17.83 198.96&#10;  C 28.44 218.31 47.59 230.34 68.98 238.86&#10;  Q 111.09 255.62 158.11 259.23&#10;  C 206.52 262.95 254.99 251.98 295.45 225.65&#10;  Q 319.48 210.01 332.62 184.57&#10;  Q 336.23 177.59 341.94 162.23&#10;  Z"/>
<path fill="#ebe7e9" d="&#10;  M 145.53 154.71&#10;  Q 146.03 154.74 146.36 154.98&#10;  Q 146.76 155.26 146.67 155.69&#10;  Q 146.48 156.55 146.32 157.23&#10;  A 0.77 0.77 0.0 0 1 145.50 157.81&#10;  L 141.30 157.41&#10;  L 134.41 156.09&#10;  A 0.58 0.58 0.0 0 1 133.95 155.41&#10;  L 134.18 154.18&#10;  A 0.95 0.94 8.5 0 1 135.22 153.42&#10;  L 145.53 154.71&#10;  Z"/>
<path fill="#ebe7e9" d="&#10;  M 138.70 159.14&#10;  L 149.62 160.76&#10;  A 1.17 1.17 0.0 0 1 150.55 162.28&#10;  L 150.43 162.64&#10;  A 1.11 1.09 12.5 0 1 149.25 163.38&#10;  L 134.48 161.51&#10;  L 126.33 160.32&#10;  A 0.97 0.97 0.0 0 1 125.52 159.18&#10;  L 125.62 158.62&#10;  A 1.20 1.20 0.0 0 1 126.95 157.65&#10;  L 138.70 159.14&#10;  Z"/>
<path fill="#383840" d="&#10;  M 102.10 168.66&#10;  Q 100.86 175.12 97.59 183.85&#10;  C 96.65 186.36 95.43 187.79 92.57 187.58&#10;  Q 87.28 187.18 79.34 186.42&#10;  A 0.50 0.46 -18.6 0 1 79.01 186.27&#10;  Q 78.55 185.79 78.84 184.69&#10;  L 82.68 172.61&#10;  A 1.10 1.10 0.0 0 1 83.85 171.85&#10;  L 89.29 172.44&#10;  A 0.79 0.78 12.5 0 1 89.95 173.47&#10;  L 87.36 181.35&#10;  A 1.04 1.04 0.0 0 0 88.46 182.71&#10;  L 88.92 182.67&#10;  A 2.72 2.72 0.0 0 0 91.23 180.81&#10;  L 94.22 171.73&#10;  A 0.76 0.76 0.0 0 0 93.58 170.74&#10;  L 78.14 169.05&#10;  A 1.03 1.03 0.0 0 1 77.27 167.70&#10;  L 77.91 165.74&#10;  A 1.57 1.56 11.0 0 1 79.50 164.67&#10;  Q 88.59 165.23 96.80 165.93&#10;  Q 100.16 166.22 102.10 168.66&#10;  Z"/>
<path fill="#4c4953" d="&#10;  M 126.34 172.99&#10;  L 120.25 189.50&#10;  A 1.39 1.38 -76.5 0 1 118.80 190.39&#10;  L 112.51 189.70&#10;  A 1.04 1.04 0.0 0 1 111.63 188.34&#10;  L 114.19 180.57&#10;  A 0.67 0.67 0.0 0 0 113.55 179.69&#10;  L 112.00 179.69&#10;  A 1.06 1.06 0.0 0 0 111.10 180.19&#10;  Q 108.42 184.61 108.14 187.23&#10;  A 1.91 1.91 0.0 0 1 106.04 188.93&#10;  L 100.73 188.35&#10;  A 1.68 1.68 0.0 0 1 99.34 186.11&#10;  L 105.76 168.48&#10;  Q 106.44 166.75 108.50 167.00&#10;  Q 114.03 167.68 114.92 167.76&#10;  A 0.36 0.36 0.0 0 1 115.22 168.25&#10;  L 113.34 172.86&#10;  A 1.12 1.12 0.0 0 0 114.03 174.35&#10;  L 115.09 174.70&#10;  A 1.16 1.16 0.0 0 0 116.54 174.03&#10;  L 118.65 168.87&#10;  A 0.81 0.81 0.0 0 1 119.49 168.37&#10;  L 126.89 169.18&#10;  A 0.67 0.66 -76.9 0 1 127.44 170.07&#10;  L 126.34 172.99&#10;  Z&#10;  M 118.70 180.70&#10;  Q 117.75 181.08 117.72 181.28&#10;  A 0.89 0.73 -32.3 0 0 119.31 181.48&#10;  Q 119.52 181.09 118.91 180.72&#10;  A 0.21 0.21 0.0 0 0 118.70 180.70&#10;  Z"/>
<path fill="#383840" d="&#10;  M 142.09 193.26&#10;  L 123.66 191.01&#10;  A 0.78 0.77 2.2 0 1 122.98 190.28&#10;  Q 122.89 188.69 123.69 186.96&#10;  A 0.74 0.73 15.4 0 1 124.44 186.54&#10;  L 132.74 187.45&#10;  A 0.43 0.42 25.0 0 0 133.08 187.33&#10;  Q 134.01 186.39 132.69 184.01&#10;  Q 129.97 179.14 129.13 174.30&#10;  C 129.75 169.37 133.58 169.72 137.38 170.45&#10;  Q 139.31 170.82 140.15 170.70&#10;  C 141.43 170.52 142.40 171.40 143.75 171.63&#10;  Q 150.54 172.78 154.34 173.62&#10;  A 1.19 1.18 17.6 0 1 155.18 175.23&#10;  L 154.59 176.70&#10;  A 1.75 1.74 -74.1 0 1 152.70 177.76&#10;  C 147.19 176.88 143.68 175.72 140.19 176.52&#10;  A 0.72 0.72 0.0 0 0 139.68 177.50&#10;  Q 142.15 183.47 143.91 188.01&#10;  Q 144.85 190.42 142.09 193.26&#10;  Z"/>
<path fill="#a48b89" d="&#10;  M 118.91 180.72&#10;  Q 119.52 181.09 119.31 181.48&#10;  A 0.89 0.73 -32.3 0 1 117.72 181.28&#10;  Q 117.75 181.08 118.70 180.70&#10;  A 0.21 0.21 0.0 0 1 118.91 180.72&#10;  Z"/>
<path fill="#e4334a" d="&#10;  M 41.02 204.73&#10;  A 0.56 0.56 0.0 0 1 39.90 204.69&#10;  L 39.90 202.81&#10;  A 0.63 0.62 0.0 0 0 39.27 202.19&#10;  L 37.34 202.19&#10;  A 1.20 1.20 0.0 0 1 36.19 200.66&#10;  Q 37.56 195.92 40.32 191.56&#10;  A 0.56 0.56 0.0 0 1 41.35 191.90&#10;  Q 40.95 196.74 42.02 200.50&#10;  A 1.31 1.29 54.0 0 1 41.86 201.56&#10;  Q 41.17 202.63 41.02 204.73&#10;  Z&#10;  M 38.82 200.14&#10;  Q 39.53 200.27 39.64 199.60&#10;  Q 40.16 196.67 39.46 196.54&#10;  Q 38.76 196.42 38.23 199.35&#10;  Q 38.11 200.02 38.82 200.14&#10;  Z"/>
<path fill="#e4334a" d="&#10;  M 46.4729 191.0718&#10;  A 7.18 3.28 -88.7 0 1 49.5892 198.3244&#10;  A 7.18 3.28 -88.7 0 1 46.1471 205.4282&#10;  A 7.18 3.28 -88.7 0 1 43.0308 198.1756&#10;  A 7.18 3.28 -88.7 0 1 46.4729 191.0718&#10;  Z&#10;  M 46.2257 193.0305&#10;  A 5.32 1.68 -90.8 0 0 44.6202 198.3735&#10;  A 5.32 1.68 -90.8 0 0 46.3743 203.6695&#10;  A 5.32 1.68 -90.8 0 0 47.9798 198.3265&#10;  A 5.32 1.68 -90.8 0 0 46.2257 193.0305&#10;  Z"/>
<path fill="#e4334a" d="&#10;  M 27.42 192.87&#10;  A 1.43 1.43 0.0 0 1 28.86 191.46&#10;  L 30.66 191.48&#10;  A 5.18 4.85 -89.3 0 1 35.45 196.72&#10;  L 35.41 200.20&#10;  A 5.18 4.85 -89.3 0 1 30.50 205.32&#10;  L 28.70 205.30&#10;  A 1.43 1.43 0.0 0 1 27.28 203.85&#10;  L 27.42 192.87&#10;  Z&#10;  M 28.89 194.36&#10;  L 29.01 202.76&#10;  A 0.55 0.55 0.0 0 0 29.57 203.31&#10;  L 30.30 203.30&#10;  A 3.55 3.50 89.2 0 0 33.75 199.70&#10;  L 33.71 197.30&#10;  A 3.55 3.50 89.2 0 0 30.16 193.80&#10;  L 29.43 193.81&#10;  A 0.55 0.55 0.0 0 0 28.89 194.36&#10;  Z"/>
<path fill="#e4334a" d="&#10;  M 53.85 192.60&#10;  Q 55.08 192.61 54.59 195.63&#10;  A 0.89 0.89 0.0 0 0 55.46 196.67&#10;  Q 57.73 196.66 57.72 197.99&#10;  Q 57.71 199.31 55.45 199.27&#10;  A 0.89 0.89 0.0 0 0 54.56 200.30&#10;  Q 55.01 203.33 53.78 203.32&#10;  Q 52.54 203.31 53.04 200.29&#10;  A 0.89 0.89 0.0 0 0 52.16 199.25&#10;  Q 49.90 199.26 49.91 197.93&#10;  Q 49.92 196.61 52.18 196.64&#10;  A 0.89 0.89 0.0 0 0 53.07 195.62&#10;  Q 52.62 192.59 53.85 192.60&#10;  Z"/>
<rect fill="#a48b89" x="-0.87" y="-5.02" transform="translate(65.01,198.09) rotate(0.4)" width="1.74" height="10.04" rx="0.84"/>
<ellipse fill="#e6dee1" cx="0.00" cy="0.00" transform="translate(46.30,198.35) rotate(-90.8)" rx="5.32" ry="1.68"/>
<path fill="#ea536f" d="&#10;  M 79.91 196.06&#10;  L 79.08 203.70&#10;  A 0.54 0.54 0.0 0 1 78.48 204.18&#10;  L 78.04 204.13&#10;  A 0.67 0.66 6.0 0 1 77.44 203.40&#10;  L 78.20 196.49&#10;  A 0.79 0.78 -83.9 0 0 77.50 195.62&#10;  L 72.54 195.07&#10;  A 0.67 0.67 0.0 0 0 71.80 195.67&#10;  L 70.95 203.43&#10;  A 0.20 0.20 0.0 0 1 70.73 203.61&#10;  L 70.44 203.57&#10;  A 0.67 0.67 0.0 0 1 69.84 202.90&#10;  L 69.79 196.04&#10;  A 0.81 0.80 -79.3 0 0 69.28 195.29&#10;  Q 68.65 195.04 67.71 194.99&#10;  A 0.87 0.86 -84.9 0 1 66.91 194.03&#10;  L 66.94 193.72&#10;  A 0.44 0.43 -87.7 0 1 67.36 193.33&#10;  L 70.21 193.21&#10;  A 7.99 7.68 -41.4 0 1 71.58 193.27&#10;  C 75.50 193.82 78.76 193.32 82.03 193.76&#10;  A 0.87 0.86 -82.8 0 1 82.76 194.71&#10;  L 82.73 195.05&#10;  A 0.87 0.86 -83.4 0 1 81.77 195.82&#10;  L 80.39 195.67&#10;  A 0.44 0.43 -83.4 0 0 79.91 196.06&#10;  Z"/>
<path fill="#e4334a" d="&#10;  M 85.58 200.66&#10;  L 85.20 204.16&#10;  A 0.71 0.70 -83.5 0 1 84.42 204.79&#10;  L 84.07 204.75&#10;  A 0.45 0.44 -86.6 0 1 83.67 204.29&#10;  L 83.87 194.05&#10;  A 0.44 0.43 -84.4 0 1 84.38 193.63&#10;  L 90.26 194.73&#10;  A 0.68 0.67 -81.8 0 1 90.81 195.47&#10;  L 90.77 195.83&#10;  A 0.79 0.78 5.9 0 1 89.91 196.52&#10;  L 86.45 196.14&#10;  A 0.72 0.72 0.0 0 0 85.65 196.78&#10;  L 85.56 197.66&#10;  A 0.77 0.76 -83.7 0 0 86.24 198.51&#10;  L 89.69 198.89&#10;  A 0.55 0.54 15.6 0 1 90.13 199.66&#10;  L 89.97 199.99&#10;  A 1.07 1.06 15.4 0 1 88.89 200.60&#10;  L 86.05 200.29&#10;  A 0.42 0.42 0.0 0 0 85.58 200.66&#10;  Z"/>
<path fill="#e6dee1" d="&#10;  M 28.89 194.36&#10;  A 0.55 0.55 0.0 0 1 29.43 193.81&#10;  L 30.16 193.80&#10;  A 3.55 3.50 89.2 0 1 33.71 197.30&#10;  L 33.75 199.70&#10;  A 3.55 3.50 89.2 0 1 30.30 203.30&#10;  L 29.57 203.31&#10;  A 0.55 0.55 0.0 0 1 29.01 202.76&#10;  L 28.89 194.36&#10;  Z"/>
<path fill="#ea536f" d="&#10;  M 94.40 204.79&#10;  L 97.95 196.09&#10;  A 1.32 1.32 0.0 0 1 100.41 196.12&#10;  L 103.85 205.35&#10;  A 0.86 0.86 0.0 0 1 102.30 206.07&#10;  L 100.87 203.59&#10;  A 0.68 0.66 -8.9 0 0 100.42 203.27&#10;  L 97.55 202.74&#10;  A 0.74 0.74 0.0 0 0 96.73 203.19&#10;  L 95.92 205.17&#10;  A 0.69 0.69 0.0 0 1 95.02 205.55&#10;  L 94.65 205.40&#10;  A 0.47 0.47 0.0 0 1 94.40 204.79&#10;  Z&#10;  M 98.98 201.48&#10;  Q 99.56 201.54 99.72 201.50&#10;  A 0.63 0.63 0.0 0 0 100.17 200.76&#10;  Q 99.69 198.55 99.30 198.51&#10;  Q 98.90 198.46 97.96 200.52&#10;  A 0.63 0.63 0.0 0 0 98.25 201.34&#10;  Q 98.39 201.41 98.98 201.48&#10;  Z"/>
<path fill="#e4334a" d="&#10;  M 106.73 203.38&#10;  Q 106.40 204.44 106.51 205.92&#10;  A 0.73 0.72 1.0 0 1 105.71 206.69&#10;  L 105.36 206.65&#10;  A 0.60 0.59 3.3 0 1 104.83 206.06&#10;  L 104.91 197.08&#10;  A 0.95 0.95 0.0 0 1 105.99 196.15&#10;  C 106.75 196.25 111.14 196.40 112.36 197.34&#10;  C 113.93 198.54 113.69 201.36 112.35 202.56&#10;  C 111.28 203.53 109.12 203.27 107.69 202.86&#10;  A 0.78 0.78 0.0 0 0 106.73 203.38&#10;  Z&#10;  M 106.93 198.64&#10;  L 106.75 200.47&#10;  A 0.67 0.67 0.0 0 0 107.36 201.20&#10;  L 107.56 201.22&#10;  A 3.93 1.43 5.4 0 0 111.60 200.17&#10;  L 111.63 199.85&#10;  A 3.93 1.43 5.4 0 0 107.86 198.05&#10;  L 107.66 198.03&#10;  A 0.67 0.67 0.0 0 0 106.93 198.64&#10;  Z"/>
<path fill="#d6ccce" d="&#10;  M 39.46 196.54&#10;  Q 40.16 196.67 39.64 199.60&#10;  Q 39.53 200.27 38.82 200.14&#10;  Q 38.11 200.02 38.23 199.35&#10;  Q 38.76 196.42 39.46 196.54&#10;  Z"/>
<path fill="#e4334a" d="&#10;  M 117.62 204.07&#10;  A 0.80 0.80 0.0 0 0 116.63 204.59&#10;  Q 116.28 205.67 116.37 207.18&#10;  A 0.74 0.74 0.0 0 1 115.54 207.96&#10;  L 115.18 207.91&#10;  A 0.61 0.61 0.0 0 1 114.65 207.30&#10;  L 114.87 198.12&#10;  A 0.97 0.97 0.0 0 1 115.99 197.18&#10;  C 116.77 197.30 121.26 197.52 122.49 198.50&#10;  C 124.07 199.76 123.78 202.64 122.39 203.84&#10;  C 121.28 204.82 119.08 204.52 117.62 204.07&#10;  Z&#10;  M 116.65 200.12&#10;  L 116.67 201.92&#10;  A 0.67 0.67 0.0 0 0 117.35 202.58&#10;  L 117.86 202.58&#10;  A 3.68 1.30 -0.7 0 0 121.52 201.23&#10;  L 121.52 200.69&#10;  A 3.68 1.30 -0.7 0 0 117.82 199.44&#10;  L 117.31 199.44&#10;  A 0.67 0.67 0.0 0 0 116.65 200.12&#10;  Z"/>
<path fill="#e6dee1" d="&#10;  M 106.93 198.64&#10;  A 0.67 0.67 0.0 0 1 107.66 198.03&#10;  L 107.86 198.05&#10;  A 3.93 1.43 5.4 0 1 111.63 199.85&#10;  L 111.60 200.17&#10;  A 3.93 1.43 5.4 0 1 107.56 201.22&#10;  L 107.36 201.20&#10;  A 0.67 0.67 0.0 0 1 106.75 200.47&#10;  L 106.93 198.64&#10;  Z"/>
<path fill="#d6ccce" d="&#10;  M 99.30 198.51&#10;  Q 99.69 198.55 100.17 200.76&#10;  A 0.63 0.63 0.0 0 1 99.72 201.50&#10;  Q 99.56 201.54 98.98 201.48&#10;  Q 98.39 201.41 98.25 201.34&#10;  A 0.63 0.63 0.0 0 1 97.96 200.52&#10;  Q 98.90 198.46 99.30 198.51&#10;  Z"/>
<path fill="#e4334a" d="&#10;  M 132.54 206.18&#10;  L 134.71 209.95&#10;  A 0.53 0.52 78.1 0 1 134.20 210.74&#10;  L 133.77 210.70&#10;  A 1.75 1.74 -11.9 0 1 132.47 209.86&#10;  C 131.09 207.50 130.15 205.36 127.44 205.13&#10;  A 0.65 0.65 0.0 0 0 126.74 205.70&#10;  L 126.39 208.91&#10;  A 0.46 0.46 0.0 0 1 125.88 209.32&#10;  L 125.39 209.27&#10;  A 0.61 0.61 0.0 0 1 124.84 208.64&#10;  L 125.14 199.28&#10;  A 0.63 0.63 0.0 0 1 125.78 198.67&#10;  C 128.94 198.70 136.52 199.25 133.78 204.40&#10;  C 133.44 205.04 133.17 205.05 132.71 205.38&#10;  A 0.61 0.60 57.2 0 0 132.54 206.18&#10;  Z&#10;  M 132.1517 202.3112&#10;  A 0.84 0.84 0.0 0 0 131.4823 201.3298&#10;  L 127.9056 200.6540&#10;  A 0.84 0.84 0.0 0 0 126.9242 201.3234&#10;  L 126.7683 202.1488&#10;  A 0.84 0.84 0.0 0 0 127.4377 203.1302&#10;  L 131.0144 203.8060&#10;  A 0.84 0.84 0.0 0 0 131.9958 203.1366&#10;  L 132.1517 202.3112&#10;  Z"/>
<path fill="#e6dee1" d="&#10;  M 116.65 200.12&#10;  A 0.67 0.67 0.0 0 1 117.31 199.44&#10;  L 117.82 199.44&#10;  A 3.68 1.30 -0.7 0 1 121.52 200.69&#10;  L 121.52 201.23&#10;  A 3.68 1.30 -0.7 0 1 117.86 202.58&#10;  L 117.35 202.58&#10;  A 0.67 0.67 0.0 0 1 116.67 201.92&#10;  L 116.65 200.12&#10;  Z"/>
<rect fill="#e6dee1" x="-2.66" y="-1.26" transform="translate(129.46,202.23) rotate(10.7)" width="5.32" height="2.52" rx="0.84"/>
<path fill="#e4334a" d="&#10;  M 141.29 200.93&#10;  Q 143.97 201.21 145.63 203.06&#10;  C 147.65 206.05 147.45 210.20 143.72 211.57&#10;  C 138.75 213.41 134.28 208.00 136.17 203.43&#10;  Q 137.35 200.59 141.29 200.93&#10;  Z&#10;  M 139.1840 202.9140&#10;  A 4.15 3.63 -121.3 0 0 138.2383 208.3459&#10;  A 4.15 3.63 -121.3 0 0 143.4960 210.0060&#10;  A 4.15 3.63 -121.3 0 0 144.4417 204.5741&#10;  A 4.15 3.63 -121.3 0 0 139.1840 202.9140&#10;  Z"/>
<ellipse fill="#e6dee1" cx="0.00" cy="0.00" transform="translate(141.34,206.46) rotate(-121.3)" rx="4.15" ry="3.63"/>
<path fill="#e4334a" d="&#10;  M 147.88 202.47&#10;  Q 149.16 202.21 149.59 203.15&#10;  Q 151.52 207.31 152.14 211.42&#10;  A 0.41 0.41 0.0 0 0 152.91 211.56&#10;  Q 153.85 209.83 156.08 205.08&#10;  Q 156.57 204.03 157.48 203.75&#10;  Q 157.63 203.70 158.08 204.26&#10;  Q 156.39 209.26 153.38 213.56&#10;  A 0.54 0.53 35.6 0 1 152.63 213.68&#10;  Q 151.58 212.89 150.86 211.17&#10;  Q 149.06 206.89 147.88 202.47&#10;  Z"/>
<path fill="#e4334a" d="&#10;  M 168.45 207.63&#10;  L 162.55 206.55&#10;  A 1.12 1.03 6.4 0 0 161.23 207.52&#10;  L 161.23 207.80&#10;  A 1.48 1.48 0.0 0 0 162.45 209.26&#10;  L 167.40 210.18&#10;  A 0.64 0.63 -81.6 0 1 167.91 210.87&#10;  L 167.87 211.25&#10;  A 0.64 0.63 -81.2 0 1 167.12 211.81&#10;  L 162.19 210.89&#10;  A 0.89 0.89 0.0 0 0 161.14 211.77&#10;  L 161.14 212.93&#10;  A 1.14 1.13 -84.8 0 0 162.07 214.05&#10;  L 167.68 215.10&#10;  A 0.80 0.78 -84.8 0 1 168.32 215.88&#10;  L 168.32 216.30&#10;  A 0.35 0.35 0.0 0 1 167.91 216.65&#10;  L 160.26 215.22&#10;  A 0.71 0.71 0.0 0 1 159.68 214.50&#10;  L 159.98 204.68&#10;  L 167.90 206.01&#10;  A 0.67 0.67 0.0 0 1 168.46 206.67&#10;  L 168.45 207.63&#10;  Z"/>
<path fill="#232931" d="&#10;  M 57.21 212.10&#10;  A 0.44 0.44 0.0 0 0 56.36 211.92&#10;  L 55.38 214.90&#10;  A 0.83 0.83 0.0 0 1 53.77 214.76&#10;  Q 53.40 212.34 52.25 210.23&#10;  A 0.19 0.19 0.0 0 0 51.89 210.30&#10;  Q 51.69 212.19 52.14 214.02&#10;  A 0.44 0.44 0.0 0 1 51.66 214.56&#10;  L 51.00 214.49&#10;  A 0.53 0.53 0.0 0 1 50.53 213.90&#10;  L 51.25 207.32&#10;  A 0.63 0.63 0.0 0 1 52.46 207.17&#10;  L 54.50 212.66&#10;  A 0.35 0.35 0.0 0 0 55.17 212.61&#10;  Q 56.07 208.39 56.49 207.50&#10;  Q 56.71 207.04 56.99 206.93&#10;  A 0.99 0.85 77.9 0 1 58.15 207.82&#10;  Q 58.38 210.22 58.52 214.34&#10;  A 0.33 0.32 55.5 0 0 59.14 214.46&#10;  L 61.87 207.77&#10;  A 0.89 0.89 0.0 0 1 63.53 207.80&#10;  L 66.47 215.66&#10;  A 0.45 0.45 0.0 0 1 65.91 216.24&#10;  L 65.39 216.07&#10;  A 0.41 0.40 88.0 0 1 65.15 215.84&#10;  L 64.54 214.20&#10;  A 1.02 1.01 87.6 0 0 63.87 213.58&#10;  C 62.54 213.22 61.41 213.18 60.64 214.86&#10;  Q 59.99 216.29 57.54 215.31&#10;  A 0.94 0.93 14.5 0 1 56.96 214.34&#10;  L 57.21 212.10&#10;  Z&#10;  M 62.79 212.14&#10;  Q 63.32 212.13 63.56 211.74&#10;  A 0.43 0.43 0.0 0 0 63.62 211.48&#10;  Q 63.35 209.19 62.72 209.20&#10;  Q 62.08 209.22 61.93 211.52&#10;  A 0.43 0.43 0.0 0 0 62.00 211.78&#10;  Q 62.26 212.16 62.79 212.14&#10;  Z"/>
<path fill="#e4334a" d="&#10;  M 180.50 212.03&#10;  C 181.49 218.50 176.16 218.58 171.71 217.52&#10;  A 1.83 1.83 0.0 0 1 170.31 215.68&#10;  L 170.53 208.51&#10;  Q 170.50 207.63 170.78 207.13&#10;  A 0.82 0.82 0.0 0 1 171.62 206.70&#10;  C 175.31 207.21 179.58 208.14 180.50 212.03&#10;  Z&#10;  M 171.97 214.43&#10;  A 1.92 1.92 0.0 0 0 173.67 216.55&#10;  L 176.03 216.81&#10;  A 2.38 2.38 0.0 0 0 178.63 214.90&#10;  Q 179.68 209.54 173.50 208.71&#10;  A 0.88 0.88 0.0 0 0 172.51 209.49&#10;  L 171.97 214.43&#10;  Z"/>
<path fill="#232931" d="&#10;  M 67.31 208.63&#10;  A 1.13 1.13 0.0 0 1 68.44 207.49&#10;  L 70.40 207.48&#10;  A 4.17 3.97 89.7 0 1 74.39 211.63&#10;  L 74.39 212.53&#10;  A 4.17 3.97 89.7 0 1 70.44 216.72&#10;  L 68.48 216.73&#10;  A 1.13 1.13 0.0 0 1 67.35 215.61&#10;  L 67.31 208.63&#10;  Z&#10;  M 68.61 209.45&#10;  L 68.63 214.53&#10;  A 0.60 0.60 0.0 0 0 69.23 215.13&#10;  L 69.93 215.12&#10;  A 3.12 2.58 -0.2 0 0 73.04 212.53&#10;  L 73.04 211.41&#10;  A 3.12 2.58 -0.2 0 0 69.91 208.84&#10;  L 69.21 208.85&#10;  A 0.60 0.60 0.0 0 0 68.61 209.45&#10;  Z"/>
<path fill="#232931" d="&#10;  M 76.10 207.90&#10;  L 81.30 208.46&#10;  A 0.30 0.30 0.0 0 1 81.57 208.76&#10;  L 81.57 209.34&#10;  A 0.30 0.30 0.0 0 1 81.27 209.64&#10;  L 77.51 209.64&#10;  A 0.30 0.30 0.0 0 0 77.21 209.94&#10;  L 77.21 211.29&#10;  A 0.30 0.30 0.0 0 0 77.48 211.59&#10;  L 81.33 212.01&#10;  A 0.30 0.30 0.0 0 1 81.60 212.31&#10;  L 81.60 213.04&#10;  A 0.30 0.30 0.0 0 1 81.30 213.34&#10;  L 77.44 213.34&#10;  A 0.30 0.30 0.0 0 0 77.14 213.64&#10;  L 77.14 215.30&#10;  A 0.30 0.30 0.0 0 0 77.41 215.60&#10;  L 81.89 216.09&#10;  A 0.30 0.30 0.0 0 1 82.16 216.39&#10;  L 82.16 217.30&#10;  A 0.30 0.30 0.0 0 1 81.83 217.59&#10;  L 76.04 216.96&#10;  A 0.30 0.30 0.0 0 1 75.77 216.66&#10;  L 75.77 208.19&#10;  A 0.30 0.30 0.0 0 1 76.10 207.90&#10;  Z"/>
<path fill="#e6dee1" d="&#10;  M 68.61 209.45&#10;  A 0.60 0.60 0.0 0 1 69.21 208.85&#10;  L 69.91 208.84&#10;  A 3.12 2.58 -0.2 0 1 73.04 211.41&#10;  L 73.04 212.53&#10;  A 3.12 2.58 -0.2 0 1 69.93 215.12&#10;  L 69.23 215.13&#10;  A 0.60 0.60 0.0 0 1 68.63 214.53&#10;  L 68.61 209.45&#10;  Z"/>
<rect fill="#232931" x="-0.64" y="-4.65" transform="translate(88.02,213.46) rotate(-0.6)" width="1.28" height="9.30" rx="0.62"/>
<path fill="#e6dee1" d="&#10;  M 171.97 214.43&#10;  L 172.51 209.49&#10;  A 0.88 0.88 0.0 0 1 173.50 208.71&#10;  Q 179.68 209.54 178.63 214.90&#10;  A 2.38 2.38 0.0 0 1 176.03 216.81&#10;  L 173.67 216.55&#10;  A 1.92 1.92 0.0 0 1 171.97 214.43&#10;  Z"/>
<path fill="#232931" d="&#10;  M 91.94 212.24&#10;  L 91.94 217.85&#10;  A 0.50 0.49 -0.0 0 1 91.44 218.34&#10;  L 91.15 218.34&#10;  A 0.51 0.50 -0.6 0 1 90.64 217.85&#10;  Q 90.50 210.88 90.55 209.77&#10;  Q 90.56 209.36 90.77 209.24&#10;  A 1.03 0.96 58.1 0 1 92.11 209.60&#10;  Q 93.59 211.94 96.03 215.71&#10;  A 0.25 0.24 28.6 0 0 96.48 215.58&#10;  L 96.48 210.26&#10;  A 0.34 0.34 0.0 0 1 96.91 209.93&#10;  L 97.19 210.01&#10;  A 1.05 1.04 -82.4 0 1 97.95 211.02&#10;  L 97.95 218.50&#10;  A 0.71 0.70 27.1 0 1 96.67 218.91&#10;  Q 93.13 214.06 92.34 212.16&#10;  A 0.21 0.21 0.0 0 0 91.94 212.24&#10;  Z"/>
<path fill="#e6dee1" d="&#10;  M 62.72 209.20&#10;  Q 63.35 209.19 63.62 211.48&#10;  A 0.43 0.43 0.0 0 1 63.56 211.74&#10;  Q 63.32 212.13 62.79 212.14&#10;  Q 62.26 212.16 62.00 211.78&#10;  A 0.43 0.43 0.0 0 1 61.93 211.52&#10;  Q 62.08 209.22 62.72 209.20&#10;  Z"/>
<path fill="#232931" d="&#10;  M 111.21 217.72&#10;  C 110.39 221.19 106.37 220.96 104.52 218.88&#10;  Q 103.49 217.72 103.07 215.54&#10;  C 102.00 209.95 109.47 209.20 110.87 213.44&#10;  A 0.50 0.50 0.0 0 1 110.03 213.94&#10;  L 108.78 212.61&#10;  A 1.65 1.62 -14.8 0 0 107.92 212.12&#10;  C 103.18 211.12 102.73 219.30 108.29 218.89&#10;  A 1.25 1.25 0.0 0 0 109.17 218.43&#10;  L 110.16 217.20&#10;  A 0.60 0.60 0.0 0 1 111.21 217.72&#10;  Z"/>
<path fill="#232931" d="&#10;  M 114.29 211.90&#10;  L 114.29 215.04&#10;  A 0.30 0.30 0.0 0 0 114.56 215.34&#10;  L 118.60 215.78&#10;  A 0.30 0.30 0.0 0 0 118.93 215.49&#10;  L 118.93 212.80&#10;  A 0.30 0.30 0.0 0 1 119.23 212.50&#10;  L 120.24 212.50&#10;  A 0.30 0.30 0.0 0 1 120.54 212.80&#10;  L 120.54 221.41&#10;  A 0.30 0.30 0.0 0 1 120.21 221.71&#10;  L 119.32 221.61&#10;  A 0.30 0.30 0.0 0 1 119.05 221.31&#10;  L 119.05 217.66&#10;  A 0.30 0.30 0.0 0 0 118.78 217.36&#10;  L 114.66 216.91&#10;  A 0.30 0.30 0.0 0 0 114.33 217.20&#10;  L 114.33 220.58&#10;  A 0.30 0.30 0.0 0 1 114.00 220.87&#10;  L 113.05 220.77&#10;  A 0.30 0.30 0.0 0 1 112.78 220.47&#10;  L 112.78 211.90&#10;  A 0.30 0.30 0.0 0 1 113.08 211.60&#10;  L 113.99 211.60&#10;  A 0.30 0.30 0.0 0 1 114.29 211.90&#10;  Z"/>
<rect fill="#232931" x="-0.72" y="-4.66" transform="translate(123.46,217.53) rotate(0.2)" width="1.44" height="9.32" rx="0.69"/>
<path fill="#232931" d="&#10;  M 130.82 218.17&#10;  Q 132.22 220.37 132.51 220.73&#10;  A 0.21 0.21 0.0 0 0 132.88 220.60&#10;  L 132.88 214.88&#10;  A 0.45 0.44 0.0 0 1 133.33 214.44&#10;  L 133.68 214.44&#10;  A 0.54 0.54 0.0 0 1 134.22 214.98&#10;  L 134.22 222.87&#10;  A 0.79 0.79 0.0 0 1 132.79 223.33&#10;  Q 131.09 220.95 129.74 218.84&#10;  Q 128.34 216.64 128.06 216.28&#10;  A 0.21 0.21 0.0 0 0 127.68 216.41&#10;  L 127.68 222.13&#10;  A 0.45 0.44 -0.0 0 1 127.23 222.57&#10;  L 126.88 222.57&#10;  A 0.54 0.54 0.0 0 1 126.34 222.03&#10;  L 126.34 214.14&#10;  A 0.79 0.79 0.0 0 1 127.77 213.68&#10;  Q 129.47 216.05 130.82 218.17&#10;  Z"/>
<path fill="#232931" d="&#10;  M 143.06 224.36&#10;  Q 142.41 221.13 138.46 221.64&#10;  A 1.06 1.06 0.0 0 0 137.60 222.35&#10;  Q 137.35 223.11 136.56 223.76&#10;  A 0.59 0.59 0.0 0 1 135.64 223.08&#10;  L 138.67 215.65&#10;  A 1.23 1.23 0.0 0 1 140.96 215.68&#10;  L 144.23 224.45&#10;  A 0.16 0.16 0.0 0 1 144.13 224.66&#10;  L 143.82 224.78&#10;  A 0.58 0.57 73.8 0 1 143.06 224.36&#10;  Z&#10;  M 141.23 220.10&#10;  L 140.23 217.51&#10;  A 0.24 0.24 0.0 0 0 139.92 217.37&#10;  L 139.80 217.42&#10;  A 1.93 1.58 -21.2 0 0 138.57 219.59&#10;  L 138.61 219.68&#10;  A 1.93 1.58 -21.2 0 0 140.98 220.46&#10;  L 141.10 220.41&#10;  A 0.24 0.24 0.0 0 0 141.23 220.10&#10;  Z"/>
<path fill="#ebe7e9" d="&#10;  M 141.23 220.10&#10;  A 0.24 0.24 0.0 0 1 141.10 220.41&#10;  L 140.98 220.46&#10;  A 1.93 1.58 -21.2 0 1 138.61 219.68&#10;  L 138.57 219.59&#10;  A 1.93 1.58 -21.2 0 1 139.80 217.42&#10;  L 139.92 217.37&#10;  A 0.24 0.24 0.0 0 1 140.23 217.51&#10;  L 141.23 220.10&#10;  Z"/>
<path fill="#c8babc" d="&#10;  M 328.16 240.62&#10;  A 171.03 170.55 75.2 0 1 308.07 275.20&#10;  Q 285.65 286.96 261.64 293.77&#10;  Q 242.14 299.30 212.57 303.59&#10;  Q 171.10 309.61 130.20 307.32&#10;  Q 110.73 306.22 94.29 303.27&#10;  C 75.06 299.81 58.87 293.23 44.02 282.00&#10;  Q 38.98 278.20 33.92 274.31&#10;  A 170.74 170.21 14.4 0 1 16.36 244.76&#10;  C 27.41 255.11 39.07 265.34 52.09 272.72&#10;  C 71.55 283.75 92.86 286.86 114.95 289.36&#10;  Q 160.98 294.58 203.62 288.61&#10;  C 239.21 283.62 273.60 276.42 304.15 256.96&#10;  Q 314.95 250.08 328.16 240.62&#10;  Z"/>
<path fill="#baa7a7" d="&#10;  M 308.07 275.20&#10;  A 171.45 171.33 -1.4 0 1 280.53 304.15&#10;  Q 246.15 313.80 213.20 318.17&#10;  Q 191.22 321.08 165.63 322.08&#10;  C 144.93 322.88 125.74 322.98 108.10 319.95&#10;  Q 88.00 316.50 65.26 306.69&#10;  A 171.21 171.17 0.9 0 1 33.92 274.31&#10;  Q 38.98 278.20 44.02 282.00&#10;  C 58.87 293.23 75.06 299.81 94.29 303.27&#10;  Q 110.73 306.22 130.20 307.32&#10;  Q 171.10 309.61 212.57 303.59&#10;  Q 242.14 299.30 261.64 293.77&#10;  Q 285.65 286.96 308.07 275.20&#10;  Z"/>
<path fill="#a48b89" d="&#10;  M 280.53 304.15&#10;  A 171.19 171.03 13.7 0 1 237.41 330.29&#10;  Q 195.54 337.53 153.37 337.33&#10;  Q 143.91 337.28 121.50 336.15&#10;  A 171.08 170.81 71.0 0 1 73.03 312.48&#10;  A 68.52 28.53 36.7 0 1 65.26 306.69&#10;  Q 88.00 316.50 108.10 319.95&#10;  C 125.74 322.98 144.93 322.88 165.63 322.08&#10;  Q 191.22 321.08 213.20 318.17&#10;  Q 246.15 313.80 280.53 304.15&#10;  Z"/>
<path fill="#8d6f6c" d="&#10;  M 237.41 330.29&#10;  A 171.00 170.91 -58.1 0 1 182.01 343.24&#10;  A 170.92 170.34 45.7 0 1 155.99 342.89&#10;  A 171.32 171.06 56.0 0 1 121.50 336.15&#10;  Q 143.91 337.28 153.37 337.33&#10;  Q 195.54 337.53 237.41 330.29&#10;  Z"/>
</svg>