<svg xmlns="http://www.w3.org/2000/svg" version="1.1" viewBox="0 0 394 368" width="394" height="368"><g stroke-width="2" fill="none" stroke-linecap="butt"><path stroke="#8d91a0" vector-effect="non-scaling-stroke" d="M 350.98 122.87 Q 348.15 120.95 345.24 119.16 C 339.14 115.41 332.27 113.56 325.13 112.17 A 1.52 1.50 23.7 0 0 323.65 112.74 L 322.91 113.74 A 0.90 0.89 -65.7 0 1 322.02 114.08 L 314.32 112.61" data-c-stroke="8d91a0"/><path stroke="#404181" vector-effect="non-scaling-stroke" d="M 314.32 112.61 Q 312.18 112.00 308.74 111.67 C 300.10 110.86 292.00 110.56 283.44 111.42 C 276.48 112.12 270.05 112.27 263.74 113.43 Q 256.55 114.75 252.87 115.06 A 0.39 0.39 0.0 0 0 252.60 115.69 Q 253.09 116.28 254.03 116.25 Q 256.82 116.16 262.20 115.17 Q 266.54 114.37 270.36 114.06 Q 284.62 112.88 291.50 112.38 Q 300.17 111.73 314.48 113.96" data-c-stroke="404181"/><path stroke="#8d91a0" vector-effect="non-scaling-stroke" d="M 314.48 113.96 L 321.09 115.32 A 0.60 0.60 0.0 0 1 321.45 116.27 L 319.17 119.31 A 0.71 0.71 0.0 0 0 319.63 120.44 Q 328.10 121.82 335.94 124.85 A 0.69 0.68 28.8 0 0 336.74 124.62 L 341.10 118.80 A 0.41 0.41 0.0 0 1 341.63 118.69 C 344.61 120.41 349.29 122.90 350.68 125.53 A 1.85 1.82 32.2 0 1 350.89 126.42 L 350.65 134.40" data-c-stroke="8d91a0"/><path stroke="#404181" vector-effect="non-scaling-stroke" d="M 350.65 134.40 Q 350.50 136.22 349.62 137.23 A 0.58 0.58 0.0 0 1 348.80 137.29 Q 348.52 137.04 348.41 136.55 C 348.32 136.17 344.01 133.56 341.31 131.71 Q 337.66 129.20 331.50 127.95 A 0.13 0.12 -64.7 0 0 331.37 128.00 L 331.20 128.22 A 0.28 0.27 27.2 0 0 331.34 128.64 C 338.02 130.87 344.04 133.72 348.47 139.49 A 1.06 1.06 0.0 0 1 348.48 140.76 L 347.16 142.51 A 0.59 0.58 44.0 0 1 346.23 142.52 C 341.15 136.26 332.90 132.98 325.32 131.57 Q 319.06 130.40 309.22 130.23 Q 288.04 129.84 270.15 135.05" data-c-stroke="404181"/><path stroke="#8d91a0" vector-effect="non-scaling-stroke" d="M 270.15 135.05 Q 261.22 123.78 250.07 115.92 C 224.93 98.22 192.65 94.20 163.77 104.68 Q 141.04 112.92 125.17 131.19 Q 107.62 151.39 103.88 179.07" data-c-stroke="8d91a0"/><path stroke="#404181" vector-effect="non-scaling-stroke" d="M103.88 179.07Q101.35 178.57 98.74 180.76 97.55 181.76 96.08 182.65 91.52 185.41 86.47 188.16A2.7 2.6-79.7 0 0 85.97 188.52Q83.96 190.35 81.62 191.78C78.03 193.97 74.78 196.5 72 198.86A2.62 2.62 0 0 1 71.1 199.36Q70.81 199.45 70.8 199.45A4.95 4.94 11.4 0 0 69.94 200.02L54.97 212.44Q54.93 212.48 54.89 212.52L41.16 226.61M41.58 216.32Q44.67 215.31 46.97 213.48 56.26 206.08 69.21 194.78C70.27 193.85 71.18 192.64 72.01 191.44A.45.45 0 0 0 71.4 190.81C67.61 193.31 61.63 196.85 57.27 200.89Q53.15 204.71 47.05 209.23C45.11 210.68 43.13 212.86 41.32 214.71" data-c-stroke="404181"/><path stroke="#aba9dc" vector-effect="non-scaling-stroke" d="M 351.20 199.16 Q 349.95 201.44 349.48 201.98 Q 346.74 205.14 338.12 213.11 Q 332.77 218.05 315.05 231.15 A 0.99 0.98 -44.8 0 0 315.04 232.73 L 317.08 234.26 A 1.35 1.34 -44.8 0 0 318.69 234.26 Q 333.81 223.13 349.27 209.13 Q 349.67 208.76 350.16 208.97" data-c-stroke="aba9dc"/><path stroke="#404181" vector-effect="non-scaling-stroke" d="M 350.82 221.23 Q 348.66 223.15 346.67 225.15 C 337.66 234.23 326.82 242.20 316.03 249.10 C 314.28 250.22 312.39 250.86 310.98 251.33 A 2.47 2.41 14.3 0 0 310.11 251.83 Q 310.10 251.84 304.67 255.44 Q 302.26 257.04 298.99 258.68 Q 292.53 261.91 286.56 265.04 Q 280.34 268.30 276.50 273.08" data-c-stroke="404181"/><path stroke="#aba9dc" vector-effect="non-scaling-stroke" d="M 276.50 273.08 Q 251.64 284.94 229.30 292.53 Q 208.47 299.59 182.90 305.71 A 0.31 0.30 -30.6 0 0 182.76 306.23 L 186.03 309.19" data-c-stroke="aba9dc"/><path stroke="#404181" vector-effect="non-scaling-stroke" d="M186.03 309.19Q184.74 309.74 181.05 310.54 138.17 319.82 95.89 319.5M103.47 183.24C98.51 185.51 93.24 187.79 89.12 191.04 84.54 194.65 80.14 196.92 75.76 200.82Q71.36 204.74 65.9 208.93A2.11 2.09-7.5 0 0 65.21 209.82C62.38 216.54 58.25 222.89 55.66 229.07Q53.53 234.17 56.35 238.53A.42.41-43 0 0 57.03 238.55Q58.7 236.32 58.91 235.57A1.92 1.81 74.8 0 1 59.26 234.91Q65.95 226.67 67.73 224.48 71.87 219.38 81.35 211.98" data-c-stroke="404181"/><path stroke="#9796d5" vector-effect="non-scaling-stroke" d="M 81.35 211.98 Q 81.77 212.56 82.59 212.56" data-c-stroke="9796d5"/><path stroke="#404181" vector-effect="non-scaling-stroke" d="M 82.59 212.56 Q 76.52 217.52 71.34 223.35 Q 70.59 224.20 70.36 224.31 A 1.85 1.79 4.9 0 0 69.71 224.84 L 59.80 238.06 A 1.14 1.08 66.0 0 0 59.59 238.65 Q 59.51 239.71 58.53 240.44 A 0.46 0.45 -25.3 0 0 58.36 240.91 Q 58.38 240.98 58.38 241.07 A 1.39 1.35 -30.1 0 1 58.18 241.78 Q 55.91 245.50 55.54 247.08 Q 55.11 248.86 54.48 253.76 A 2.87 2.81 42.0 0 0 54.55 254.89 Q 56.05 260.85 61.17 264.34" data-c-stroke="404181"/><path stroke="#aba9dc" vector-effect="non-scaling-stroke" d="M 61.17 264.34 L 60.63 268.06 A 1.80 1.79 -55.2 0 0 60.83 269.19 Q 63.10 273.31 68.29 273.88 A 1.11 0.98 -21.9 0 1 68.74 274.04 Q 69.35 274.43 69.70 274.29 Q 71.44 273.57 73.21 271.98 A 0.79 0.79 0.0 0 1 74.00 271.83 Q 83.53 275.42 93.74 275.64" data-c-stroke="aba9dc"/><path stroke="#404181" vector-effect="non-scaling-stroke" d="M 93.74 275.64 Q 97.20 276.57 103.92 277.63 Q 111.44 278.80 117.23 275.58 A 0.98 0.94 -87.9 0 0 117.57 275.25 L 120.38 270.53 A 1.38 1.37 12.7 0 1 121.45 269.86 L 144.42 268.00" data-c-stroke="404181"/><path stroke="#aba9dc" vector-effect="non-scaling-stroke" d="M177.83 281.28 153.64 286.09A.21.2 4.6 0 0 153.48 286.22L152.59 289.04A.28.28 0 0 0 152.9 289.4Q164.67 287.84 178.71 284.7 180.51 284.3 180.29 282.2M252.88 263.42Q264.6 257.12 276.57 251.06 285.15 246.71 303.28 235.18A1.54 1.54 0 0 0 303.63 232.9L301.1 229.85A1.88 1.88 0 0 0 298.69 229.44C293.1 232.77 288.48 236.1 282.93 239.17Q277.73 242.04 272.24 244.99" data-c-stroke="aba9dc"/><path stroke="#404181" vector-effect="non-scaling-stroke" d="M281.15 230.09Q284.56 230.58 286.34 228.19A.58.58 0 0 0 286.28 227.42Q284.62 225.81 283.14 225.66M284.74 220.46Q284.99 220.42 285.08 220.65A.19.19 0 0 0 285.36 220.74C289.76 217.89 294.82 214.79 299.41 211.24Q304.83 207.05 309.67 203.72A5.36 4.96 2.3 0 0 310.49 203.02C312.96 200.44 316.17 198.37 318.66 195.56 320.48 193.51 322.84 192.81 325.48 192.78" data-c-stroke="404181"/><path stroke="#aba9dc" vector-effect="non-scaling-stroke" d="M 325.48 192.78 Q 325.92 193.67 326.54 193.70 A 0.35 0.35 0.0 0 0 326.80 193.61 Q 334.51 186.87 339.53 178.57 A 1.33 1.30 -82.9 0 1 340.22 178.02 L 343.71 176.83 A 1.58 1.57 60.9 0 0 344.42 174.33 L 342.87 172.46 A 1.26 1.24 32.3 0 1 342.61 171.36 L 344.41 163.81 A 1.08 0.95 -22.8 0 1 344.60 163.42 Q 344.86 163.07 345.40 162.75 A 1.73 1.68 84.2 0 0 346.17 161.78 L 348.84 153.34 A 0.31 0.30 20.1 0 0 348.66 152.97 Q 348.07 152.73 347.85 153.60 Q 347.61 154.52 347.14 155.07 A 1.26 1.23 -21.4 0 0 346.85 155.71 Q 346.29 159.29 345.09 161.75 Q 344.85 162.24 344.31 162.31 Q 343.80 162.38 343.81 161.86 Q 343.85 154.47 339.93 148.04" data-c-stroke="aba9dc"/><path stroke="#404181" vector-effect="non-scaling-stroke" d="M 339.93 148.04 Q 339.87 146.18 337.36 144.38 C 331.13 139.91 324.94 137.80 316.99 136.82 Q 300.16 134.73 282.49 136.88 Q 277.76 137.46 274.44 137.75 A 1.72 1.69 56.0 0 1 273.51 137.56 L 271.17 136.31" data-c-stroke="404181"/><path stroke="#aba9dc" vector-effect="non-scaling-stroke" d="M351.09 151.28Q351.06 151.24 351.04 151.2A.35.28-65.3 0 1 351 151.04Q350.84 146.65 350.77 142.26 350.75 141.07 351.61 140.92M351.47 137.36Q350.69 136.35 350.65 134.4M314.32 112.61Q313.83 113.41 314.48 113.96M270.15 135.05 271.17 136.31" data-c-stroke="aba9dc"/><path stroke="#8d91a0" vector-effect="non-scaling-stroke" d="M 271.17 136.31 Q 293.32 167.09 288.49 204.74 Q 287.52 212.34 285.07 219.57" data-c-stroke="8d91a0"/><path stroke="#e5e6f4" vector-effect="non-scaling-stroke" d="M 285.07 219.57 C 284.56 219.03 283.97 218.25 283.87 217.54 A 0.13 0.12 -37.5 0 0 283.63 217.51 L 282.16 220.86 A 0.56 0.56 0.0 0 1 281.48 221.17 L 281.15 221.06 A 0.37 0.37 0.0 0 1 280.93 220.53 Q 281.87 218.76 281.88 217.35 A 0.78 0.77 -9.5 0 1 282.41 216.62 L 284.76 215.82 A 0.40 0.40 0.0 0 0 284.60 215.04 L 282.56 215.19 A 0.52 0.52 0.0 0 1 282.41 214.16 L 284.68 213.66 A 0.28 0.27 50.7 0 0 284.73 213.14 Q 284.63 213.08 282.50 213.16 A 0.30 0.29 87.0 0 1 282.20 212.88 L 282.17 212.49 A 0.37 0.36 85.3 0 1 282.50 212.09 L 284.64 211.93 A 0.26 0.26 0.0 0 0 284.70 211.42 L 283.35 210.99 A 0.31 0.31 0.0 0 1 283.35 210.40 L 284.60 209.97 A 0.48 0.48 0.0 0 0 284.64 209.07 L 283.89 208.74 A 0.43 0.43 0.0 0 1 283.89 207.95 Q 284.33 207.76 285.13 207.93 A 0.44 0.44 0.0 0 0 285.65 207.48 Q 285.54 205.76 284.33 204.80 A 0.40 0.39 -27.9 0 1 284.55 204.10 L 286.45 203.95 A 0.33 0.33 0.0 0 0 286.70 203.45 Q 285.44 201.41 285.91 199.83 A 0.48 0.48 0.0 0 0 285.59 199.23 Q 284.87 199.00 284.92 198.51 Q 285.44 192.88 285.22 185.52 Q 285.18 184.11 283.98 181.38 A 0.31 0.31 0.0 0 1 284.11 180.98 Q 284.17 180.95 284.41 180.96 A 0.49 0.49 0.0 0 0 284.92 180.54 Q 285.06 179.39 284.40 178.94 A 1.33 1.31 13.6 0 1 283.84 178.04 Q 282.21 166.81 279.98 160.14 Q 279.38 158.35 276.21 154.46 A 0.32 0.32 0.0 0 1 276.22 154.05 L 276.23 154.04 A 0.35 0.31 -45.7 0 1 276.71 154.01 L 278.63 156.07 A 0.03 0.02 58.3 0 0 278.65 156.08 L 278.94 155.91 A 0.31 0.31 0.0 0 0 279.01 155.42 L 276.21 152.50 A 0.28 0.25 29.1 0 1 276.14 152.30 Q 276.16 152.05 276.51 151.96 A 0.54 0.53 -10.0 0 0 276.90 151.41 L 276.84 150.69 A 0.35 0.35 0.0 0 0 276.16 150.62 Q 276.10 150.83 275.94 151.52 A 0.42 0.42 0.0 0 1 275.18 151.66 Q 275.02 151.42 274.45 149.45 A 0.03 0.02 31.7 0 1 274.44 149.43 Q 270.85 140.12 265.30 133.22 Q 255.55 121.10 242.46 114.07 A 0.33 0.32 12.6 0 0 241.98 114.37 Q 243.04 131.47 242.71 140.22 Q 242.14 155.81 235.61 171.90 A 2.32 2.30 -4.6 0 1 234.65 173.02 Q 234.09 173.35 234.91 174.30 A 0.43 0.42 -14.5 0 1 234.50 174.99 Q 232.15 174.51 228.98 175.35 Q 222.66 177.02 218.09 181.84 Q 217.68 182.27 216.54 185.02 A 1.32 1.31 44.7 0 0 216.55 186.04 C 217.18 187.50 216.55 188.89 217.84 190.44 Q 221.81 195.21 228.12 195.18 C 229.50 195.18 230.56 194.63 231.59 194.72 A 0.32 0.32 0.0 0 1 231.79 195.26 Q 204.45 223.48 165.52 233.21 C 152.59 236.45 140.86 239.06 129.55 244.29 A 0.35 0.35 0.0 0 0 129.47 244.87 Q 133.25 248.06 134.18 248.84 Q 134.49 249.10 134.84 249.09 Q 135.56 249.07 135.73 249.18 A 0.26 0.25 -30.0 0 1 135.60 249.65 Q 134.48 249.73 134.18 249.43 A 0.92 0.92 0.0 0 0 133.31 249.20 Q 131.86 249.61 131.85 248.63 A 0.46 0.46 0.0 0 0 131.24 248.20 L 129.70 248.72 A 0.90 0.88 -36.1 0 1 128.89 248.60 Q 127.90 247.90 127.76 247.28 A 0.37 0.37 0.0 0 1 128.35 246.91 L 129.63 247.86 A 0.15 0.15 0.0 0 0 129.84 247.83 L 130.05 247.55 A 0.29 0.29 0.0 0 0 129.98 247.14 Q 126.44 244.64 125.09 240.65 A 0.40 0.38 -6.0 0 0 124.77 240.40 Q 124.50 240.36 124.34 240.48 A 0.34 0.33 67.5 0 0 124.21 240.80 Q 124.45 242.17 124.08 243.53 A 1.06 1.06 0.0 0 0 124.20 244.34 L 128.12 250.81 A 0.98 0.93 -88.6 0 0 128.31 251.02 C 131.73 253.60 136.41 258.40 137.43 263.14" data-c-stroke="e5e6f4"/><path stroke="#8d91a0" vector-effect="non-scaling-stroke" d="M 137.43 263.14 Q 113.02 243.70 105.52 213.16" data-c-stroke="8d91a0"/><path stroke="#aba9dc" vector-effect="non-scaling-stroke" d="M 105.52 213.16 L 104.58 208.49" data-c-stroke="aba9dc"/><path stroke="#8d91a0" vector-effect="non-scaling-stroke" d="M 104.58 208.49 Q 102.40 195.96 103.47 183.24" data-c-stroke="8d91a0"/><path stroke="#aba9dc" vector-effect="non-scaling-stroke" d="M 103.47 183.24 L 103.88 179.07" data-c-stroke="aba9dc"/><path stroke="#8d91a0" vector-effect="non-scaling-stroke" d="M 339.93 148.04 Q 338.87 146.92 338.02 146.97 A 0.57 0.56 68.6 0 0 337.62 147.89 Q 340.81 151.82 342.02 155.89 Q 342.41 157.21 342.95 163.70 A 3.81 3.74 50.2 0 1 342.85 164.92 L 341.36 171.07 A 1.12 1.12 0.0 0 1 340.07 171.91 Q 337.30 171.39 336.06 173.85 A 1.70 1.69 55.4 0 0 335.89 174.78 Q 336.03 176.00 338.01 177.43 A 0.38 0.38 0.0 0 1 338.11 177.94 Q 332.81 186.11 325.48 192.78" data-c-stroke="8d91a0"/><path stroke="#404181" vector-effect="non-scaling-stroke" d="M 104.58 208.49 Q 104.71 211.12 103.14 212.21 Q 101.36 213.45 101.15 213.64 Q 99.96 214.74 98.58 215.84 Q 88.78 223.63 81.87 233.78 A 0.26 0.25 12.8 0 0 82.12 234.17 Q 83.90 233.91 84.94 232.39 Q 89.41 225.86 94.97 221.45 A 3.47 3.37 -2.1 0 0 95.63 220.76 Q 97.77 217.88 100.23 217.29 A 1.35 1.33 -80.7 0 0 101.05 216.69 Q 101.71 215.58 103.48 215.23 A 0.91 0.89 2.0 0 0 104.17 214.60 Q 104.53 213.39 105.52 213.16" data-c-stroke="404181"/><path stroke="#8d91a0" vector-effect="non-scaling-stroke" d="M 93.74 275.64 L 75.36 270.87 A 0.91 0.91 0.0 0 1 74.76 269.62 Q 75.69 267.54 74.49 265.24 Q 72.97 262.31 69.49 260.55 A 1.66 1.65 -32.5 0 0 68.66 260.37 Q 63.82 260.67 61.17 264.34" data-c-stroke="8d91a0"/><path stroke="#7a7d98" vector-effect="non-scaling-stroke" d="M 82.59 212.56 Q 84.38 212.02 84.64 210.32" data-c-stroke="7a7d98"/><path stroke="#404181" vector-effect="non-scaling-stroke" d="M 84.64 210.32 C 87.12 209.69 87.72 208.13 89.55 207.07 Q 92.14 205.58 92.15 205.57 Q 101.22 198.99 101.30 198.93 A 1.71 1.71 0.0 0 0 101.89 197.16 L 101.86 197.05 A 0.80 0.78 64.3 0 0 100.63 196.60 L 82.97 209.91" data-c-stroke="404181"/><path stroke="#7a7d98" vector-effect="non-scaling-stroke" d="M82.97 209.91Q81.54 210.05 81.35 211.98M285.07 219.57Q284.94 220.15 284.74 220.46" data-c-stroke="7a7d98"/><path stroke="#9796d5" vector-effect="non-scaling-stroke" d="M 284.74 220.46 L 284.55 220.94 A 1.21 1.21 0.0 0 1 284.16 221.47 Q 279.55 225.07 274.30 227.35 A 0.32 0.31 69.5 0 0 274.13 227.75 L 274.32 228.33 A 0.28 0.28 0.0 0 0 274.71 228.48 L 279.61 225.81 A 0.37 0.34 2.4 0 0 279.74 225.70 Q 280.57 224.50 282.24 224.70 Q 283.09 224.79 283.14 225.66" data-c-stroke="9796d5"/><path stroke="#7a7d98" vector-effect="non-scaling-stroke" d="M 283.14 225.66 L 281.15 230.09" data-c-stroke="7a7d98"/><path stroke="#9796d5" vector-effect="non-scaling-stroke" d="M 281.15 230.09 L 272.24 244.99" data-c-stroke="9796d5"/><path stroke="#e5e6f4" vector-effect="non-scaling-stroke" d="M 272.24 244.99 Q 269.65 245.50 267.96 246.56 Q 260.11 251.47 253.64 254.28 C 251.05 255.41 247.59 256.34 245.31 254.24 Q 242.24 251.41 237.88 253.89 A 0.87 0.80 -65.8 0 1 237.67 253.98 L 205.22 265.00 A 1.55 0.16 -3.5 0 1 204.24 265.16 Q 203.37 265.24 202.19 265.62 Q 192.82 268.64 180.68 271.39 Q 176.95 272.24 178.10 276.14 A 1.17 1.16 4.0 0 0 178.76 276.89 Q 181.37 278.05 184.78 276.97 Q 188.20 275.89 194.96 274.64 C 202.47 273.24 209.70 269.93 216.35 268.21 C 224.17 266.18 230.98 263.23 239.54 260.28 Q 243.28 259.00 245.60 258.47 A 1.90 1.87 47.5 0 1 246.59 258.52 Q 247.59 258.86 248.49 262.20 A 1.01 1.00 66.3 0 0 249.99 262.79 Q 251.61 261.77 252.88 263.42" data-c-stroke="e5e6f4"/><path stroke="#9796d5" vector-effect="non-scaling-stroke" d="M 252.88 263.42 Q 227.01 281.80 195.58 282.98 Q 192.18 283.11 187.93 282.80 Q 184.11 282.53 180.29 282.20" data-c-stroke="9796d5"/><path stroke="#e5e6f4" vector-effect="non-scaling-stroke" d="M 180.29 282.20 Q 178.79 281.95 177.83 281.28" data-c-stroke="e5e6f4"/><path stroke="#9796d5" vector-effect="non-scaling-stroke" d="M 177.83 281.28 Q 164.55 278.43 153.47 272.92 A 0.46 0.46 0.0 0 1 153.59 272.06 C 159.46 271.02 164.05 270.54 169.37 269.33 Q 175.02 268.03 186.86 265.59 Q 191.77 264.57 207.18 259.89 A 1.93 1.93 0.0 0 0 208.44 257.41 L 208.40 257.30 A 2.13 2.12 -16.8 0 0 205.85 255.94 Q 186.67 261.00 172.72 263.91 Q 165.51 265.41 150.16 267.68 Q 148.66 267.90 147.28 267.93 Q 145.74 267.96 144.42 268.00" data-c-stroke="9796d5"/><path stroke="#7a7d98" vector-effect="non-scaling-stroke" d="M 144.42 268.00 L 137.43 263.14" data-c-stroke="7a7d98"/><path stroke="#404181" vector-effect="non-scaling-stroke" d="M 347.21 248.96 Q 346.10 249.68 344.72 250.80 Q 343.24 252.00 342.26 252.66 Q 327.49 262.61 312.51 271.25 Q 293.45 282.24 272.70 290.91 A 0.39 0.39 0.0 0 0 272.62 291.58 L 272.96 291.84 A 1.22 1.20 -38.5 0 0 274.19 291.97 Q 296.25 281.79 310.52 274.25 Q 316.36 271.16 328.36 264.54 Q 332.30 262.37 334.38 261.02 C 337.37 259.07 340.30 257.48 343.08 255.45 Q 344.45 254.45 345.93 253.66" data-c-stroke="404181"/><path stroke="#8d91a0" vector-effect="non-scaling-stroke" d="M 186.03 309.19 Q 233.17 298.27 277.49 276.38 A 0.82 0.81 61.2 0 0 277.82 275.23 L 276.50 273.08" data-c-stroke="8d91a0"/><path stroke="#9796d5" vector-effect="non-scaling-stroke" d="M 84.64 210.32 Q 83.86 209.04 82.97 209.91" data-c-stroke="9796d5"/><path stroke="#404181" vector-effect="non-scaling-stroke" d="M 152.6974 94.2544 A 1.22 0.99 -170.3 0 0 153.7332 95.4358 A 1.22 0.99 -170.3 0 0 155.1026 94.6656 A 1.22 0.99 -170.3 0 0 154.0668 93.4842 A 1.22 0.99 -170.3 0 0 152.6974 94.2544" data-c-stroke="404181"/><path stroke="#8d91a0" vector-effect="non-scaling-stroke" d="M210.9902 146.7262A16.97 13.4-87.5 0 0 196.8628 163.0955 16.97 13.4-87.5 0 0 209.5098 180.6338 16.97 13.4-87.5 0 0 223.6372 164.2645 16.97 13.4-87.5 0 0 210.9902 146.7262M140.8724 155.6196A16.09 10.96-85.5 0 0 128.6838 170.8001 16.09 10.96-85.5 0 0 138.3476 187.7004 16.09 10.96-85.5 0 0 150.5362 172.5199 16.09 10.96-85.5 0 0 140.8724 155.6196M159.5 186.34A3.91 3.9-33.8 0 0 158.54 191.14Q162.15 198.1 169.53 199.48C179.01 201.25 187.17 196.34 190.91 187.45A3.54 3.53-64 0 0 189.38 182.99L189.19 182.89A3.1 3.09-63.9 0 0 184.84 184.38Q181.42 192.33 174.99 193.04 167.85 193.83 163.72 186.87A2.68 2.67-35.2 0 0 159.7 186.18L159.5 186.34" data-c-stroke="8d91a0"/><path stroke="#e5e6f4" vector-effect="non-scaling-stroke" d="M 129.88 203.88 Q 130.51 204.29 131.48 203.72 Q 135.80 201.17 137.41 197.98 A 1.75 1.73 55.9 0 0 137.58 197.07 C 137.41 195.08 137.74 191.94 135.07 190.75 A 3.04 2.96 -11.1 0 1 134.26 190.22 C 130.97 187.21 126.09 187.42 121.66 188.10 A 0.91 0.89 2.3 0 0 120.91 188.78 Q 120.76 189.42 121.75 190.31 A 0.17 0.16 41.2 0 1 121.77 190.54 Q 121.63 190.73 121.53 190.78 A 0.33 0.33 0.0 0 1 121.07 190.60 Q 120.73 189.74 120.11 189.28 A 0.69 0.68 42.2 0 0 119.23 189.32 Q 117.87 190.58 117.63 191.45 A 0.65 0.64 5.7 0 1 117.05 191.92 L 116.51 191.97 A 0.85 0.85 0.0 0 0 115.72 192.87 Q 115.78 193.97 115.75 195.33 Q 115.75 195.63 115.72 195.65 Q 115.53 195.73 115.45 195.80 A 0.78 0.78 0.0 0 0 115.26 196.50 Q 116.62 202.26 122.54 204.41 A 1.16 1.10 -32.6 0 0 122.96 204.49 L 128.29 204.61 A 0.95 0.94 19.2 0 0 129.06 204.24 L 129.25 203.99 A 0.47 0.46 34.8 0 1 129.88 203.88" data-c-stroke="e5e6f4"/><path stroke="#9796d5" vector-effect="non-scaling-stroke" d="M 40.68 238.45 Q 40.96 238.24 41.30 238.58 A 0.17 0.15 37.4 0 1 41.33 238.75 L 35.66 251.69 A 0.76 0.75 16.9 0 0 36.22 252.73 Q 37.55 252.97 38.26 254.19 C 39.84 256.95 36.71 258.39 34.56 258.80 A 0.46 0.46 0.0 0 0 34.23 259.46 Q 34.93 260.83 35.16 266.68 C 35.62 278.27 42.29 287.07 52.77 292.10 Q 60.56 295.84 68.18 298.62 Q 69.88 299.24 71.26 300.02 A 0.27 0.27 0.0 0 0 71.60 299.61 L 61.32 287.22 A 0.46 0.45 81.8 0 1 61.85 286.51 C 65.43 288.07 68.12 289.07 71.48 289.82 Q 92.74 294.55 114.40 292.75 A 0.40 0.40 0.0 0 0 114.70 292.13 Q 114.40 291.66 113.49 291.73 Q 98.35 292.84 82.02 290.67 Q 75.77 289.84 70.39 288.33 Q 64.53 286.68 60.43 284.53 A 2.58 2.51 -4.9 0 1 59.66 283.90 Q 57.63 281.41 56.97 280.29 Q 47.01 263.48 43.42 244.78 Q 42.65 240.77 41.98 236.68" data-c-stroke="9796d5"/><path stroke="#aba9dc" vector-effect="non-scaling-stroke" d="M 41.98 236.68 Q 42.14 234.24 41.47 231.87 A 0.35 0.34 58.2 0 0 40.88 231.73 Q 30.45 243.26 24.26 256.25 Q 21.92 261.17 20.82 266.34 C 17.00 284.36 31.45 295.70 46.60 300.38 Q 57.68 303.81 69.92 304.96 C 72.60 305.21 75.67 306.25 77.91 305.93 A 0.20 0.20 0.0 0 0 78.02 305.59 L 74.02 301.59 A 0.79 0.79 0.0 0 0 73.24 301.39 Q 71.90 301.77 70.64 301.35 Q 59.84 297.70 51.37 293.38 Q 37.39 286.25 34.11 270.95 Q 33.62 268.66 33.66 260.42 A 2.65 2.56 33.1 0 0 33.40 259.29 Q 33.03 258.55 32.31 257.61 A 3.12 3.09 48.4 0 1 32.53 253.57 Q 35.23 250.75 36.27 247.19 A 4.41 4.38 66.6 0 1 36.52 246.55 L 40.68 238.45" data-c-stroke="aba9dc"/><path stroke="#e5e6f4" vector-effect="non-scaling-stroke" d="M 41.98 236.68 Q 41.03 237.45 40.68 238.45" data-c-stroke="e5e6f4"/><path stroke="#aba9dc" vector-effect="non-scaling-stroke" d="M 119.89 292.58 L 145.23 290.60 A 1.95 1.94 -88.7 0 0 147.01 288.89 L 147.36 285.88 A 0.85 0.84 1.1 0 0 146.45 284.94 L 122.53 286.80 A 2.04 2.04 0.0 0 0 120.83 288.01 L 119.24 291.65 A 0.66 0.66 0.0 0 0 119.89 292.58" data-c-stroke="aba9dc"/><path stroke="#8d91a0" vector-effect="non-scaling-stroke" d="M 320.07 154.01 Q 322.06 151.31 319.78 148.47 Q 316.32 144.16 312.04 147.50 A 1.76 1.74 -50.2 0 1 310.18 147.68 Q 304.50 144.78 297.43 144.26 A 0.75 0.74 6.8 0 0 296.64 144.88 L 296.63 144.95 A 0.63 0.63 0.0 0 0 297.20 145.68 Q 303.66 146.30 309.59 148.92 A 1.16 1.16 0.0 0 1 310.18 150.45 Q 309.40 152.21 310.67 154.09 Q 313.62 158.43 318.16 155.90 A 0.68 0.67 -35.3 0 1 319.00 156.04 Q 324.05 161.81 322.16 168.93 A 0.43 0.43 0.0 0 0 322.85 169.38 Q 323.76 168.64 323.96 167.23 Q 324.89 160.78 320.12 155.26 A 1.01 1.00 -47.6 0 1 320.07 154.01" data-c-stroke="8d91a0"/><path stroke="#404181" vector-effect="non-scaling-stroke" d="M 283.19 154.60 A 0.13 0.10 65.2 0 0 283.28 154.65 Q 290.51 154.47 297.49 155.51 Q 299.58 155.82 305.18 157.85 A 1.19 1.10 -7.4 0 1 305.66 158.19 L 308.29 161.36 A 0.27 0.26 22.7 0 0 308.76 161.17 Q 308.65 159.92 307.79 158.97 C 306.06 157.06 304.97 156.21 302.49 155.47 Q 293.14 152.65 282.63 153.32 A 0.18 0.18 0.0 0 0 282.49 153.60 L 283.19 154.60" data-c-stroke="404181"/><path stroke="#8d91a0" vector-effect="non-scaling-stroke" d="M308.18 188.87A1.61 1.61 0 0 0 306.57 187.26 1.61 1.61 0 0 0 304.96 188.87 1.61 1.61 0 0 0 306.57 190.48 1.61 1.61 0 0 0 308.18 188.87M208.0248 152.1405A3.3 2.93-46.9 0 0 203.6306 152.548 3.3 2.93-46.9 0 0 203.5152 156.9595 3.3 2.93-46.9 0 0 207.9094 156.552 3.3 2.93-46.9 0 0 208.0248 152.1405M138.0517 160.3206A3.14 2.69-64.3 0 0 134.2661 161.9835 3.14 2.69-64.3 0 0 135.3283 165.9794 3.14 2.69-64.3 0 0 139.1139 164.3165 3.14 2.69-64.3 0 0 138.0517 160.3206" data-c-stroke="8d91a0"/><path stroke="#404181" vector-effect="non-scaling-stroke" d="M 85.22 245.05 A 0.49 0.49 0.0 0 0 84.52 245.17 Q 79.49 252.71 83.23 259.12 Q 85.46 262.95 90.96 265.66 C 96.56 268.43 102.85 268.91 108.50 269.93 Q 109.25 270.07 110.33 269.95 A 0.41 0.41 0.0 0 0 110.68 269.66 L 110.79 269.31 A 0.52 0.51 -79.2 0 0 110.34 268.64 C 101.16 267.92 88.93 266.89 83.84 258.35 A 4.08 3.81 24.6 0 1 83.46 257.43 Q 81.82 250.99 85.49 245.57 A 0.27 0.26 -54.7 0 0 85.43 245.21 L 85.22 245.05" data-c-stroke="404181"/><path stroke="#e5e6f4" vector-effect="non-scaling-stroke" d="M123.93 189.45A.4.4 0 0 0 123.53 189.05.4.4 0 0 0 123.13 189.45.4.4 0 0 0 123.53 189.85.4.4 0 0 0 123.93 189.45M126.8178 189.1298A1.18.29-46.8 0 0 125.7986 189.7915 1.18.29-46.8 0 0 125.2022 190.8502 1.18.29-46.8 0 0 126.2214 190.1885 1.18.29-46.8 0 0 126.8178 189.1298M119.5522 190.9274A.46.3-79.7 0 0 119.1748 191.3264.46.3-79.7 0 0 119.3878 191.8326.46.3-79.7 0 0 119.7652 191.4336.46.3-79.7 0 0 119.5522 190.9274M123.86 191.55A.38.38 0 0 0 123.48 191.17.38.38 0 0 0 123.1 191.55.38.38 0 0 0 123.48 191.93.38.38 0 0 0 123.86 191.55M127.48 191.1Q127.11 191.24 127.21 191.68A.31.29-48.1 0 0 127.8 191.63Q127.84 191.45 127.74 191.22A.2.2 0 0 0 127.48 191.1M121.66 192.3A.18.18 0 0 0 121.34 192.17Q121.15 192.39 121.2 192.73A.18.17 53.3 0 0 121.53 192.78Q121.65 192.52 121.66 192.3M119.44 193.12Q119.33 193.12 119.18 193.41A.16.16 0 0 0 119.21 193.59Q119.38 193.77 119.49 193.75A.32.31-50.1 0 0 119.44 193.12M121.27 194.26 121.12 194.73A.18.17 3 0 0 121.32 194.95Q121.8 194.87 121.63 194.27A.19.19 0 0 0 121.27 194.26" data-c-stroke="e5e6f4"/><path stroke="#404181" vector-effect="non-scaling-stroke" d="M 227.4425 304.1094 A 0.54 0.54 0.0 0 0 226.7759 303.7368 L 206.3191 309.5255 A 0.54 0.54 0.0 0 0 205.9466 310.1921 L 205.9575 310.2306 A 0.54 0.54 0.0 0 0 206.6241 310.6032 L 227.0809 304.8145 A 0.54 0.54 0.0 0 0 227.4534 304.1479 L 227.4425 304.1094" data-c-stroke="404181"/></g><path fill="#222844" d="M 350.98 122.87 Q 348.15 120.95 345.24 119.16 C 339.14 115.41 332.27 113.56 325.13 112.17 A 1.52 1.50 23.7 0 0 323.65 112.74 L 322.91 113.74 A 0.90 0.89 -65.7 0 1 322.02 114.08 L 314.32 112.61 Q 312.18 112.00 308.74 111.67 C 300.10 110.86 292.00 110.56 283.44 111.42 C 276.48 112.12 270.05 112.27 263.74 113.43 Q 256.55 114.75 252.87 115.06 A 0.39 0.39 0.0 0 0 252.60 115.69 Q 253.09 116.28 254.03 116.25 Q 256.82 116.16 262.20 115.17 Q 266.54 114.37 270.36 114.06 Q 284.62 112.88 291.50 112.38 Q 300.17 111.73 314.48 113.96 L 321.09 115.32 A 0.60 0.60 0.0 0 1 321.45 116.27 L 319.17 119.31 A 0.71 0.71 0.0 0 0 319.63 120.44 Q 328.10 121.82 335.94 124.85 A 0.69 0.68 28.8 0 0 336.74 124.62 L 341.10 118.80 A 0.41 0.41 0.0 0 1 341.63 118.69 C 344.61 120.41 349.29 122.90 350.68 125.53 A 1.85 1.82 32.2 0 1 350.89 126.42 L 350.65 134.40 Q 350.50 136.22 349.62 137.23 A 0.58 0.58 0.0 0 1 348.80 137.29 Q 348.52 137.04 348.41 136.55 C 348.32 136.17 344.01 133.56 341.31 131.71 Q 337.66 129.20 331.50 127.95 A 0.13 0.12 -64.7 0 0 331.37 128.00 L 331.20 128.22 A 0.28 0.27 27.2 0 0 331.34 128.64 C 338.02 130.87 344.04 133.72 348.47 139.49 A 1.06 1.06 0.0 0 1 348.48 140.76 L 347.16 142.51 A 0.59 0.58 44.0 0 1 346.23 142.52 C 341.15 136.26 332.90 132.98 325.32 131.57 Q 319.06 130.40 309.22 130.23 Q 288.04 129.84 270.15 135.05 Q 261.22 123.78 250.07 115.92 C 224.93 98.22 192.65 94.20 163.77 104.68 Q 141.04 112.92 125.17 131.19 Q 107.62 151.39 103.88 179.07 Q 101.35 178.57 98.74 180.76 Q 97.55 181.76 96.08 182.65 Q 91.52 185.41 86.47 188.16 A 2.70 2.60 -79.7 0 0 85.97 188.52 Q 83.96 190.35 81.62 191.78 C 78.03 193.97 74.78 196.50 72.00 198.86 A 2.62 2.62 0.0 0 1 71.10 199.36 Q 70.81 199.45 70.80 199.45 A 4.95 4.94 11.4 0 0 69.94 200.02 L 54.97 212.44 Q 54.93 212.48 54.89 212.52 L 41.16 226.61 Q 41.32 225.84 41.42 225.29 Q 41.67 224.03 41.39 223.51 Q 40.73 222.27 41.12 221.38 A 3.62 2.71 -57.9 0 0 40.82 217.81 Q 40.58 217.56 41.58 216.32 Q 44.67 215.31 46.97 213.48 Q 56.26 206.08 69.21 194.78 C 70.27 193.85 71.18 192.64 72.01 191.44 A 0.45 0.45 0.0 0 0 71.40 190.81 C 67.61 193.31 61.63 196.85 57.27 200.89 Q 53.15 204.71 47.05 209.23 C 45.11 210.68 43.13 212.86 41.32 214.71 Q 41.06 138.69 41.24 106.00 Q 41.26 101.36 42.56 90.06 C 45.82 61.56 60.85 32.89 85.53 18.54 Q 102.93 8.42 124.78 5.28 Q 170.02 -1.23 214.89 0.63 Q 232.25 1.35 245.69 2.52 Q 264.60 4.16 276.24 6.49 C 296.30 10.51 313.89 19.69 326.97 35.26 Q 339.10 49.70 344.77 67.99 C 346.24 72.75 347.83 78.89 348.62 84.47 Q 351.14 102.27 350.98 117.50 Q 350.96 119.81 350.98 122.87 Z M 152.6974 94.2544 A 1.22 0.99 -170.3 0 0 153.7332 95.4358 A 1.22 0.99 -170.3 0 0 155.1026 94.6656 A 1.22 0.99 -170.3 0 0 154.0668 93.4842 A 1.22 0.99 -170.3 0 0 152.6974 94.2544 Z" data-c-fill="222844"/><ellipse fill="#5d59bd" cx="0" cy="0" transform="rotate(-170.3 80.958 40.7)" rx="1.22" ry=".99" data-c-fill="5d59bd"/><path fill="#f8f9fb" d="M 270.15 135.05 L 271.17 136.31 Q 293.32 167.09 288.49 204.74 Q 287.52 212.34 285.07 219.57 C 284.56 219.03 283.97 218.25 283.87 217.54 A 0.13 0.12 -37.5 0 0 283.63 217.51 L 282.16 220.86 A 0.56 0.56 0.0 0 1 281.48 221.17 L 281.15 221.06 A 0.37 0.37 0.0 0 1 280.93 220.53 Q 281.87 218.76 281.88 217.35 A 0.78 0.77 -9.5 0 1 282.41 216.62 L 284.76 215.82 A 0.40 0.40 0.0 0 0 284.60 215.04 L 282.56 215.19 A 0.52 0.52 0.0 0 1 282.41 214.16 L 284.68 213.66 A 0.28 0.27 50.7 0 0 284.73 213.14 Q 284.63 213.08 282.50 213.16 A 0.30 0.29 87.0 0 1 282.20 212.88 L 282.17 212.49 A 0.37 0.36 85.3 0 1 282.50 212.09 L 284.64 211.93 A 0.26 0.26 0.0 0 0 284.70 211.42 L 283.35 210.99 A 0.31 0.31 0.0 0 1 283.35 210.40 L 284.60 209.97 A 0.48 0.48 0.0 0 0 284.64 209.07 L 283.89 208.74 A 0.43 0.43 0.0 0 1 283.89 207.95 Q 284.33 207.76 285.13 207.93 A 0.44 0.44 0.0 0 0 285.65 207.48 Q 285.54 205.76 284.33 204.80 A 0.40 0.39 -27.9 0 1 284.55 204.10 L 286.45 203.95 A 0.33 0.33 0.0 0 0 286.70 203.45 Q 285.44 201.41 285.91 199.83 A 0.48 0.48 0.0 0 0 285.59 199.23 Q 284.87 199.00 284.92 198.51 Q 285.44 192.88 285.22 185.52 Q 285.18 184.11 283.98 181.38 A 0.31 0.31 0.0 0 1 284.11 180.98 Q 284.17 180.95 284.41 180.96 A 0.49 0.49 0.0 0 0 284.92 180.54 Q 285.06 179.39 284.40 178.94 A 1.33 1.31 13.6 0 1 283.84 178.04 Q 282.21 166.81 279.98 160.14 Q 279.38 158.35 276.21 154.46 A 0.32 0.32 0.0 0 1 276.22 154.05 L 276.23 154.04 A 0.35 0.31 -45.7 0 1 276.71 154.01 L 278.63 156.07 A 0.03 0.02 58.3 0 0 278.65 156.08 L 278.94 155.91 A 0.31 0.31 0.0 0 0 279.01 155.42 L 276.21 152.50 A 0.28 0.25 29.1 0 1 276.14 152.30 Q 276.16 152.05 276.51 151.96 A 0.54 0.53 -10.0 0 0 276.90 151.41 L 276.84 150.69 A 0.35 0.35 0.0 0 0 276.16 150.62 Q 276.10 150.83 275.94 151.52 A 0.42 0.42 0.0 0 1 275.18 151.66 Q 275.02 151.42 274.45 149.45 A 0.03 0.02 31.7 0 1 274.44 149.43 Q 270.85 140.12 265.30 133.22 Q 255.55 121.10 242.46 114.07 A 0.33 0.32 12.6 0 0 241.98 114.37 Q 243.04 131.47 242.71 140.22 Q 242.14 155.81 235.61 171.90 A 2.32 2.30 -4.6 0 1 234.65 173.02 Q 234.09 173.35 234.91 174.30 A 0.43 0.42 -14.5 0 1 234.50 174.99 Q 232.15 174.51 228.98 175.35 Q 222.66 177.02 218.09 181.84 Q 217.68 182.27 216.54 185.02 A 1.32 1.31 44.7 0 0 216.55 186.04 C 217.18 187.50 216.55 188.89 217.84 190.44 Q 221.81 195.21 228.12 195.18 C 229.50 195.18 230.56 194.63 231.59 194.72 A 0.32 0.32 0.0 0 1 231.79 195.26 Q 204.45 223.48 165.52 233.21 C 152.59 236.45 140.86 239.06 129.55 244.29 A 0.35 0.35 0.0 0 0 129.47 244.87 Q 133.25 248.06 134.18 248.84 Q 134.49 249.10 134.84 249.09 Q 135.56 249.07 135.73 249.18 A 0.26 0.25 -30.0 0 1 135.60 249.65 Q 134.48 249.73 134.18 249.43 A 0.92 0.92 0.0 0 0 133.31 249.20 Q 131.86 249.61 131.85 248.63 A 0.46 0.46 0.0 0 0 131.24 248.20 L 129.70 248.72 A 0.90 0.88 -36.1 0 1 128.89 248.60 Q 127.90 247.90 127.76 247.28 A 0.37 0.37 0.0 0 1 128.35 246.91 L 129.63 247.86 A 0.15 0.15 0.0 0 0 129.84 247.83 L 130.05 247.55 A 0.29 0.29 0.0 0 0 129.98 247.14 Q 126.44 244.64 125.09 240.65 A 0.40 0.38 -6.0 0 0 124.77 240.40 Q 124.50 240.36 124.34 240.48 A 0.34 0.33 67.5 0 0 124.21 240.80 Q 124.45 242.17 124.08 243.53 A 1.06 1.06 0.0 0 0 124.20 244.34 L 128.12 250.81 A 0.98 0.93 -88.6 0 0 128.31 251.02 C 131.73 253.60 136.41 258.40 137.43 263.14 Q 113.02 243.70 105.52 213.16 L 104.58 208.49 Q 102.40 195.96 103.47 183.24 L 103.88 179.07 Q 107.62 151.39 125.17 131.19 Q 141.04 112.92 163.77 104.68 C 192.65 94.20 224.93 98.22 250.07 115.92 Q 261.22 123.78 270.15 135.05 Z M 210.9902 146.7262 A 16.97 13.40 -87.5 0 0 196.8628 163.0955 A 16.97 13.40 -87.5 0 0 209.5098 180.6338 A 16.97 13.40 -87.5 0 0 223.6372 164.2645 A 16.97 13.40 -87.5 0 0 210.9902 146.7262 Z M 140.8724 155.6196 A 16.09 10.96 -85.5 0 0 128.6838 170.8001 A 16.09 10.96 -85.5 0 0 138.3476 187.7004 A 16.09 10.96 -85.5 0 0 150.5362 172.5199 A 16.09 10.96 -85.5 0 0 140.8724 155.6196 Z M 159.50 186.34 A 3.91 3.90 -33.8 0 0 158.54 191.14 Q 162.15 198.10 169.53 199.48 C 179.01 201.25 187.17 196.34 190.91 187.45 A 3.54 3.53 -64.0 0 0 189.38 182.99 L 189.19 182.89 A 3.10 3.09 -63.9 0 0 184.84 184.38 Q 181.42 192.33 174.99 193.04 Q 167.85 193.83 163.72 186.87 A 2.68 2.67 -35.2 0 0 159.70 186.18 L 159.50 186.34 Z M 129.88 203.88 Q 130.51 204.29 131.48 203.72 Q 135.80 201.17 137.41 197.98 A 1.75 1.73 55.9 0 0 137.58 197.07 C 137.41 195.08 137.74 191.94 135.07 190.75 A 3.04 2.96 -11.1 0 1 134.26 190.22 C 130.97 187.21 126.09 187.42 121.66 188.10 A 0.91 0.89 2.3 0 0 120.91 188.78 Q 120.76 189.42 121.75 190.31 A 0.17 0.16 41.2 0 1 121.77 190.54 Q 121.63 190.73 121.53 190.78 A 0.33 0.33 0.0 0 1 121.07 190.60 Q 120.73 189.74 120.11 189.28 A 0.69 0.68 42.2 0 0 119.23 189.32 Q 117.87 190.58 117.63 191.45 A 0.65 0.64 5.7 0 1 117.05 191.92 L 116.51 191.97 A 0.85 0.85 0.0 0 0 115.72 192.87 Q 115.78 193.97 115.75 195.33 Q 115.75 195.63 115.72 195.65 Q 115.53 195.73 115.45 195.80 A 0.78 0.78 0.0 0 0 115.26 196.50 Q 116.62 202.26 122.54 204.41 A 1.16 1.10 -32.6 0 0 122.96 204.49 L 128.29 204.61 A 0.95 0.94 19.2 0 0 129.06 204.24 L 129.25 203.99 A 0.47 0.46 34.8 0 1 129.88 203.88 Z" data-c-fill="f8f9fb"/><path fill="#5d59bd" d="M 314.32 112.61 Q 313.83 113.41 314.48 113.96 Q 300.17 111.73 291.50 112.38 Q 284.62 112.88 270.36 114.06 Q 266.54 114.37 262.20 115.17 Q 256.82 116.16 254.03 116.25 Q 253.09 116.28 252.60 115.69 A 0.39 0.39 0.0 0 1 252.87 115.06 Q 256.55 114.75 263.74 113.43 C 270.05 112.27 276.48 112.12 283.44 111.42 C 292.00 110.56 300.10 110.86 308.74 111.67 Q 312.18 112.00 314.32 112.61 Z" data-c-fill="5d59bd"/><path fill="#f8f9fb" d="M 350.98 122.87 Q 360.02 134.57 354.61 148.25 A 1.98 1.94 -8.6 0 1 353.96 149.11 L 351.09 151.28 Q 351.06 151.24 351.04 151.20 A 0.35 0.28 -65.3 0 1 351.00 151.04 Q 350.84 146.65 350.77 142.26 Q 350.75 141.07 351.61 140.92 Q 352.70 138.96 351.47 137.36 Q 350.69 136.35 350.65 134.40 L 350.89 126.42 A 1.85 1.82 32.2 0 0 350.68 125.53 C 349.29 122.90 344.61 120.41 341.63 118.69 A 0.41 0.41 0.0 0 0 341.10 118.80 L 336.74 124.62 A 0.69 0.68 28.8 0 1 335.94 124.85 Q 328.10 121.82 319.63 120.44 A 0.71 0.71 0.0 0 1 319.17 119.31 L 321.45 116.27 A 0.60 0.60 0.0 0 0 321.09 115.32 L 314.48 113.96 Q 313.83 113.41 314.32 112.61 L 322.02 114.08 A 0.90 0.89 -65.7 0 0 322.91 113.74 L 323.65 112.74 A 1.52 1.50 23.7 0 1 325.13 112.17 C 332.27 113.56 339.14 115.41 345.24 119.16 Q 348.15 120.95 350.98 122.87 Z" data-c-fill="f8f9fb"/><path fill="#d1d2ec" d="M 285.07 219.57 Q 284.94 220.15 284.74 220.46 L 284.55 220.94 A 1.21 1.21 0.0 0 1 284.16 221.47 Q 279.55 225.07 274.30 227.35 A 0.32 0.31 69.5 0 0 274.13 227.75 L 274.32 228.33 A 0.28 0.28 0.0 0 0 274.71 228.48 L 279.61 225.81 A 0.37 0.34 2.4 0 0 279.74 225.70 Q 280.57 224.50 282.24 224.70 Q 283.09 224.79 283.14 225.66 L 281.15 230.09 L 272.24 244.99 Q 269.65 245.50 267.96 246.56 Q 260.11 251.47 253.64 254.28 C 251.05 255.41 247.59 256.34 245.31 254.24 Q 242.24 251.41 237.88 253.89 A 0.87 0.80 -65.8 0 1 237.67 253.98 L 205.22 265.00 A 1.55 0.16 -3.5 0 1 204.24 265.16 Q 203.37 265.24 202.19 265.62 Q 192.82 268.64 180.68 271.39 Q 176.95 272.24 178.10 276.14 A 1.17 1.16 4.0 0 0 178.76 276.89 Q 181.37 278.05 184.78 276.97 Q 188.20 275.89 194.96 274.64 C 202.47 273.24 209.70 269.93 216.35 268.21 C 224.17 266.18 230.98 263.23 239.54 260.28 Q 243.28 259.00 245.60 258.47 A 1.90 1.87 47.5 0 1 246.59 258.52 Q 247.59 258.86 248.49 262.20 A 1.01 1.00 66.3 0 0 249.99 262.79 Q 251.61 261.77 252.88 263.42 Q 227.01 281.80 195.58 282.98 Q 192.18 283.11 187.93 282.80 Q 184.11 282.53 180.29 282.20 Q 178.79 281.95 177.83 281.28 Q 164.55 278.43 153.47 272.92 A 0.46 0.46 0.0 0 1 153.59 272.06 C 159.46 271.02 164.05 270.54 169.37 269.33 Q 175.02 268.03 186.86 265.59 Q 191.77 264.57 207.18 259.89 A 1.93 1.93 0.0 0 0 208.44 257.41 L 208.40 257.30 A 2.13 2.12 -16.8 0 0 205.85 255.94 Q 186.67 261.00 172.72 263.91 Q 165.51 265.41 150.16 267.68 Q 148.66 267.90 147.28 267.93 Q 145.74 267.96 144.42 268.00 L 137.43 263.14 C 136.41 258.40 131.73 253.60 128.31 251.02 A 0.98 0.93 -88.6 0 1 128.12 250.81 L 124.20 244.34 A 1.06 1.06 0.0 0 1 124.08 243.53 Q 124.45 242.17 124.21 240.80 A 0.34 0.33 67.5 0 1 124.34 240.48 Q 124.50 240.36 124.77 240.40 A 0.40 0.38 -6.0 0 1 125.09 240.65 Q 126.44 244.64 129.98 247.14 A 0.29 0.29 0.0 0 1 130.05 247.55 L 129.84 247.83 A 0.15 0.15 0.0 0 1 129.63 247.86 L 128.35 246.91 A 0.37 0.37 0.0 0 0 127.76 247.28 Q 127.90 247.90 128.89 248.60 A 0.90 0.88 -36.1 0 0 129.70 248.72 L 131.24 248.20 A 0.46 0.46 0.0 0 1 131.85 248.63 Q 131.86 249.61 133.31 249.20 A 0.92 0.92 0.0 0 1 134.18 249.43 Q 134.48 249.73 135.60 249.65 A 0.26 0.25 -30.0 0 0 135.73 249.18 Q 135.56 249.07 134.84 249.09 Q 134.49 249.10 134.18 248.84 Q 133.25 248.06 129.47 244.87 A 0.35 0.35 0.0 0 1 129.55 244.29 C 140.86 239.06 152.59 236.45 165.52 233.21 Q 204.45 223.48 231.79 195.26 A 0.32 0.32 0.0 0 0 231.59 194.72 C 230.56 194.63 229.50 195.18 228.12 195.18 Q 221.81 195.21 217.84 190.44 C 216.55 188.89 217.18 187.50 216.55 186.04 A 1.32 1.31 44.7 0 1 216.54 185.02 Q 217.68 182.27 218.09 181.84 Q 222.66 177.02 228.98 175.35 Q 232.15 174.51 234.50 174.99 A 0.43 0.42 -14.5 0 0 234.91 174.30 Q 234.09 173.35 234.65 173.02 A 2.32 2.30 -4.6 0 0 235.61 171.90 Q 242.14 155.81 242.71 140.22 Q 243.04 131.47 241.98 114.37 A 0.33 0.32 12.6 0 1 242.46 114.07 Q 255.55 121.10 265.30 133.22 Q 270.85 140.12 274.44 149.43 A 0.03 0.02 31.7 0 0 274.45 149.45 Q 275.02 151.42 275.18 151.66 A 0.42 0.42 0.0 0 0 275.94 151.52 Q 276.10 150.83 276.16 150.62 A 0.35 0.35 0.0 0 1 276.84 150.69 L 276.90 151.41 A 0.54 0.53 -10.0 0 1 276.51 151.96 Q 276.16 152.05 276.14 152.30 A 0.28 0.25 29.1 0 0 276.21 152.50 L 279.01 155.42 A 0.31 0.31 0.0 0 1 278.94 155.91 L 278.65 156.08 A 0.03 0.02 58.3 0 1 278.63 156.07 L 276.71 154.01 A 0.35 0.31 -45.7 0 0 276.23 154.04 L 276.22 154.05 A 0.32 0.32 0.0 0 0 276.21 154.46 Q 279.38 158.35 279.98 160.14 Q 282.21 166.81 283.84 178.04 A 1.33 1.31 13.6 0 0 284.40 178.94 Q 285.06 179.39 284.92 180.54 A 0.49 0.49 0.0 0 1 284.41 180.96 Q 284.17 180.95 284.11 180.98 A 0.31 0.31 0.0 0 0 283.98 181.38 Q 285.18 184.11 285.22 185.52 Q 285.44 192.88 284.92 198.51 Q 284.87 199.00 285.59 199.23 A 0.48 0.48 0.0 0 1 285.91 199.83 Q 285.44 201.41 286.70 203.45 A 0.33 0.33 0.0 0 1 286.45 203.95 L 284.55 204.10 A 0.40 0.39 -27.9 0 0 284.33 204.80 Q 285.54 205.76 285.65 207.48 A 0.44 0.44 0.0 0 1 285.13 207.93 Q 284.33 207.76 283.89 207.95 A 0.43 0.43 0.0 0 0 283.89 208.74 L 284.64 209.07 A 0.48 0.48 0.0 0 1 284.60 209.97 L 283.35 210.40 A 0.31 0.31 0.0 0 0 283.35 210.99 L 284.70 211.42 A 0.26 0.26 0.0 0 1 284.64 211.93 L 282.50 212.09 A 0.37 0.36 85.3 0 0 282.17 212.49 L 282.20 212.88 A 0.30 0.29 87.0 0 0 282.50 213.16 Q 284.63 213.08 284.73 213.14 A 0.28 0.27 50.7 0 1 284.68 213.66 L 282.41 214.16 A 0.52 0.52 0.0 0 0 282.56 215.19 L 284.60 215.04 A 0.40 0.40 0.0 0 1 284.76 215.82 L 282.41 216.62 A 0.78 0.77 -9.5 0 0 281.88 217.35 Q 281.87 218.76 280.93 220.53 A 0.37 0.37 0.0 0 0 281.15 221.06 L 281.48 221.17 A 0.56 0.56 0.0 0 0 282.16 220.86 L 283.63 217.51 A 0.13 0.12 -37.5 0 1 283.87 217.54 C 283.97 218.25 284.56 219.03 285.07 219.57 Z" data-c-fill="d1d2ec"/><path fill="#5d59bd" d="M 350.65 134.40 Q 350.69 136.35 351.47 137.36 Q 349.44 139.20 351.61 140.92 Q 350.75 141.07 350.77 142.26 Q 350.84 146.65 351.00 151.04 A 0.35 0.28 -65.3 0 0 351.04 151.20 Q 351.06 151.24 351.09 151.28 L 351.20 199.16 Q 349.95 201.44 349.48 201.98 Q 346.74 205.14 338.12 213.11 Q 332.77 218.05 315.05 231.15 A 0.99 0.98 -44.8 0 0 315.04 232.73 L 317.08 234.26 A 1.35 1.34 -44.8 0 0 318.69 234.26 Q 333.81 223.13 349.27 209.13 Q 349.67 208.76 350.16 208.97 Q 350.03 210.64 351.39 211.37 Q 353.31 212.40 354.59 213.88 A 1.65 1.65 0.0 0 1 354.68 215.93 L 350.82 221.23 Q 348.66 223.15 346.67 225.15 C 337.66 234.23 326.82 242.20 316.03 249.10 C 314.28 250.22 312.39 250.86 310.98 251.33 A 2.47 2.41 14.3 0 0 310.11 251.83 Q 310.10 251.84 304.67 255.44 Q 302.26 257.04 298.99 258.68 Q 292.53 261.91 286.56 265.04 Q 280.34 268.30 276.50 273.08 Q 251.64 284.94 229.30 292.53 Q 208.47 299.59 182.90 305.71 A 0.31 0.30 -30.6 0 0 182.76 306.23 L 186.03 309.19 Q 184.74 309.74 181.05 310.54 Q 138.17 319.82 95.89 319.50 Q 93.47 318.83 91.17 316.77 C 90.19 315.90 90.05 314.65 88.79 314.26 Q 87.94 314.00 87.47 313.48 Q 86.68 312.62 83.16 310.30 A 1.83 1.78 -27.3 0 0 82.21 310.01 Q 79.04 309.99 66.52 308.92 Q 52.07 307.68 40.15 304.09 Q 36.68 303.04 30.38 299.67 Q 25.13 296.85 22.04 292.93 Q 17.65 287.36 16.46 283.16 Q 14.88 277.62 15.66 270.12 Q 16.31 263.89 21.01 254.00 Q 22.18 251.54 27.74 243.24 Q 32.13 236.70 40.52 228.44 A 1.63 1.62 -17.5 0 0 40.97 227.58 L 41.16 226.61 L 54.89 212.52 Q 54.93 212.48 54.97 212.44 L 69.94 200.02 A 4.95 4.94 11.4 0 1 70.80 199.45 Q 70.81 199.45 71.10 199.36 A 2.62 2.62 0.0 0 0 72.00 198.86 C 74.78 196.50 78.03 193.97 81.62 191.78 Q 83.96 190.35 85.97 188.52 A 2.70 2.60 -79.7 0 1 86.47 188.16 Q 91.52 185.41 96.08 182.65 Q 97.55 181.76 98.74 180.76 Q 101.35 178.57 103.88 179.07 L 103.47 183.24 C 98.51 185.51 93.24 187.79 89.12 191.04 C 84.54 194.65 80.14 196.92 75.76 200.82 Q 71.36 204.74 65.90 208.93 A 2.11 2.09 -7.5 0 0 65.21 209.82 C 62.38 216.54 58.25 222.89 55.66 229.07 Q 53.53 234.17 56.35 238.53 A 0.42 0.41 -43.0 0 0 57.03 238.55 Q 58.70 236.32 58.91 235.57 A 1.92 1.81 74.8 0 1 59.26 234.91 Q 65.95 226.67 67.73 224.48 Q 71.87 219.38 81.35 211.98 Q 81.77 212.56 82.59 212.56 Q 76.52 217.52 71.34 223.35 Q 70.59 224.20 70.36 224.31 A 1.85 1.79 4.9 0 0 69.71 224.84 L 59.80 238.06 A 1.14 1.08 66.0 0 0 59.59 238.65 Q 59.51 239.71 58.53 240.44 A 0.46 0.45 -25.3 0 0 58.36 240.91 Q 58.38 240.98 58.38 241.07 A 1.39 1.35 -30.1 0 1 58.18 241.78 Q 55.91 245.50 55.54 247.08 Q 55.11 248.86 54.48 253.76 A 2.87 2.81 42.0 0 0 54.55 254.89 Q 56.05 260.85 61.17 264.34 L 60.63 268.06 A 1.80 1.79 -55.2 0 0 60.83 269.19 Q 63.10 273.31 68.29 273.88 A 1.11 0.98 -21.9 0 1 68.74 274.04 Q 69.35 274.43 69.70 274.29 Q 71.44 273.57 73.21 271.98 A 0.79 0.79 0.0 0 1 74.00 271.83 Q 83.53 275.42 93.74 275.64 Q 97.20 276.57 103.92 277.63 Q 111.44 278.80 117.23 275.58 A 0.98 0.94 -87.9 0 0 117.57 275.25 L 120.38 270.53 A 1.38 1.37 12.7 0 1 121.45 269.86 L 144.42 268.00 Q 145.74 267.96 147.28 267.93 Q 148.66 267.90 150.16 267.68 Q 165.51 265.41 172.72 263.91 Q 186.67 261.00 205.85 255.94 A 2.13 2.12 -16.8 0 1 208.40 257.30 L 208.44 257.41 A 1.93 1.93 0.0 0 1 207.18 259.89 Q 191.77 264.57 186.86 265.59 Q 175.02 268.03 169.37 269.33 C 164.05 270.54 159.46 271.02 153.59 272.06 A 0.46 0.46 0.0 0 0 153.47 272.92 Q 164.55 278.43 177.83 281.28 L 153.64 286.09 A 0.21 0.20 4.6 0 0 153.48 286.22 L 152.59 289.04 A 0.28 0.28 0.0 0 0 152.90 289.40 Q 164.67 287.84 178.71 284.70 Q 180.51 284.30 180.29 282.20 Q 184.11 282.53 187.93 282.80 Q 192.18 283.11 195.58 282.98 Q 227.01 281.80 252.88 263.42 Q 264.60 257.12 276.57 251.06 Q 285.15 246.71 303.28 235.18 A 1.54 1.54 0.0 0 0 303.63 232.90 L 301.10 229.85 A 1.88 1.88 0.0 0 0 298.69 229.44 C 293.10 232.77 288.48 236.10 282.93 239.17 Q 277.73 242.04 272.24 244.99 L 281.15 230.09 Q 284.56 230.58 286.34 228.19 A 0.58 0.58 0.0 0 0 286.28 227.42 Q 284.62 225.81 283.14 225.66 Q 283.09 224.79 282.24 224.70 Q 280.57 224.50 279.74 225.70 A 0.37 0.34 2.4 0 1 279.61 225.81 L 274.71 228.48 A 0.28 0.28 0.0 0 1 274.32 228.33 L 274.13 227.75 A 0.32 0.31 69.5 0 1 274.30 227.35 Q 279.55 225.07 284.16 221.47 A 1.21 1.21 0.0 0 0 284.55 220.94 L 284.74 220.46 Q 284.99 220.42 285.08 220.65 A 0.19 0.19 0.0 0 0 285.36 220.74 C 289.76 217.89 294.82 214.79 299.41 211.24 Q 304.83 207.05 309.67 203.72 A 5.36 4.96 2.3 0 0 310.49 203.02 C 312.96 200.44 316.17 198.37 318.66 195.56 C 320.48 193.51 322.84 192.81 325.48 192.78 Q 325.92 193.67 326.54 193.70 A 0.35 0.35 0.0 0 0 326.80 193.61 Q 334.51 186.87 339.53 178.57 A 1.33 1.30 -82.9 0 1 340.22 178.02 L 343.71 176.83 A 1.58 1.57 60.9 0 0 344.42 174.33 L 342.87 172.46 A 1.26 1.24 32.3 0 1 342.61 171.36 L 344.41 163.81 A 1.08 0.95 -22.8 0 1 344.60 163.42 Q 344.86 163.07 345.40 162.75 A 1.73 1.68 84.2 0 0 346.17 161.78 L 348.84 153.34 A 0.31 0.30 20.1 0 0 348.66 152.97 Q 348.07 152.73 347.85 153.60 Q 347.61 154.52 347.14 155.07 A 1.26 1.23 -21.4 0 0 346.85 155.71 Q 346.29 159.29 345.09 161.75 Q 344.85 162.24 344.31 162.31 Q 343.80 162.38 343.81 161.86 Q 343.85 154.47 339.93 148.04 Q 339.87 146.18 337.36 144.38 C 331.13 139.91 324.94 137.80 316.99 136.82 Q 300.16 134.73 282.49 136.88 Q 277.76 137.46 274.44 137.75 A 1.72 1.69 56.0 0 1 273.51 137.56 L 271.17 136.31 L 270.15 135.05 Q 288.04 129.84 309.22 130.23 Q 319.06 130.40 325.32 131.57 C 332.90 132.98 341.15 136.26 346.23 142.52 A 0.59 0.58 44.0 0 0 347.16 142.51 L 348.48 140.76 A 1.06 1.06 0.0 0 0 348.47 139.49 C 344.04 133.72 338.02 130.87 331.34 128.64 A 0.28 0.27 27.2 0 1 331.20 128.22 L 331.37 128.00 A 0.13 0.12 -64.7 0 1 331.50 127.95 Q 337.66 129.20 341.31 131.71 C 344.01 133.56 348.32 136.17 348.41 136.55 Q 348.52 137.04 348.80 137.29 A 0.58 0.58 0.0 0 0 349.62 137.23 Q 350.50 136.22 350.65 134.40 Z M 40.68 238.45 Q 40.96 238.24 41.30 238.58 A 0.17 0.15 37.4 0 1 41.33 238.75 L 35.66 251.69 A 0.76 0.75 16.9 0 0 36.22 252.73 Q 37.55 252.97 38.26 254.19 C 39.84 256.95 36.71 258.39 34.56 258.80 A 0.46 0.46 0.0 0 0 34.23 259.46 Q 34.93 260.83 35.16 266.68 C 35.62 278.27 42.29 287.07 52.77 292.10 Q 60.56 295.84 68.18 298.62 Q 69.88 299.24 71.26 300.02 A 0.27 0.27 0.0 0 0 71.60 299.61 L 61.32 287.22 A 0.46 0.45 81.8 0 1 61.85 286.51 C 65.43 288.07 68.12 289.07 71.48 289.82 Q 92.74 294.55 114.40 292.75 A 0.40 0.40 0.0 0 0 114.70 292.13 Q 114.40 291.66 113.49 291.73 Q 98.35 292.84 82.02 290.67 Q 75.77 289.84 70.39 288.33 Q 64.53 286.68 60.43 284.53 A 2.58 2.51 -4.9 0 1 59.66 283.90 Q 57.63 281.41 56.97 280.29 Q 47.01 263.48 43.42 244.78 Q 42.65 240.77 41.98 236.68 Q 42.14 234.24 41.47 231.87 A 0.35 0.34 58.2 0 0 40.88 231.73 Q 30.45 243.26 24.26 256.25 Q 21.92 261.17 20.82 266.34 C 17.00 284.36 31.45 295.70 46.60 300.38 Q 57.68 303.81 69.92 304.96 C 72.60 305.21 75.67 306.25 77.91 305.93 A 0.20 0.20 0.0 0 0 78.02 305.59 L 74.02 301.59 A 0.79 0.79 0.0 0 0 73.24 301.39 Q 71.90 301.77 70.64 301.35 Q 59.84 297.70 51.37 293.38 Q 37.39 286.25 34.11 270.95 Q 33.62 268.66 33.66 260.42 A 2.65 2.56 33.1 0 0 33.40 259.29 Q 33.03 258.55 32.31 257.61 A 3.12 3.09 48.4 0 1 32.53 253.57 Q 35.23 250.75 36.27 247.19 A 4.41 4.38 66.6 0 1 36.52 246.55 L 40.68 238.45 Z M 119.89 292.58 L 145.23 290.60 A 1.95 1.94 -88.7 0 0 147.01 288.89 L 147.36 285.88 A 0.85 0.84 1.1 0 0 146.45 284.94 L 122.53 286.80 A 2.04 2.04 0.0 0 0 120.83 288.01 L 119.24 291.65 A 0.66 0.66 0.0 0 0 119.89 292.58 Z" data-c-fill="5d59bd"/><path fill="#222844" d="M 339.93 148.04 Q 338.87 146.92 338.02 146.97 A 0.57 0.56 68.6 0 0 337.62 147.89 Q 340.81 151.82 342.02 155.89 Q 342.41 157.21 342.95 163.70 A 3.81 3.74 50.2 0 1 342.85 164.92 L 341.36 171.07 A 1.12 1.12 0.0 0 1 340.07 171.91 Q 337.30 171.39 336.06 173.85 A 1.70 1.69 55.4 0 0 335.89 174.78 Q 336.03 176.00 338.01 177.43 A 0.38 0.38 0.0 0 1 338.11 177.94 Q 332.81 186.11 325.48 192.78 C 322.84 192.81 320.48 193.51 318.66 195.56 C 316.17 198.37 312.96 200.44 310.49 203.02 A 5.36 4.96 2.3 0 1 309.67 203.72 Q 304.83 207.05 299.41 211.24 C 294.82 214.79 289.76 217.89 285.36 220.74 A 0.19 0.19 0.0 0 1 285.08 220.65 Q 284.99 220.42 284.74 220.46 Q 284.94 220.15 285.07 219.57 Q 287.52 212.34 288.49 204.74 Q 293.32 167.09 271.17 136.31 L 273.51 137.56 A 1.72 1.69 56.0 0 0 274.44 137.75 Q 277.76 137.46 282.49 136.88 Q 300.16 134.73 316.99 136.82 C 324.94 137.80 331.13 139.91 337.36 144.38 Q 339.87 146.18 339.93 148.04 Z M 320.07 154.01 Q 322.06 151.31 319.78 148.47 Q 316.32 144.16 312.04 147.50 A 1.76 1.74 -50.2 0 1 310.18 147.68 Q 304.50 144.78 297.43 144.26 A 0.75 0.74 6.8 0 0 296.64 144.88 L 296.63 144.95 A 0.63 0.63 0.0 0 0 297.20 145.68 Q 303.66 146.30 309.59 148.92 A 1.16 1.16 0.0 0 1 310.18 150.45 Q 309.40 152.21 310.67 154.09 Q 313.62 158.43 318.16 155.90 A 0.68 0.67 -35.3 0 1 319.00 156.04 Q 324.05 161.81 322.16 168.93 A 0.43 0.43 0.0 0 0 322.85 169.38 Q 323.76 168.64 323.96 167.23 Q 324.89 160.78 320.12 155.26 A 1.01 1.00 -47.6 0 1 320.07 154.01 Z M 283.19 154.60 A 0.13 0.10 65.2 0 0 283.28 154.65 Q 290.51 154.47 297.49 155.51 Q 299.58 155.82 305.18 157.85 A 1.19 1.10 -7.4 0 1 305.66 158.19 L 308.29 161.36 A 0.27 0.26 22.7 0 0 308.76 161.17 Q 308.65 159.92 307.79 158.97 C 306.06 157.06 304.97 156.21 302.49 155.47 Q 293.14 152.65 282.63 153.32 A 0.18 0.18 0.0 0 0 282.49 153.60 L 283.19 154.60 Z M 308.18 188.87 A 1.61 1.61 0.0 0 0 306.57 187.26 A 1.61 1.61 0.0 0 0 304.96 188.87 A 1.61 1.61 0.0 0 0 306.57 190.48 A 1.61 1.61 0.0 0 0 308.18 188.87 Z" data-c-fill="222844"/><path fill="#f8f9fb" d="M390.84 143.12C392.47 147.59 390.24 151.78 386.15 153.19Q379.81 155.38 375.69 149.66A.84.8 29.9 0 1 375.54 149.16Q375.55 148.91 375.48 148.7 375.4 148.48 375.23 148.3A.84.8-69.8 0 1 375.02 147.82Q374.51 140.79 380.78 138.4C384.82 136.86 389.22 138.64 390.84 143.12ZM320.07 154.01A1.01 1-47.6 0 0 320.12 155.26Q324.89 160.78 323.96 167.23 323.76 168.64 322.85 169.38A.43.43 0 0 1 322.16 168.93Q324.05 161.81 319 156.04A.68.67-35.3 0 0 318.16 155.9Q313.62 158.43 310.67 154.09 309.4 152.21 310.18 150.45A1.16 1.16 0 0 0 309.59 148.92Q303.66 146.3 297.2 145.68A.63.63 0 0 1 296.63 144.95L296.64 144.88A.75.74 6.8 0 1 297.43 144.26Q304.5 144.78 310.18 147.68A1.76 1.74-50.2 0 0 312.04 147.5Q316.32 144.16 319.78 148.47 322.06 151.31 320.07 154.01Z" data-c-fill="f8f9fb"/><path fill="#222844" d="M 210.9902 146.7262 A 16.97 13.40 -87.5 0 1 223.6372 164.2645 A 16.97 13.40 -87.5 0 1 209.5098 180.6338 A 16.97 13.40 -87.5 0 1 196.8628 163.0955 A 16.97 13.40 -87.5 0 1 210.9902 146.7262 Z M 208.0248 152.1405 A 3.30 2.93 -46.9 0 0 203.6306 152.5480 A 3.30 2.93 -46.9 0 0 203.5152 156.9595 A 3.30 2.93 -46.9 0 0 207.9094 156.5520 A 3.30 2.93 -46.9 0 0 208.0248 152.1405 Z" data-c-fill="222844"/><path fill="#f8f9fb" d="M339.93 148.04Q343.85 154.47 343.81 161.86 343.8 162.38 344.31 162.31 344.85 162.24 345.09 161.75 346.29 159.29 346.85 155.71A1.26 1.23-21.4 0 1 347.14 155.07Q347.61 154.52 347.85 153.6 348.07 152.73 348.66 152.97A.31.3 20.1 0 1 348.84 153.34L346.17 161.78A1.73 1.68 84.2 0 1 345.4 162.75Q344.86 163.07 344.6 163.42A1.08.95-22.8 0 0 344.41 163.81L342.61 171.36A1.26 1.24 32.3 0 0 342.87 172.46L344.42 174.33A1.58 1.57 60.9 0 1 343.71 176.83L340.22 178.02A1.33 1.3-82.9 0 0 339.53 178.57Q334.51 186.87 326.8 193.61A.35.35 0 0 1 326.54 193.7Q325.92 193.67 325.48 192.78 332.81 186.11 338.11 177.94A.38.38 0 0 0 338.01 177.43Q336.03 176 335.89 174.78A1.7 1.69 55.4 0 1 336.06 173.85Q337.3 171.39 340.07 171.91A1.12 1.12 0 0 0 341.36 171.07L342.85 164.92A3.81 3.74 50.2 0 0 342.95 163.7Q342.41 157.21 342.02 155.89 340.81 151.82 337.62 147.89A.57.56 68.6 0 1 338.02 146.97Q338.87 146.92 339.93 148.04ZM350.16 208.97Q349.67 208.76 349.27 209.13 333.81 223.13 318.69 234.26A1.35 1.34-44.8 0 1 317.08 234.26L315.04 232.73A.99.98-44.8 0 1 315.05 231.15Q332.77 218.05 338.12 213.11 346.74 205.14 349.48 201.98 349.95 201.44 351.2 199.16 357.3 193.25 361.01 185.76 363.88 179.97 365.78 173.3 366.18 171.9 366.01 163.24A3.27 3.18 31.5 0 0 365.66 161.87L361.53 153.74A.45.44 53.9 0 1 361.61 153.22Q363.06 151.79 364.78 151.38A1.05 1.02-28.9 0 1 365.74 151.64Q367.53 153.37 368.26 154.71 371.93 161.42 371.54 168.26 371.54 168.41 371.02 173.73A4.65 4.39 58.6 0 1 370.81 174.72C366.96 186.72 360.33 196.97 351.88 206.11A2.41 2.41 0 0 0 351.38 206.91Q350.95 208.06 350.16 208.97Z" data-c-fill="f8f9fb"/><ellipse fill="#f8f9fb" cx="0" cy="0" transform="rotate(-46.9 281.03 -159.91)" rx="3.3" ry="2.93" data-c-fill="f8f9fb"/><path fill="#5d59bd" d="M 282.63 153.32 Q 293.14 152.65 302.49 155.47 C 304.97 156.21 306.06 157.06 307.79 158.97 Q 308.65 159.92 308.76 161.17 A 0.27 0.26 22.7 0 1 308.29 161.36 L 305.66 158.19 A 1.19 1.10 -7.4 0 0 305.18 157.85 Q 299.58 155.82 297.49 155.51 Q 290.51 154.47 283.28 154.65 A 0.13 0.10 65.2 0 1 283.19 154.60 L 282.49 153.60 A 0.18 0.18 0.0 0 1 282.63 153.32 Z" data-c-fill="5d59bd"/><path fill="#222844" d="M 140.8724 155.6196 A 16.09 10.96 -85.5 0 1 150.5362 172.5199 A 16.09 10.96 -85.5 0 1 138.3476 187.7004 A 16.09 10.96 -85.5 0 1 128.6838 170.8001 A 16.09 10.96 -85.5 0 1 140.8724 155.6196 Z M 138.0517 160.3206 A 3.14 2.69 -64.3 0 0 134.2661 161.9835 A 3.14 2.69 -64.3 0 0 135.3283 165.9794 A 3.14 2.69 -64.3 0 0 139.1139 164.3165 A 3.14 2.69 -64.3 0 0 138.0517 160.3206 Z" data-c-fill="222844"/><ellipse fill="#f8f9fb" cx="0" cy="0" transform="rotate(-64.3 198.135 -27.165)" rx="3.14" ry="2.69" data-c-fill="f8f9fb"/><path fill="#5d59bd" d="M 388.50 166.41 Q 389.11 164.96 388.37 162.54 A 1.40 1.40 0.0 0 1 389.60 160.73 L 391.58 160.57 A 1.51 1.51 0.0 0 1 393.20 162.07 C 393.33 176.62 387.46 190.08 379.28 202.36 A 1.69 1.69 0.0 0 1 376.85 202.78 L 376.20 202.30 A 1.51 1.51 0.0 0 1 375.83 200.29 Q 382.18 190.15 385.96 179.97 Q 387.98 174.54 388.72 167.32 A 0.70 0.66 32.2 0 0 388.61 166.89 C 388.52 166.74 388.40 166.63 388.50 166.41 Z" data-c-fill="5d59bd"/><path fill="#222844" d="M159.5 186.34 159.7 186.18A2.68 2.67-35.2 0 1 163.72 186.87Q167.85 193.83 174.99 193.04 181.42 192.33 184.84 184.38A3.1 3.09-63.9 0 1 189.19 182.89L189.38 182.99A3.54 3.53-64 0 1 190.91 187.45C187.17 196.34 179.01 201.25 169.53 199.48Q162.15 198.1 158.54 191.14A3.91 3.9-33.8 0 1 159.5 186.34ZM103.47 183.24Q102.4 195.96 104.58 208.49 104.71 211.12 103.14 212.21 101.36 213.45 101.15 213.64 99.96 214.74 98.58 215.84 88.78 223.63 81.87 233.78A.26.25 12.8 0 0 82.12 234.17Q83.9 233.91 84.94 232.39 89.41 225.86 94.97 221.45A3.47 3.37-2.1 0 0 95.63 220.76Q97.77 217.88 100.23 217.29A1.35 1.33-80.7 0 0 101.05 216.69Q101.71 215.58 103.48 215.23A.91.89 2 0 0 104.17 214.6Q104.53 213.39 105.52 213.16 113.02 243.7 137.43 263.14L144.42 268 121.45 269.86A1.38 1.37 12.7 0 0 120.38 270.53L117.57 275.25A.98.94-87.9 0 1 117.23 275.58Q111.44 278.8 103.92 277.63 97.2 276.57 93.74 275.64L75.36 270.87A.91.91 0 0 1 74.76 269.62Q75.69 267.54 74.49 265.24 72.97 262.31 69.49 260.55A1.66 1.65-32.5 0 0 68.66 260.37Q63.82 260.67 61.17 264.34 56.05 260.85 54.55 254.89A2.87 2.81 42 0 1 54.48 253.76Q55.11 248.86 55.54 247.08 55.91 245.5 58.18 241.78A1.39 1.35-30.1 0 0 58.38 241.07Q58.38 240.98 58.36 240.91A.46.45-25.3 0 1 58.53 240.44Q59.51 239.71 59.59 238.65A1.14 1.08 66 0 1 59.8 238.06L69.71 224.84A1.85 1.79 4.9 0 1 70.36 224.31Q70.59 224.2 71.34 223.35 76.52 217.52 82.59 212.56 84.38 212.02 84.64 210.32C87.12 209.69 87.72 208.13 89.55 207.07Q92.14 205.58 92.15 205.57 101.22 198.99 101.3 198.93A1.71 1.71 0 0 0 101.89 197.16L101.86 197.05A.8.78 64.3 0 0 100.63 196.6L82.97 209.91Q81.54 210.05 81.35 211.98 71.87 219.38 67.73 224.48 65.95 226.67 59.26 234.91A1.92 1.81 74.8 0 0 58.91 235.57Q58.7 236.32 57.03 238.55A.42.41-43 0 1 56.35 238.53Q53.53 234.17 55.66 229.07C58.25 222.89 62.38 216.54 65.21 209.82A2.11 2.09-7.5 0 1 65.9 208.93Q71.36 204.74 75.76 200.82C80.14 196.92 84.54 194.65 89.12 191.04 93.24 187.79 98.51 185.51 103.47 183.24ZM85.22 245.05A.49.49 0 0 0 84.52 245.17Q79.49 252.71 83.23 259.12 85.46 262.95 90.96 265.66C96.56 268.43 102.85 268.91 108.5 269.93Q109.25 270.07 110.33 269.95A.41.41 0 0 0 110.68 269.66L110.79 269.31A.52.51-79.2 0 0 110.34 268.64C101.16 267.92 88.93 266.89 83.84 258.35A4.08 3.81 24.6 0 1 83.46 257.43Q81.82 250.99 85.49 245.57A.27.26-54.7 0 0 85.43 245.21L85.22 245.05Z" data-c-fill="222844"/><circle fill="#f8f9fb" cx="306.57" cy="188.87" r="1.61" data-c-fill="f8f9fb"/><path fill="#d1d2ec" d="M 129.25 203.99 L 129.06 204.24 A 0.95 0.94 19.2 0 1 128.29 204.61 L 122.96 204.49 A 1.16 1.10 -32.6 0 1 122.54 204.41 Q 116.62 202.26 115.26 196.50 A 0.78 0.78 0.0 0 1 115.45 195.80 Q 115.53 195.73 115.72 195.65 Q 115.75 195.63 115.75 195.33 Q 115.78 193.97 115.72 192.87 A 0.85 0.85 0.0 0 1 116.51 191.97 L 117.05 191.92 A 0.65 0.64 5.7 0 0 117.63 191.45 Q 117.87 190.58 119.23 189.32 A 0.69 0.68 42.2 0 1 120.11 189.28 Q 120.73 189.74 121.07 190.60 A 0.33 0.33 0.0 0 0 121.53 190.78 Q 121.63 190.73 121.77 190.54 A 0.17 0.16 41.2 0 0 121.75 190.31 Q 120.76 189.42 120.91 188.78 A 0.91 0.89 2.3 0 1 121.66 188.10 C 126.09 187.42 130.97 187.21 134.26 190.22 A 3.04 2.96 -11.1 0 0 135.07 190.75 C 137.74 191.94 137.41 195.08 137.58 197.07 A 1.75 1.73 55.9 0 1 137.41 197.98 Q 135.80 201.17 131.48 203.72 Q 130.51 204.29 129.88 203.88 A 0.47 0.46 34.8 0 0 129.25 203.99 Z M 123.93 189.45 A 0.40 0.40 0.0 0 0 123.53 189.05 A 0.40 0.40 0.0 0 0 123.13 189.45 A 0.40 0.40 0.0 0 0 123.53 189.85 A 0.40 0.40 0.0 0 0 123.93 189.45 Z M 126.8178 189.1298 A 1.18 0.29 -46.8 0 0 125.7986 189.7915 A 1.18 0.29 -46.8 0 0 125.2022 190.8502 A 1.18 0.29 -46.8 0 0 126.2214 190.1885 A 1.18 0.29 -46.8 0 0 126.8178 189.1298 Z M 119.5522 190.9274 A 0.46 0.30 -79.7 0 0 119.1748 191.3264 A 0.46 0.30 -79.7 0 0 119.3878 191.8326 A 0.46 0.30 -79.7 0 0 119.7652 191.4336 A 0.46 0.30 -79.7 0 0 119.5522 190.9274 Z M 123.86 191.55 A 0.38 0.38 0.0 0 0 123.48 191.17 A 0.38 0.38 0.0 0 0 123.10 191.55 A 0.38 0.38 0.0 0 0 123.48 191.93 A 0.38 0.38 0.0 0 0 123.86 191.55 Z M 127.48 191.10 Q 127.11 191.24 127.21 191.68 A 0.31 0.29 -48.1 0 0 127.80 191.63 Q 127.84 191.45 127.74 191.22 A 0.20 0.20 0.0 0 0 127.48 191.10 Z M 121.66 192.30 A 0.18 0.18 0.0 0 0 121.34 192.17 Q 121.15 192.39 121.20 192.73 A 0.18 0.17 53.3 0 0 121.53 192.78 Q 121.65 192.52 121.66 192.30 Z M 119.44 193.12 Q 119.33 193.12 119.18 193.41 A 0.16 0.16 0.0 0 0 119.21 193.59 Q 119.38 193.77 119.49 193.75 A 0.32 0.31 -50.1 0 0 119.44 193.12 Z M 121.27 194.26 L 121.12 194.73 A 0.18 0.17 3.0 0 0 121.32 194.95 Q 121.80 194.87 121.63 194.27 A 0.19 0.19 0.0 0 0 121.27 194.26 Z" data-c-fill="d1d2ec"/><circle fill="#f8f9fb" cx="123.53" cy="189.45" r=".4" data-c-fill="f8f9fb"/><ellipse fill="#f8f9fb" cx="0" cy="0" transform="rotate(-46.8 282.525 -50.601)" rx="1.18" ry=".29" data-c-fill="f8f9fb"/><path fill="#5d59bd" d="M 41.58 216.32 Q 40.58 215.85 41.32 214.71 C 43.13 212.86 45.11 210.68 47.05 209.23 Q 53.15 204.71 57.27 200.89 C 61.63 196.85 67.61 193.31 71.40 190.81 A 0.45 0.45 0.0 0 1 72.01 191.44 C 71.18 192.64 70.27 193.85 69.21 194.78 Q 56.26 206.08 46.97 213.48 Q 44.67 215.31 41.58 216.32 Z" data-c-fill="5d59bd"/><ellipse fill="#f8f9fb" cx="0" cy="0" transform="rotate(-79.7 174.382 24.12)" rx=".46" ry=".3" data-c-fill="f8f9fb"/><circle fill="#f8f9fb" cx="123.48" cy="191.55" r=".38" data-c-fill="f8f9fb"/><path fill="#f8f9fb" d="M127.74 191.22Q127.84 191.45 127.8 191.63A.31.29-48.1 0 1 127.21 191.68Q127.11 191.24 127.48 191.1A.2.2 0 0 1 127.74 191.22ZM121.66 192.3Q121.65 192.52 121.53 192.78A.18.17 53.3 0 1 121.2 192.73Q121.15 192.39 121.34 192.17A.18.18 0 0 1 121.66 192.3ZM119.44 193.12A.32.31-50.1 0 1 119.49 193.75Q119.38 193.77 119.21 193.59A.16.16 0 0 1 119.18 193.41Q119.33 193.12 119.44 193.12ZM121.63 194.27Q121.8 194.87 121.32 194.95A.18.17 3 0 1 121.12 194.73L121.27 194.26A.19.19 0 0 1 121.63 194.27Z" data-c-fill="f8f9fb"/><path fill="#5d59bd" d="M84.64 210.32Q83.86 209.04 82.97 209.91L100.63 196.6A.8.78 64.3 0 1 101.86 197.05L101.89 197.16A1.71 1.71 0 0 1 101.3 198.93Q101.22 198.99 92.15 205.57 92.14 205.58 89.55 207.07C87.72 208.13 87.12 209.69 84.64 210.32ZM105.52 213.16Q104.53 213.39 104.17 214.6A.91.89 2 0 1 103.48 215.23Q101.71 215.58 101.05 216.69A1.35 1.33-80.7 0 1 100.23 217.29Q97.77 217.88 95.63 220.76A3.47 3.37-2.1 0 1 94.97 221.45Q89.41 225.86 84.94 232.39 83.9 233.91 82.12 234.17A.26.25 12.8 0 1 81.87 233.78Q88.78 223.63 98.58 215.84 99.96 214.74 101.15 213.64 101.36 213.45 103.14 212.21 104.71 211.12 104.58 208.49L105.52 213.16Z" data-c-fill="5d59bd"/><path fill="#d1d2ec" d="M 84.64 210.32 Q 84.38 212.02 82.59 212.56 Q 81.77 212.56 81.35 211.98 Q 81.54 210.05 82.97 209.91 Q 83.86 209.04 84.64 210.32 Z" data-c-fill="d1d2ec"/><path fill="#5d59bd" d="M 8.94 242.16 A 1.23 1.22 -56.6 0 1 7.15 242.53 L 1.53 238.32 A 1.06 1.06 0.0 0 1 1.26 236.93 Q 8.86 224.19 19.32 214.03 A 1.56 1.55 -48.5 0 1 21.34 213.90 L 26.03 217.41 A 1.37 1.37 0.0 0 1 26.20 219.45 Q 15.87 230.31 8.94 242.16 Z" data-c-fill="5d59bd"/><path fill="#222844" d="M350.82 221.23 350 231.12A1.04.55 73.2 0 1 349.97 231.27Q349.31 233.72 349.34 235.33A12.06 5.98-59 0 1 349.15 237.69L347.21 248.96Q346.1 249.68 344.72 250.8 343.24 252 342.26 252.66 327.49 262.61 312.51 271.25 293.45 282.24 272.7 290.91A.39.39 0 0 0 272.62 291.58L272.96 291.84A1.22 1.2-38.5 0 0 274.19 291.97Q296.25 281.79 310.52 274.25 316.36 271.16 328.36 264.54 332.3 262.37 334.38 261.02C337.37 259.07 340.3 257.48 343.08 255.45Q344.45 254.45 345.93 253.66 339.4 276.73 325.24 293.5 312.18 308.97 294.71 319.7C281.87 327.58 268.79 333.8 254.39 340.65Q224.22 355.01 197.06 367.32A2.21 2.18 44.7 0 1 195.25 367.32Q164.07 353.13 127.67 336.07 116.31 330.75 109.39 327.06 106.6 325.57 95.89 319.5 138.17 319.82 181.05 310.54 184.74 309.74 186.03 309.19 233.17 298.27 277.49 276.38A.82.81 61.2 0 0 277.82 275.23L276.5 273.08Q280.34 268.3 286.56 265.04 292.53 261.91 298.99 258.68 302.26 257.04 304.67 255.44 310.1 251.84 310.11 251.83A2.47 2.41 14.3 0 1 310.98 251.33C312.39 250.86 314.28 250.22 316.03 249.1 326.82 242.2 337.66 234.23 346.67 225.15Q348.66 223.15 350.82 221.23ZM227.4425 304.1094A.54.54 0 0 0 226.7759 303.7368L206.3191 309.5255A.54.54 0 0 0 205.9466 310.1921L205.9575 310.2306A.54.54 0 0 0 206.6241 310.6032L227.0809 304.8145A.54.54 0 0 0 227.4534 304.1479L227.4425 304.1094ZM281.15 230.09 283.14 225.66Q284.62 225.81 286.28 227.42A.58.58 0 0 1 286.34 228.19Q284.56 230.58 281.15 230.09Z" data-c-fill="222844"/><path fill="#f8f9fb" d="M252.88 263.42Q251.61 261.77 249.99 262.79A1.01 1 66.3 0 1 248.49 262.2Q247.59 258.86 246.59 258.52A1.9 1.87 47.5 0 0 245.6 258.47Q243.28 259 239.54 260.28C230.98 263.23 224.17 266.18 216.35 268.21 209.7 269.93 202.47 273.24 194.96 274.64Q188.2 275.89 184.78 276.97 181.37 278.05 178.76 276.89A1.17 1.16 4 0 1 178.1 276.14Q176.95 272.24 180.68 271.39 192.82 268.64 202.19 265.62 203.37 265.24 204.24 265.16A1.55.16-3.5 0 0 205.22 265L237.67 253.98A.87.8-65.8 0 0 237.88 253.89Q242.24 251.41 245.31 254.24C247.59 256.34 251.05 255.41 253.64 254.28Q260.11 251.47 267.96 246.56 269.65 245.5 272.24 244.99 277.73 242.04 282.93 239.17C288.48 236.1 293.1 232.77 298.69 229.44A1.88 1.88 0 0 1 301.1 229.85L303.63 232.9A1.54 1.54 0 0 1 303.28 235.18Q285.15 246.71 276.57 251.06 264.6 257.12 252.88 263.42ZM41.98 236.68Q41.03 237.45 40.68 238.45L36.52 246.55A4.41 4.38 66.6 0 0 36.27 247.19Q35.23 250.75 32.53 253.57A3.12 3.09 48.4 0 0 32.31 257.61Q33.03 258.55 33.4 259.29A2.65 2.56 33.1 0 1 33.66 260.42Q33.62 268.66 34.11 270.95 37.39 286.25 51.37 293.38 59.84 297.7 70.64 301.35 71.9 301.77 73.24 301.39A.79.79 0 0 1 74.02 301.59L78.02 305.59A.2.2 0 0 1 77.91 305.93C75.67 306.25 72.6 305.21 69.92 304.96Q57.68 303.81 46.6 300.38C31.45 295.7 17 284.36 20.82 266.34Q21.92 261.17 24.26 256.25 30.45 243.26 40.88 231.73A.35.34 58.2 0 1 41.47 231.87Q42.14 234.24 41.98 236.68Z" data-c-fill="f8f9fb"/><path fill="#d1d2ec" d="M 41.98 236.68 Q 42.65 240.77 43.42 244.78 Q 47.01 263.48 56.97 280.29 Q 57.63 281.41 59.66 283.90 A 2.58 2.51 -4.9 0 0 60.43 284.53 Q 64.53 286.68 70.39 288.33 Q 75.77 289.84 82.02 290.67 Q 98.35 292.84 113.49 291.73 Q 114.40 291.66 114.70 292.13 A 0.40 0.40 0.0 0 1 114.40 292.75 Q 92.74 294.55 71.48 289.82 C 68.12 289.07 65.43 288.07 61.85 286.51 A 0.46 0.45 81.8 0 0 61.32 287.22 L 71.60 299.61 A 0.27 0.27 0.0 0 1 71.26 300.02 Q 69.88 299.24 68.18 298.62 Q 60.56 295.84 52.77 292.10 C 42.29 287.07 35.62 278.27 35.16 266.68 Q 34.93 260.83 34.23 259.46 A 0.46 0.46 0.0 0 1 34.56 258.80 C 36.71 258.39 39.84 256.95 38.26 254.19 Q 37.55 252.97 36.22 252.73 A 0.76 0.75 16.9 0 1 35.66 251.69 L 41.33 238.75 A 0.17 0.15 37.4 0 0 41.30 238.58 Q 40.96 238.24 40.68 238.45 Q 41.03 237.45 41.98 236.68 Z" data-c-fill="d1d2ec"/><path fill="#5d59bd" d="M345.93 253.66Q344.45 254.45 343.08 255.45C340.3 257.48 337.37 259.07 334.38 261.02Q332.3 262.37 328.36 264.54 316.36 271.16 310.52 274.25 296.25 281.79 274.19 291.97A1.22 1.2-38.5 0 1 272.96 291.84L272.62 291.58A.39.39 0 0 1 272.7 290.91Q293.45 282.24 312.51 271.25 327.49 262.61 342.26 252.66 343.24 252 344.72 250.8 346.1 249.68 347.21 248.96 355.1 243.73 361.27 237.12A.93.93 0 0 1 362.87 237.87Q362.8 238.43 361.98 239.24 354.29 246.89 345.93 253.66ZM85.22 245.05 85.43 245.21A.27.26-54.7 0 1 85.49 245.57Q81.82 250.99 83.46 257.43A4.08 3.81 24.6 0 0 83.84 258.35C88.93 266.89 101.16 267.92 110.34 268.64A.52.51-79.2 0 1 110.79 269.31L110.68 269.66A.41.41 0 0 1 110.33 269.95Q109.25 270.07 108.5 269.93C102.85 268.91 96.56 268.43 90.96 265.66Q85.46 262.95 83.23 259.12 79.49 252.71 84.52 245.17A.49.49 0 0 1 85.22 245.05Z" data-c-fill="5d59bd"/><path fill="#f8f9fb" d="M93.74 275.64Q83.53 275.42 74 271.83A.79.79 0 0 0 73.21 271.98Q71.44 273.57 69.7 274.29 69.35 274.43 68.74 274.04A1.11.98-21.9 0 0 68.29 273.88Q63.1 273.31 60.83 269.19A1.8 1.79-55.2 0 1 60.63 268.06L61.17 264.34Q63.82 260.67 68.66 260.37A1.66 1.65-32.5 0 1 69.49 260.55Q72.97 262.31 74.49 265.24 75.69 267.54 74.76 269.62A.91.91 0 0 0 75.36 270.87L93.74 275.64ZM276.5 273.08 277.82 275.23A.82.81 61.2 0 1 277.49 276.38Q233.17 298.27 186.03 309.19L182.76 306.23A.31.3-30.6 0 1 182.9 305.71Q208.47 299.59 229.3 292.53 251.64 284.94 276.5 273.08ZM180.29 282.2Q180.51 284.3 178.71 284.7 164.67 287.84 152.9 289.4A.28.28 0 0 1 152.59 289.04L153.48 286.22A.21.2 4.6 0 1 153.64 286.09L177.83 281.28Q178.79 281.95 180.29 282.2ZM119.89 292.58A.66.66 0 0 1 119.24 291.65L120.83 288.01A2.04 2.04 0 0 1 122.53 286.8L146.45 284.94A.85.84 1.1 0 1 147.36 285.88L147.01 288.89A1.95 1.94-88.7 0 1 145.23 290.6L119.89 292.58Z" data-c-fill="f8f9fb"/><rect fill="#5d59bd" x="-11.17" y="-.56" transform="rotate(-15.8 1215.177 -627.251)" width="22.34" height="1.12" rx=".54" data-c-fill="5d59bd"/></svg>